<svg width="140" height="40" viewBox="0 0 140 40" fill="none" xmlns="http://www.w3.org/2000/svg">
<rect width="140" height="40" rx="10" fill="black"/>
<path d="M29.3445 17.8693H25.0831C25.0263 17.4318 24.9098 17.0369 24.7337 16.6847C24.5575 16.3324 24.3246 16.0312 24.0348 15.7812C23.745 15.5312 23.4013 15.3409 23.0036 15.2102C22.6115 15.0739 22.1768 15.0057 21.6996 15.0057C20.853 15.0057 20.1229 15.2131 19.5092 15.6278C18.9013 16.0426 18.4325 16.642 18.103 17.4261C17.7791 18.2102 17.6172 19.1591 17.6172 20.2727C17.6172 21.4318 17.782 22.4034 18.1115 23.1875C18.4467 23.9659 18.9155 24.554 19.5178 24.9517C20.1257 25.3437 20.8445 25.5398 21.674 25.5398C22.1399 25.5398 22.5632 25.4801 22.9439 25.3608C23.3303 25.2415 23.6683 25.0682 23.9581 24.8409C24.2536 24.608 24.495 24.3267 24.6825 23.9972C24.8757 23.6619 25.0092 23.2841 25.0831 22.8636L29.3445 22.8892C29.2706 23.6619 29.0462 24.4233 28.6712 25.1733C28.3018 25.9233 27.7933 26.608 27.1456 27.2273C26.4979 27.8409 25.7081 28.3295 24.7763 28.6932C23.8501 29.0568 22.7876 29.2386 21.5888 29.2386C20.0092 29.2386 18.5945 28.892 17.3445 28.1989C16.1001 27.5 15.1172 26.483 14.3956 25.1477C13.674 23.8125 13.3132 22.1875 13.3132 20.2727C13.3132 18.3523 13.6797 16.7244 14.4126 15.3892C15.1456 14.054 16.1371 13.0398 17.3871 12.3466C18.6371 11.6534 20.0376 11.3068 21.5888 11.3068C22.6456 11.3068 23.6229 11.4545 24.5206 11.75C25.4183 12.0398 26.2081 12.4659 26.8899 13.0284C27.5717 13.5852 28.1257 14.2699 28.5518 15.0824C28.978 15.8949 29.2422 16.8239 29.3445 17.8693ZM35.9261 21.5341V29H31.7585V11.5455H35.7898V18.3125H35.9347C36.2301 17.5057 36.7131 16.875 37.3835 16.4205C38.0597 15.9659 38.8864 15.7386 39.8636 15.7386C40.7841 15.7386 41.5852 15.9432 42.267 16.3523C42.9489 16.7557 43.4773 17.3267 43.8523 18.0653C44.233 18.804 44.4205 19.6676 44.4148 20.6562V29H40.2472V21.4744C40.2528 20.7472 40.071 20.179 39.7017 19.7699C39.3324 19.3608 38.8125 19.1562 38.142 19.1562C37.7045 19.1562 37.3182 19.2528 36.983 19.446C36.6534 19.6335 36.3949 19.9034 36.2074 20.2557C36.0256 20.608 35.9318 21.0341 35.9261 21.5341ZM53.1357 29.2472C51.7663 29.2472 50.5845 28.9773 49.5902 28.4375C48.6016 27.892 47.8402 27.1165 47.3061 26.1108C46.7777 25.0994 46.5135 23.8977 46.5135 22.5057C46.5135 21.1534 46.7805 19.9716 47.3146 18.9602C47.8487 17.9432 48.6016 17.1534 49.5732 16.5909C50.5447 16.0227 51.6896 15.7386 53.0078 15.7386C53.9396 15.7386 54.7919 15.8835 55.5646 16.1733C56.3374 16.4631 57.005 16.892 57.5675 17.4602C58.13 18.0284 58.5675 18.7301 58.88 19.5653C59.1925 20.3949 59.3487 21.3466 59.3487 22.4205V23.4602H47.9709V21.0398H55.4709C55.4652 20.5966 55.3601 20.2017 55.1555 19.8551C54.951 19.5085 54.6697 19.2386 54.3118 19.0455C53.9595 18.8466 53.5533 18.7472 53.093 18.7472C52.6271 18.7472 52.2095 18.8523 51.8402 19.0625C51.4709 19.267 51.1783 19.5483 50.9624 19.9062C50.7464 20.2585 50.6328 20.6591 50.6214 21.108V23.571C50.6214 24.1051 50.7266 24.5739 50.9368 24.9773C51.147 25.375 51.4453 25.6847 51.8317 25.9062C52.218 26.1278 52.6783 26.2386 53.2124 26.2386C53.5817 26.2386 53.9169 26.1875 54.218 26.0852C54.5192 25.983 54.7777 25.8324 54.9936 25.6335C55.2095 25.4347 55.3714 25.1903 55.4794 24.9006L59.3061 25.0114C59.147 25.8693 58.7976 26.6165 58.2578 27.2528C57.7237 27.8835 57.022 28.375 56.1527 28.7273C55.2834 29.0739 54.2777 29.2472 53.1357 29.2472ZM67.5881 29.2472C66.2074 29.2472 65.0227 28.9631 64.0341 28.3949C63.0511 27.8267 62.2955 27.0369 61.767 26.0256C61.2386 25.0085 60.9744 23.8324 60.9744 22.4972C60.9744 21.1562 61.2386 19.9801 61.767 18.9688C62.3011 17.9517 63.0597 17.1591 64.0426 16.5909C65.0313 16.0227 66.2102 15.7386 67.5795 15.7386C68.7898 15.7386 69.8438 15.9574 70.7415 16.3949C71.6449 16.8324 72.3494 17.4517 72.8551 18.2528C73.3665 19.0483 73.6364 19.983 73.6648 21.0568H69.7699C69.6903 20.3864 69.4631 19.8608 69.0881 19.4801C68.7188 19.0994 68.2358 18.9091 67.6392 18.9091C67.1563 18.9091 66.733 19.0455 66.3693 19.3182C66.0057 19.5852 65.7216 19.983 65.517 20.5114C65.3182 21.0341 65.2188 21.6818 65.2188 22.4545C65.2188 23.2273 65.3182 23.8807 65.517 24.4148C65.7216 24.9432 66.0057 25.3437 66.3693 25.6165C66.733 25.8835 67.1563 26.017 67.6392 26.017C68.0256 26.017 68.3665 25.9347 68.6619 25.7699C68.9631 25.6051 69.2102 25.3636 69.4034 25.0455C69.5966 24.7216 69.7188 24.3295 69.7699 23.8693H73.6648C73.625 24.9489 73.3551 25.892 72.8551 26.6989C72.3608 27.5057 71.6648 28.1335 70.767 28.5824C69.875 29.0256 68.8153 29.2472 67.5881 29.2472ZM79.5561 25.5653L79.5732 20.5966H80.1527L83.8345 15.9091H88.5561L83.0845 22.625H81.9851L79.5561 25.5653ZM75.7976 29V11.5455H79.9652V29H75.7976ZM83.9283 29L80.5021 23.5625L83.2464 20.6051L88.7436 29H83.9283ZM95.6193 29.2472C94.2443 29.2472 93.0625 28.9659 92.0739 28.4034C91.0909 27.8352 90.3324 27.0455 89.7983 26.0341C89.2699 25.017 89.0057 23.8381 89.0057 22.4972C89.0057 21.1506 89.2699 19.9716 89.7983 18.9602C90.3324 17.9432 91.0909 17.1534 92.0739 16.5909C93.0625 16.0227 94.2443 15.7386 95.6193 15.7386C96.9943 15.7386 98.1733 16.0227 99.1562 16.5909C100.145 17.1534 100.903 17.9432 101.432 18.9602C101.966 19.9716 102.233 21.1506 102.233 22.4972C102.233 23.8381 101.966 25.017 101.432 26.0341C100.903 27.0455 100.145 27.8352 99.1562 28.4034C98.1733 28.9659 96.9943 29.2472 95.6193 29.2472ZM95.6449 26.1023C96.1449 26.1023 96.5682 25.9489 96.9148 25.642C97.2614 25.3352 97.5256 24.9091 97.7074 24.3636C97.8949 23.8182 97.9886 23.1875 97.9886 22.4716C97.9886 21.7443 97.8949 21.108 97.7074 20.5625C97.5256 20.017 97.2614 19.5909 96.9148 19.2841C96.5682 18.9773 96.1449 18.8239 95.6449 18.8239C95.1278 18.8239 94.6903 18.9773 94.3324 19.2841C93.9801 19.5909 93.7102 20.017 93.5227 20.5625C93.3409 21.108 93.25 21.7443 93.25 22.4716C93.25 23.1875 93.3409 23.8182 93.5227 24.3636C93.7102 24.9091 93.9801 25.3352 94.3324 25.642C94.6903 25.9489 95.1278 26.1023 95.6449 26.1023ZM112.814 23.3494V15.9091H116.973V29H113.001V26.5625H112.865C112.575 27.3636 112.081 28 111.382 28.4716C110.689 28.9375 109.851 29.1705 108.868 29.1705C107.976 29.1705 107.192 28.9659 106.516 28.5568C105.839 28.1477 105.314 27.5767 104.939 26.8438C104.564 26.1051 104.374 25.2415 104.368 24.2528V15.9091H108.536V23.4347C108.541 24.1449 108.729 24.7045 109.098 25.1136C109.467 25.5227 109.97 25.7273 110.607 25.7273C111.021 25.7273 111.393 25.6364 111.723 25.4545C112.058 25.267 112.322 24.9972 112.516 24.6449C112.714 24.2869 112.814 23.8551 112.814 23.3494ZM127.015 15.9091V18.9773H118.756V15.9091H127.015ZM120.487 12.7727H124.654V24.8835C124.654 25.1392 124.694 25.3466 124.773 25.5057C124.859 25.6591 124.981 25.7699 125.14 25.8381C125.299 25.9006 125.489 25.9318 125.711 25.9318C125.87 25.9318 126.038 25.9176 126.214 25.8892C126.396 25.8551 126.532 25.8267 126.623 25.804L127.254 28.8125C127.055 28.8693 126.773 28.9403 126.41 29.0256C126.052 29.1108 125.623 29.1648 125.123 29.1875C124.146 29.233 123.308 29.1193 122.609 28.8466C121.915 28.5682 121.384 28.1364 121.015 27.5511C120.651 26.9659 120.475 26.2301 120.487 25.3438V12.7727Z" fill="white"/>
</svg>
