<svg width="72" height="72" viewBox="0 0 72 72" fill="none" xmlns="http://www.w3.org/2000/svg">
<path d="M35.8333 43C36.542 43 37.2349 42.7898 37.8241 42.3961C38.4134 42.0024 38.8727 41.4427 39.1439 40.7879C39.4151 40.1332 39.4861 39.4127 39.3478 38.7176C39.2095 38.0225 38.8683 37.384 38.3671 36.8829C37.866 36.3817 37.2275 36.0404 36.5324 35.9022C35.8373 35.7639 35.1168 35.8349 34.462 36.1061C33.8073 36.3773 33.2476 36.8366 32.8539 37.4259C32.4602 38.0151 32.25 38.708 32.25 39.4167C32.25 40.367 32.6275 41.2785 33.2995 41.9505C33.9715 42.6225 34.883 43 35.8333 43ZM53.75 43C54.4587 43 55.1515 42.7898 55.7408 42.3961C56.3301 42.0024 56.7894 41.4427 57.0606 40.7879C57.3318 40.1332 57.4027 39.4127 57.2645 38.7176C57.1262 38.0225 56.7849 37.384 56.2838 36.8829C55.7827 36.3817 55.1442 36.0404 54.4491 35.9022C53.754 35.7639 53.0335 35.8349 52.3787 36.1061C51.7239 36.3773 51.1643 36.8366 50.7706 37.4259C50.3768 38.0151 50.1667 38.708 50.1667 39.4167C50.1667 40.367 50.5442 41.2785 51.2162 41.9505C51.8882 42.6225 52.7996 43 53.75 43ZM35.8333 57.3333C36.542 57.3333 37.2349 57.1232 37.8241 56.7294C38.4134 56.3357 38.8727 55.776 39.1439 55.1213C39.4151 54.4665 39.4861 53.746 39.3478 53.0509C39.2095 52.3558 38.8683 51.7173 38.3671 51.2162C37.866 50.7151 37.2275 50.3738 36.5324 50.2355C35.8373 50.0973 35.1168 50.1682 34.462 50.4394C33.8073 50.7106 33.2476 51.1699 32.8539 51.7592C32.4602 52.3485 32.25 53.0413 32.25 53.75C32.25 54.7004 32.6275 55.6118 33.2995 56.2838C33.9715 56.9558 34.883 57.3333 35.8333 57.3333ZM53.75 57.3333C54.4587 57.3333 55.1515 57.1232 55.7408 56.7294C56.3301 56.3357 56.7894 55.776 57.0606 55.1213C57.3318 54.4665 57.4027 53.746 57.2645 53.0509C57.1262 52.3558 56.7849 51.7173 56.2838 51.2162C55.7827 50.7151 55.1442 50.3738 54.4491 50.2355C53.754 50.0973 53.0335 50.1682 52.3787 50.4394C51.7239 50.7106 51.1643 51.1699 50.7706 51.7592C50.3768 52.3485 50.1667 53.0413 50.1667 53.75C50.1667 54.7004 50.5442 55.6118 51.2162 56.2838C51.8882 56.9558 52.7996 57.3333 53.75 57.3333ZM17.9167 43C18.6254 43 19.3182 42.7898 19.9075 42.3961C20.4967 42.0024 20.956 41.4427 21.2272 40.7879C21.4984 40.1332 21.5694 39.4127 21.4311 38.7176C21.2929 38.0225 20.9516 37.384 20.4505 36.8829C19.9493 36.3817 19.3108 36.0404 18.6157 35.9022C17.9206 35.7639 17.2002 35.8349 16.5454 36.1061C15.8906 36.3773 15.331 36.8366 14.9372 37.4259C14.5435 38.0151 14.3333 38.708 14.3333 39.4167C14.3333 40.367 14.7109 41.2785 15.3829 41.9505C16.0549 42.6225 16.9663 43 17.9167 43ZM60.9167 7.16667H57.3333V3.58333C57.3333 2.63297 56.9558 1.72154 56.2838 1.04953C55.6118 0.377529 54.7004 0 53.75 0C52.7996 0 51.8882 0.377529 51.2162 1.04953C50.5442 1.72154 50.1667 2.63297 50.1667 3.58333V7.16667H21.5V3.58333C21.5 2.63297 21.1225 1.72154 20.4505 1.04953C19.7785 0.377529 18.867 0 17.9167 0C16.9663 0 16.0549 0.377529 15.3829 1.04953C14.7109 1.72154 14.3333 2.63297 14.3333 3.58333V7.16667H10.75C7.89892 7.16667 5.16462 8.29925 3.1486 10.3153C1.13259 12.3313 0 15.0656 0 17.9167V60.9167C0 63.7677 1.13259 66.502 3.1486 68.5181C5.16462 70.5341 7.89892 71.6667 10.75 71.6667H60.9167C63.7677 71.6667 66.502 70.5341 68.5181 68.5181C70.5341 66.502 71.6667 63.7677 71.6667 60.9167V17.9167C71.6667 15.0656 70.5341 12.3313 68.5181 10.3153C66.502 8.29925 63.7677 7.16667 60.9167 7.16667ZM64.5 60.9167C64.5 61.867 64.1225 62.7785 63.4505 63.4505C62.7785 64.1225 61.867 64.5 60.9167 64.5H10.75C9.79964 64.5 8.88821 64.1225 8.2162 63.4505C7.5442 62.7785 7.16667 61.867 7.16667 60.9167V28.6667H64.5V60.9167ZM64.5 21.5H7.16667V17.9167C7.16667 16.9663 7.5442 16.0549 8.2162 15.3829C8.88821 14.7109 9.79964 14.3333 10.75 14.3333H60.9167C61.867 14.3333 62.7785 14.7109 63.4505 15.3829C64.1225 16.0549 64.5 16.9663 64.5 17.9167V21.5ZM17.9167 57.3333C18.6254 57.3333 19.3182 57.1232 19.9075 56.7294C20.4967 56.3357 20.956 55.776 21.2272 55.1213C21.4984 54.4665 21.5694 53.746 21.4311 53.0509C21.2929 52.3558 20.9516 51.7173 20.4505 51.2162C19.9493 50.7151 19.3108 50.3738 18.6157 50.2355C17.9206 50.0973 17.2002 50.1682 16.5454 50.4394C15.8906 50.7106 15.331 51.1699 14.9372 51.7592C14.5435 52.3485 14.3333 53.0413 14.3333 53.75C14.3333 54.7004 14.7109 55.6118 15.3829 56.2838C16.0549 56.9558 16.9663 57.3333 17.9167 57.3333Z" fill="black"/>
</svg>
