<svg width="815" height="47" viewBox="0 0 815 47" fill="none" xmlns="http://www.w3.org/2000/svg">
<path d="M228.04 37V11.88H237.44C239.28 11.88 240.807 12.1867 242.02 12.8C243.233 13.4 244.14 14.2 244.74 15.2C245.34 16.1867 245.64 17.2667 245.64 18.44C245.64 19.88 245.24 21.1333 244.44 22.2C243.653 23.2533 242.467 23.9733 240.88 24.36C241.907 24.52 242.807 24.8867 243.58 25.46C244.367 26.02 244.98 26.7133 245.42 27.54C245.86 28.3533 246.08 29.2267 246.08 30.16C246.08 31.0133 245.933 31.8467 245.64 32.66C245.36 33.4733 244.887 34.2067 244.22 34.86C243.553 35.5133 242.667 36.0333 241.56 36.42C240.453 36.8067 239.08 37 237.44 37H228.04ZM231.16 34.28H237.4C239.307 34.28 240.673 33.88 241.5 33.08C242.34 32.28 242.76 31.2533 242.76 30C242.76 28.7333 242.307 27.72 241.4 26.96C240.493 26.1867 239.16 25.8 237.4 25.8H231.16V34.28ZM231.16 14.56V23.12H237.32C238.88 23.12 240.12 22.74 241.04 21.98C241.973 21.2067 242.44 20.12 242.44 18.72C242.44 17.4133 241.987 16.3933 241.08 15.66C240.187 14.9267 238.947 14.56 237.36 14.56H231.16ZM265.884 17.84H269.004V37H265.884V17.84ZM252.324 17.84H255.444V29.76C255.444 31.36 255.83 32.5733 256.604 33.4C257.39 34.2267 258.51 34.64 259.964 34.64C261.164 34.64 262.204 34.32 263.084 33.68C263.977 33.04 264.664 32.16 265.144 31.04C265.637 29.9067 265.884 28.6133 265.884 27.16H267.044C267.044 29.3067 266.73 31.14 266.104 32.66C265.49 34.18 264.617 35.3467 263.484 36.16C262.364 36.96 261.044 37.36 259.524 37.36C258.084 37.36 256.824 37.0933 255.744 36.56C254.664 36.0267 253.824 35.22 253.224 34.14C252.624 33.0467 252.324 31.6667 252.324 30V17.84ZM273.942 17.88H277.422L283.662 34.28H282.942L287.782 17.88H290.982L283.782 40.84C283.182 42.76 282.382 44.24 281.382 45.28C280.382 46.32 279.102 46.84 277.542 46.84C276.702 46.84 275.902 46.72 275.142 46.48C274.396 46.24 273.622 45.8933 272.822 45.44V42.56C273.529 43.12 274.209 43.52 274.862 43.76C275.529 44 276.222 44.12 276.942 44.12C277.742 44.12 278.409 43.8667 278.942 43.36C279.489 42.8533 279.942 42.2 280.302 41.4C280.662 40.6133 280.969 39.7867 281.222 38.92L281.782 37L273.942 17.88ZM302.067 17.88H305.547L311.787 34.28H311.067L315.907 17.88H319.107L311.907 40.84C311.307 42.76 310.507 44.24 309.507 45.28C308.507 46.32 307.227 46.84 305.667 46.84C304.827 46.84 304.027 46.72 303.267 46.48C302.521 46.24 301.747 45.8933 300.947 45.44V42.56C301.654 43.12 302.334 43.52 302.987 43.76C303.654 44 304.347 44.12 305.067 44.12C305.867 44.12 306.534 43.8667 307.067 43.36C307.614 42.8533 308.067 42.2 308.427 41.4C308.787 40.6133 309.094 39.7867 309.347 38.92L309.907 37L302.067 17.88ZM330.78 37.48C329.06 37.48 327.527 37.1 326.18 36.34C324.847 35.58 323.794 34.4533 323.02 32.96C322.247 31.4667 321.86 29.6267 321.86 27.44C321.86 25.24 322.247 23.4 323.02 21.92C323.794 20.4267 324.847 19.3 326.18 18.54C327.527 17.78 329.06 17.4 330.78 17.4C332.487 17.4 334.007 17.78 335.34 18.54C336.687 19.3 337.74 20.4267 338.5 21.92C339.274 23.4 339.66 25.24 339.66 27.44C339.66 29.6267 339.274 31.4667 338.5 32.96C337.74 34.4533 336.687 35.58 335.34 36.34C334.007 37.1 332.487 37.48 330.78 37.48ZM330.7 34.76C331.94 34.76 332.994 34.4667 333.86 33.88C334.727 33.28 335.38 32.4333 335.82 31.34C336.274 30.2467 336.5 28.9467 336.5 27.44C336.5 25.16 336.027 23.3667 335.08 22.06C334.134 20.74 332.727 20.08 330.86 20.08C329.607 20.08 328.547 20.38 327.68 20.98C326.827 21.5667 326.174 22.4133 325.72 23.52C325.28 24.6133 325.06 25.92 325.06 27.44C325.06 29.6933 325.534 31.48 326.48 32.8C327.44 34.1067 328.847 34.76 330.7 34.76ZM358.735 17.84H361.855V37H358.735V17.84ZM345.175 17.84H348.295V29.76C348.295 31.36 348.682 32.5733 349.455 33.4C350.242 34.2267 351.362 34.64 352.815 34.64C354.015 34.64 355.055 34.32 355.935 33.68C356.829 33.04 357.515 32.16 357.995 31.04C358.489 29.9067 358.735 28.6133 358.735 27.16H359.895C359.895 29.3067 359.582 31.14 358.955 32.66C358.342 34.18 357.469 35.3467 356.335 36.16C355.215 36.96 353.895 37.36 352.375 37.36C350.935 37.36 349.675 37.0933 348.595 36.56C347.515 36.0267 346.675 35.22 346.075 34.14C345.475 33.0467 345.175 31.6667 345.175 30V17.84ZM369.954 37V17.84H373.074V37H369.954ZM372.114 28.36C372.114 25.9333 372.347 23.92 372.814 22.32C373.281 20.7067 373.961 19.5067 374.854 18.72C375.761 17.92 376.861 17.52 378.154 17.52C378.581 17.52 378.967 17.5533 379.314 17.62C379.674 17.6733 380.034 17.76 380.394 17.88L380.194 20.96C379.821 20.84 379.414 20.74 378.974 20.66C378.534 20.5667 378.141 20.52 377.794 20.52C376.661 20.52 375.747 20.8467 375.054 21.5C374.361 22.14 373.854 23.0467 373.534 24.22C373.227 25.3933 373.074 26.7733 373.074 28.36H372.114ZM395.659 13.36C395.019 13.36 394.513 13.18 394.139 12.82C393.766 12.4467 393.579 11.96 393.579 11.36C393.579 10.7733 393.766 10.3067 394.139 9.96C394.513 9.61333 395.019 9.44 395.659 9.44C396.299 9.44 396.806 9.61333 397.179 9.96C397.553 10.3067 397.739 10.7733 397.739 11.36C397.739 11.96 397.553 12.4467 397.179 12.82C396.806 13.18 396.299 13.36 395.659 13.36ZM394.099 37V17.84H397.219V37H394.099ZM419.413 37V25.76C419.413 23.9333 418.973 22.5467 418.093 21.6C417.227 20.64 416.04 20.16 414.533 20.16C413.387 20.16 412.393 20.4733 411.553 21.1C410.713 21.7267 410.067 22.6267 409.613 23.8C409.16 24.96 408.933 26.3467 408.933 27.96H407.733C407.733 25.7333 408.027 23.8333 408.613 22.26C409.2 20.6867 410.053 19.4867 411.173 18.66C412.307 17.82 413.68 17.4 415.293 17.4C416.8 17.4 418.087 17.74 419.153 18.42C420.233 19.0867 421.06 20.0467 421.633 21.3C422.207 22.5533 422.493 24.04 422.493 25.76V37H419.413ZM405.813 37V17.88H408.493L408.933 22.28V37H405.813ZM436.834 37.48C434.981 37.48 433.434 37.22 432.194 36.7C430.954 36.1667 430.014 35.44 429.374 34.52C428.734 33.5867 428.394 32.52 428.354 31.32H431.354C431.421 32.5333 431.907 33.4467 432.814 34.06C433.734 34.66 434.981 34.96 436.554 34.96C437.381 34.96 438.141 34.8267 438.834 34.56C439.527 34.2933 440.081 33.9267 440.494 33.46C440.907 32.9933 441.114 32.4667 441.114 31.88C441.114 31.1333 440.841 30.5467 440.294 30.12C439.747 29.6933 438.874 29.32 437.674 29L433.954 27.8C432.341 27.2933 431.101 26.6 430.234 25.72C429.381 24.8267 428.954 23.76 428.954 22.52C428.954 20.9733 429.634 19.7333 430.994 18.8C432.354 17.8667 434.141 17.4 436.354 17.4C438.701 17.4 440.521 17.88 441.814 18.84C443.107 19.8 443.781 21 443.834 22.44H440.754C440.634 21.6 440.207 20.9667 439.474 20.54C438.741 20.1 437.701 19.88 436.354 19.88C435.061 19.88 434.047 20.1733 433.314 20.76C432.594 21.3333 432.234 21.9733 432.234 22.68C432.234 24 433.367 24.9733 435.634 25.6L439.434 26.88C441.074 27.3733 442.327 28.02 443.194 28.82C444.074 29.62 444.514 30.64 444.514 31.88C444.514 32.84 444.201 33.7467 443.574 34.6C442.947 35.4533 442.061 36.1467 440.914 36.68C439.767 37.2133 438.407 37.48 436.834 37.48ZM459.65 37.48C458.25 37.48 457.03 37.16 455.99 36.52C454.963 35.88 454.17 34.9467 453.61 33.72C453.05 32.48 452.77 30.9733 452.77 29.2H454.09C454.09 30.3867 454.336 31.3867 454.83 32.2C455.323 33.0133 455.963 33.6333 456.75 34.06C457.55 34.4733 458.396 34.68 459.29 34.68C460.25 34.68 461.17 34.4067 462.05 33.86C462.93 33.3 463.65 32.48 464.21 31.4C464.77 30.32 465.05 28.9867 465.05 27.4C465.05 25.88 464.79 24.58 464.27 23.5C463.763 22.42 463.076 21.5933 462.21 21.02C461.343 20.4467 460.383 20.16 459.33 20.16C458.423 20.16 457.57 20.38 456.77 20.82C455.97 21.26 455.323 21.9067 454.83 22.76C454.336 23.6 454.09 24.64 454.09 25.88H452.77C452.77 24.0267 453.076 22.4733 453.69 21.22C454.303 19.9533 455.136 19 456.19 18.36C457.243 17.72 458.423 17.4 459.73 17.4C461.223 17.4 462.616 17.8 463.91 18.6C465.203 19.4 466.25 20.5467 467.05 22.04C467.85 23.5333 468.25 25.32 468.25 27.4C468.25 29.5067 467.843 31.3133 467.03 32.82C466.23 34.3267 465.176 35.48 463.87 36.28C462.563 37.08 461.156 37.48 459.65 37.48ZM450.97 46.4V17.88H453.57L454.09 22.36V46.4H450.97ZM476.128 13.36C475.488 13.36 474.981 13.18 474.608 12.82C474.235 12.4467 474.048 11.96 474.048 11.36C474.048 10.7733 474.235 10.3067 474.608 9.96C474.981 9.61333 475.488 9.44 476.128 9.44C476.768 9.44 477.275 9.61333 477.648 9.96C478.021 10.3067 478.208 10.7733 478.208 11.36C478.208 11.96 478.021 12.4467 477.648 12.82C477.275 13.18 476.768 13.36 476.128 13.36ZM474.568 37V17.84H477.688V37H474.568ZM486.282 37V17.84H489.402V37H486.282ZM488.442 28.36C488.442 25.9333 488.675 23.92 489.142 22.32C489.609 20.7067 490.289 19.5067 491.182 18.72C492.089 17.92 493.189 17.52 494.482 17.52C494.909 17.52 495.295 17.5533 495.642 17.62C496.002 17.6733 496.362 17.76 496.722 17.88L496.522 20.96C496.149 20.84 495.742 20.74 495.302 20.66C494.862 20.5667 494.469 20.52 494.122 20.52C492.989 20.52 492.075 20.8467 491.382 21.5C490.689 22.14 490.182 23.0467 489.862 24.22C489.555 25.3933 489.402 26.7733 489.402 28.36H488.442ZM512.575 37L512.175 32.8V24.6C512.175 22.88 511.809 21.6467 511.075 20.9C510.342 20.14 509.242 19.76 507.775 19.76C506.949 19.76 506.195 19.88 505.515 20.12C504.849 20.36 504.315 20.7333 503.915 21.24C503.529 21.7333 503.335 22.3733 503.335 23.16H499.855C499.855 21.7733 500.195 20.66 500.875 19.82C501.555 18.9667 502.489 18.3533 503.675 17.98C504.875 17.5933 506.242 17.4 507.775 17.4C509.242 17.4 510.542 17.6467 511.675 18.14C512.809 18.6333 513.695 19.42 514.335 20.5C514.975 21.5667 515.295 22.96 515.295 24.68V37H512.575ZM506.055 37.48C504.482 37.48 503.182 37.2 502.155 36.64C501.129 36.08 500.362 35.3533 499.855 34.46C499.349 33.5667 499.095 32.6267 499.095 31.64C499.095 30.3467 499.415 29.2933 500.055 28.48C500.709 27.6667 501.595 27.0733 502.715 26.7C503.835 26.3133 505.095 26.12 506.495 26.12C507.495 26.12 508.495 26.22 509.495 26.42C510.509 26.62 511.495 26.8933 512.455 27.24V29.2C511.655 28.88 510.749 28.6267 509.735 28.44C508.735 28.2533 507.815 28.16 506.975 28.16C505.695 28.16 504.615 28.4267 503.735 28.96C502.855 29.48 502.415 30.3733 502.415 31.64C502.415 32.5733 502.749 33.3733 503.415 34.04C504.095 34.7067 505.175 35.04 506.655 35.04C507.695 35.04 508.629 34.8 509.455 34.32C510.295 33.8267 510.955 33.2133 511.435 32.48C511.929 31.7467 512.175 31.0133 512.175 30.28H512.935C512.935 31.56 512.655 32.7467 512.095 33.84C511.549 34.9333 510.762 35.8133 509.735 36.48C508.709 37.1467 507.482 37.48 506.055 37.48ZM528.646 37.48C527.606 37.48 526.673 37.28 525.846 36.88C525.02 36.48 524.366 35.88 523.886 35.08C523.406 34.28 523.166 33.28 523.166 32.08V12.56H526.246V32C526.246 33.9733 527.166 34.96 529.006 34.96C529.553 34.96 530.08 34.9 530.586 34.78C531.106 34.66 531.686 34.48 532.326 34.24L532.766 36.48C532.086 36.7733 531.406 37.0133 530.726 37.2C530.06 37.3867 529.366 37.48 528.646 37.48ZM520.086 20.04V17.88H532.286V20.04H520.086ZM539.566 13.36C538.926 13.36 538.419 13.18 538.046 12.82C537.672 12.4467 537.486 11.96 537.486 11.36C537.486 10.7733 537.672 10.3067 538.046 9.96C538.419 9.61333 538.926 9.44 539.566 9.44C540.206 9.44 540.712 9.61333 541.086 9.96C541.459 10.3067 541.646 10.7733 541.646 11.36C541.646 11.96 541.459 12.4467 541.086 12.82C540.712 13.18 540.206 13.36 539.566 13.36ZM538.006 37V17.84H541.126V37H538.006ZM556.64 37.48C554.92 37.48 553.386 37.1 552.04 36.34C550.706 35.58 549.653 34.4533 548.88 32.96C548.106 31.4667 547.72 29.6267 547.72 27.44C547.72 25.24 548.106 23.4 548.88 21.92C549.653 20.4267 550.706 19.3 552.04 18.54C553.386 17.78 554.92 17.4 556.64 17.4C558.346 17.4 559.866 17.78 561.2 18.54C562.546 19.3 563.6 20.4267 564.36 21.92C565.133 23.4 565.52 25.24 565.52 27.44C565.52 29.6267 565.133 31.4667 564.36 32.96C563.6 34.4533 562.546 35.58 561.2 36.34C559.866 37.1 558.346 37.48 556.64 37.48ZM556.56 34.76C557.8 34.76 558.853 34.4667 559.72 33.88C560.586 33.28 561.24 32.4333 561.68 31.34C562.133 30.2467 562.36 28.9467 562.36 27.44C562.36 25.16 561.886 23.3667 560.94 22.06C559.993 20.74 558.586 20.08 556.72 20.08C555.466 20.08 554.406 20.38 553.54 20.98C552.686 21.5667 552.033 22.4133 551.58 23.52C551.14 24.6133 550.92 25.92 550.92 27.44C550.92 29.6933 551.393 31.48 552.34 32.8C553.3 34.1067 554.706 34.76 556.56 34.76ZM585.195 37V25.76C585.195 23.9333 584.755 22.5467 583.875 21.6C583.008 20.64 581.821 20.16 580.315 20.16C579.168 20.16 578.175 20.4733 577.335 21.1C576.495 21.7267 575.848 22.6267 575.395 23.8C574.941 24.96 574.715 26.3467 574.715 27.96H573.515C573.515 25.7333 573.808 23.8333 574.395 22.26C574.981 20.6867 575.835 19.4867 576.955 18.66C578.088 17.82 579.461 17.4 581.075 17.4C582.581 17.4 583.868 17.74 584.935 18.42C586.015 19.0867 586.841 20.0467 587.415 21.3C587.988 22.5533 588.275 24.04 588.275 25.76V37H585.195ZM571.595 37V17.88H574.275L574.715 22.28V37H571.595Z" fill="black"/>
<line x1="201.997" y1="25.5" x2="0.997452" y2="24.4745" stroke="black"/>
<line x1="814.997" y1="25.5" x2="613.997" y2="24.4745" stroke="black"/>
</svg>
