<svg width="542" height="481" viewBox="0 0 542 481" fill="none" xmlns="http://www.w3.org/2000/svg">
<path d="M270.833 43C271.542 43 272.235 42.7898 272.824 42.3961C273.413 42.0024 273.873 41.4427 274.144 40.7879C274.415 40.1332 274.486 39.4127 274.348 38.7176C274.21 38.0225 273.868 37.384 273.367 36.8829C272.866 36.3817 272.228 36.0404 271.532 35.9022C270.837 35.7639 270.117 35.8349 269.462 36.1061C268.807 36.3773 268.248 36.8366 267.854 37.4259C267.46 38.0151 267.25 38.7079 267.25 39.4167C267.25 40.367 267.628 41.2785 268.3 41.9505C268.972 42.6225 269.883 43 270.833 43ZM288.75 43C289.459 43 290.152 42.7898 290.741 42.3961C291.33 42.0024 291.789 41.4427 292.061 40.7879C292.332 40.1332 292.403 39.4127 292.264 38.7176C292.126 38.0225 291.785 37.384 291.284 36.8829C290.783 36.3817 290.144 36.0404 289.449 35.9022C288.754 35.7639 288.033 35.8349 287.379 36.1061C286.724 36.3773 286.164 36.8366 285.771 37.4259C285.377 38.0151 285.167 38.7079 285.167 39.4167C285.167 40.367 285.544 41.2785 286.216 41.9505C286.888 42.6225 287.8 43 288.75 43ZM270.833 57.3333C271.542 57.3333 272.235 57.1232 272.824 56.7294C273.413 56.3357 273.873 55.776 274.144 55.1213C274.415 54.4665 274.486 53.746 274.348 53.0509C274.21 52.3558 273.868 51.7173 273.367 51.2162C272.866 50.7151 272.228 50.3738 271.532 50.2355C270.837 50.0973 270.117 50.1682 269.462 50.4394C268.807 50.7106 268.248 51.1699 267.854 51.7592C267.46 52.3485 267.25 53.0413 267.25 53.75C267.25 54.7004 267.628 55.6118 268.3 56.2838C268.972 56.9558 269.883 57.3333 270.833 57.3333ZM288.75 57.3333C289.459 57.3333 290.152 57.1232 290.741 56.7294C291.33 56.3357 291.789 55.776 292.061 55.1213C292.332 54.4665 292.403 53.746 292.264 53.0509C292.126 52.3558 291.785 51.7173 291.284 51.2162C290.783 50.7151 290.144 50.3738 289.449 50.2355C288.754 50.0973 288.033 50.1682 287.379 50.4394C286.724 50.7106 286.164 51.1699 285.771 51.7592C285.377 52.3485 285.167 53.0413 285.167 53.75C285.167 54.7004 285.544 55.6118 286.216 56.2838C286.888 56.9558 287.8 57.3333 288.75 57.3333ZM252.917 43C253.625 43 254.318 42.7898 254.907 42.3961C255.497 42.0024 255.956 41.4427 256.227 40.7879C256.498 40.1332 256.569 39.4127 256.431 38.7176C256.293 38.0225 255.952 37.384 255.45 36.8829C254.949 36.3817 254.311 36.0404 253.616 35.9022C252.921 35.7639 252.2 35.8349 251.545 36.1061C250.891 36.3773 250.331 36.8366 249.937 37.4259C249.543 38.0151 249.333 38.7079 249.333 39.4167C249.333 40.367 249.711 41.2785 250.383 41.9505C251.055 42.6225 251.966 43 252.917 43ZM295.917 7.16667H292.333V3.58333C292.333 2.63297 291.956 1.72154 291.284 1.04953C290.612 0.377529 289.7 0 288.75 0C287.8 0 286.888 0.377529 286.216 1.04953C285.544 1.72154 285.167 2.63297 285.167 3.58333V7.16667H256.5V3.58333C256.5 2.63297 256.122 1.72154 255.45 1.04953C254.778 0.377529 253.867 0 252.917 0C251.966 0 251.055 0.377529 250.383 1.04953C249.711 1.72154 249.333 2.63297 249.333 3.58333V7.16667H245.75C242.899 7.16667 240.165 8.29925 238.149 10.3153C236.133 12.3313 235 15.0656 235 17.9167V60.9167C235 63.7677 236.133 66.502 238.149 68.5181C240.165 70.5341 242.899 71.6667 245.75 71.6667H295.917C298.768 71.6667 301.502 70.5341 303.518 68.5181C305.534 66.502 306.667 63.7677 306.667 60.9167V17.9167C306.667 15.0656 305.534 12.3313 303.518 10.3153C301.502 8.29925 298.768 7.16667 295.917 7.16667V7.16667ZM299.5 60.9167C299.5 61.867 299.122 62.7785 298.45 63.4505C297.778 64.1225 296.867 64.5 295.917 64.5H245.75C244.8 64.5 243.888 64.1225 243.216 63.4505C242.544 62.7785 242.167 61.867 242.167 60.9167V28.6667H299.5V60.9167ZM299.5 21.5H242.167V17.9167C242.167 16.9663 242.544 16.0549 243.216 15.3829C243.888 14.7109 244.8 14.3333 245.75 14.3333H295.917C296.867 14.3333 297.778 14.7109 298.45 15.3829C299.122 16.0549 299.5 16.9663 299.5 17.9167V21.5ZM252.917 57.3333C253.625 57.3333 254.318 57.1232 254.907 56.7294C255.497 56.3357 255.956 55.776 256.227 55.1213C256.498 54.4665 256.569 53.746 256.431 53.0509C256.293 52.3558 255.952 51.7173 255.45 51.2162C254.949 50.7151 254.311 50.3738 253.616 50.2355C252.921 50.0973 252.2 50.1682 251.545 50.4394C250.891 50.7106 250.331 51.1699 249.937 51.7592C249.543 52.3485 249.333 53.0413 249.333 53.75C249.333 54.7004 249.711 55.6118 250.383 56.2838C251.055 56.9558 251.966 57.3333 252.917 57.3333Z" fill="black"/>
<path d="M41.032 247V228.16H48.082C49.462 228.16 50.607 228.39 51.517 228.85C52.427 229.3 53.107 229.9 53.557 230.65C54.007 231.39 54.232 232.2 54.232 233.08C54.232 234.16 53.932 235.1 53.332 235.9C52.742 236.69 51.852 237.23 50.662 237.52C51.432 237.64 52.107 237.915 52.687 238.345C53.277 238.765 53.737 239.285 54.067 239.905C54.397 240.515 54.562 241.17 54.562 241.87C54.562 242.51 54.452 243.135 54.232 243.745C54.022 244.355 53.667 244.905 53.167 245.395C52.667 245.885 52.002 246.275 51.172 246.565C50.342 246.855 49.312 247 48.082 247H41.032ZM43.372 244.96H48.052C49.482 244.96 50.507 244.66 51.127 244.06C51.757 243.46 52.072 242.69 52.072 241.75C52.072 240.8 51.732 240.04 51.052 239.47C50.372 238.89 49.372 238.6 48.052 238.6H43.372V244.96ZM43.372 230.17V236.59H47.992C49.162 236.59 50.092 236.305 50.782 235.735C51.482 235.155 51.832 234.34 51.832 233.29C51.832 232.31 51.492 231.545 50.812 230.995C50.142 230.445 49.212 230.17 48.022 230.17H43.372ZM60.9848 229.27C60.5048 229.27 60.1248 229.135 59.8448 228.865C59.5648 228.585 59.4248 228.22 59.4248 227.77C59.4248 227.33 59.5648 226.98 59.8448 226.72C60.1248 226.46 60.5048 226.33 60.9848 226.33C61.4648 226.33 61.8448 226.46 62.1248 226.72C62.4048 226.98 62.5448 227.33 62.5448 227.77C62.5448 228.22 62.4048 228.585 62.1248 228.865C61.8448 229.135 61.4648 229.27 60.9848 229.27ZM59.8148 247V232.63H62.1548V247H59.8148ZM73.7603 247.36C72.3703 247.36 71.2103 247.165 70.2803 246.775C69.3503 246.375 68.6453 245.83 68.1653 245.14C67.6853 244.44 67.4303 243.64 67.4003 242.74H69.6503C69.7003 243.65 70.0653 244.335 70.7453 244.795C71.4353 245.245 72.3703 245.47 73.5503 245.47C74.1703 245.47 74.7403 245.37 75.2603 245.17C75.7803 244.97 76.1953 244.695 76.5053 244.345C76.8153 243.995 76.9703 243.6 76.9703 243.16C76.9703 242.6 76.7653 242.16 76.3553 241.84C75.9453 241.52 75.2903 241.24 74.3903 241L71.6003 240.1C70.3903 239.72 69.4603 239.2 68.8103 238.54C68.1703 237.87 67.8503 237.07 67.8503 236.14C67.8503 234.98 68.3603 234.05 69.3803 233.35C70.4003 232.65 71.7403 232.3 73.4003 232.3C75.1603 232.3 76.5253 232.66 77.4953 233.38C78.4653 234.1 78.9703 235 79.0103 236.08H76.7003C76.6103 235.45 76.2903 234.975 75.7403 234.655C75.1903 234.325 74.4103 234.16 73.4003 234.16C72.4303 234.16 71.6703 234.38 71.1203 234.82C70.5803 235.25 70.3103 235.73 70.3103 236.26C70.3103 237.25 71.1603 237.98 72.8603 238.45L75.7103 239.41C76.9403 239.78 77.8803 240.265 78.5303 240.865C79.1903 241.465 79.5203 242.23 79.5203 243.16C79.5203 243.88 79.2853 244.56 78.8153 245.2C78.3453 245.84 77.6803 246.36 76.8203 246.76C75.9603 247.16 74.9403 247.36 73.7603 247.36ZM94.562 247V238.57C94.562 237.2 94.232 236.16 93.572 235.45C92.922 234.73 92.032 234.37 90.902 234.37C90.042 234.37 89.297 234.605 88.667 235.075C88.037 235.545 87.552 236.22 87.212 237.1C86.872 237.97 86.702 239.01 86.702 240.22H85.802C85.802 238.55 86.022 237.125 86.462 235.945C86.902 234.765 87.542 233.865 88.382 233.245C89.232 232.615 90.262 232.3 91.472 232.3C92.602 232.3 93.567 232.555 94.367 233.065C95.177 233.565 95.797 234.285 96.227 235.225C96.657 236.165 96.872 237.28 96.872 238.57V247H94.562ZM84.362 247V226.54H86.702V247H84.362ZM102.468 247V226.54H104.808V247H102.468ZM104.448 238.78L111.768 232.66H115.038L104.448 241.27V238.78ZM112.488 247L105.678 237.94L108.048 237.52L115.368 247H112.488ZM124.352 247.36C123.112 247.36 122.002 247.045 121.022 246.415C120.052 245.775 119.282 244.89 118.712 243.76C118.152 242.63 117.872 241.33 117.872 239.86C117.872 238.29 118.152 236.94 118.712 235.81C119.272 234.68 120.037 233.815 121.007 233.215C121.987 232.605 123.102 232.3 124.352 232.3C125.442 232.3 126.372 232.52 127.142 232.96C127.912 233.4 128.532 233.995 129.002 234.745C129.472 235.495 129.797 236.345 129.977 237.295C130.167 238.235 130.222 239.21 130.142 240.22H119.762V238.78H128.597L127.907 239.23C127.937 238.64 127.902 238.05 127.802 237.46C127.712 236.87 127.537 236.33 127.277 235.84C127.017 235.34 126.652 234.94 126.182 234.64C125.712 234.34 125.112 234.19 124.382 234.19C123.462 234.19 122.692 234.425 122.072 234.895C121.452 235.365 120.987 235.985 120.677 236.755C120.367 237.515 120.212 238.34 120.212 239.23V240.19C120.212 241.19 120.362 242.085 120.662 242.875C120.972 243.665 121.432 244.29 122.042 244.75C122.652 245.21 123.422 245.44 124.352 245.44C125.282 245.44 126.047 245.215 126.647 244.765C127.247 244.315 127.612 243.65 127.742 242.77H130.172C130.022 243.72 129.682 244.54 129.152 245.23C128.622 245.91 127.947 246.435 127.127 246.805C126.307 247.175 125.382 247.36 124.352 247.36ZM134.782 247V226.54H137.122V247H134.782ZM136.762 238.78L144.082 232.66H147.352L136.762 241.27V238.78ZM144.802 247L137.992 237.94L140.362 237.52L147.682 247H144.802ZM150.336 244.615C150.336 244.145 150.501 243.74 150.831 243.4C151.161 243.06 151.576 242.89 152.076 242.89C152.576 242.89 153.001 243.06 153.351 243.4C153.701 243.74 153.876 244.145 153.876 244.615C153.876 245.085 153.701 245.48 153.351 245.8C153.001 246.12 152.576 246.28 152.076 246.28C151.576 246.28 151.161 246.12 150.831 245.8C150.501 245.47 150.336 245.075 150.336 244.615ZM150.336 235.435C150.336 234.965 150.501 234.56 150.831 234.22C151.161 233.88 151.576 233.71 152.076 233.71C152.576 233.71 153.001 233.88 153.351 234.22C153.701 234.56 153.876 234.965 153.876 235.435C153.876 235.905 153.701 236.3 153.351 236.62C153.001 236.94 152.576 237.1 152.076 237.1C151.576 237.1 151.161 236.94 150.831 236.62C150.501 236.29 150.336 235.895 150.336 235.435ZM165.719 228.16H169.079L175.559 241.18H175.319L181.799 228.16H185.069V247H182.699V230.59H183.119L176.219 244.63H174.659L167.789 230.68H168.059V247H165.719V228.16ZM196.31 247.36C195.02 247.36 193.87 247.075 192.86 246.505C191.86 245.935 191.07 245.09 190.49 243.97C189.91 242.85 189.62 241.47 189.62 239.83C189.62 238.18 189.91 236.8 190.49 235.69C191.07 234.57 191.86 233.725 192.86 233.155C193.87 232.585 195.02 232.3 196.31 232.3C197.59 232.3 198.73 232.585 199.73 233.155C200.74 233.725 201.53 234.57 202.1 235.69C202.68 236.8 202.97 238.18 202.97 239.83C202.97 241.47 202.68 242.85 202.1 243.97C201.53 245.09 200.74 245.935 199.73 246.505C198.73 247.075 197.59 247.36 196.31 247.36ZM196.25 245.32C197.18 245.32 197.97 245.1 198.62 244.66C199.27 244.21 199.76 243.575 200.09 242.755C200.43 241.935 200.6 240.96 200.6 239.83C200.6 238.12 200.245 236.775 199.535 235.795C198.825 234.805 197.77 234.31 196.37 234.31C195.43 234.31 194.635 234.535 193.985 234.985C193.345 235.425 192.855 236.06 192.515 236.89C192.185 237.71 192.02 238.69 192.02 239.83C192.02 241.52 192.375 242.86 193.085 243.85C193.805 244.83 194.86 245.32 196.25 245.32ZM217.726 247V238.57C217.726 237.2 217.396 236.16 216.736 235.45C216.086 234.73 215.196 234.37 214.066 234.37C213.206 234.37 212.461 234.605 211.831 235.075C211.201 235.545 210.716 236.22 210.376 237.1C210.036 237.97 209.866 239.01 209.866 240.22H208.966C208.966 238.55 209.186 237.125 209.626 235.945C210.066 234.765 210.706 233.865 211.546 233.245C212.396 232.615 213.426 232.3 214.636 232.3C215.766 232.3 216.731 232.555 217.531 233.065C218.341 233.565 218.961 234.285 219.391 235.225C219.821 236.165 220.036 237.28 220.036 238.57V247H217.726ZM207.526 247V232.66H209.536L209.866 235.96V247H207.526ZM223.502 245.605C223.502 245.135 223.667 244.73 223.997 244.39C224.327 244.05 224.742 243.88 225.242 243.88C225.742 243.88 226.167 244.05 226.517 244.39C226.867 244.73 227.042 245.135 227.042 245.605C227.042 246.075 226.867 246.47 226.517 246.79C226.167 247.11 225.742 247.27 225.242 247.27C224.742 247.27 224.327 247.11 223.997 246.79C223.667 246.46 223.502 246.065 223.502 245.605ZM229.103 239.29V237.25H237.263V239.29H229.103ZM247.453 247.36C246.193 247.36 245.038 247.135 243.988 246.685C242.938 246.225 242.093 245.55 241.453 244.66C240.813 243.77 240.483 242.67 240.463 241.36H242.743C242.743 242.24 242.958 242.965 243.388 243.535C243.818 244.095 244.388 244.515 245.098 244.795C245.808 245.065 246.583 245.2 247.423 245.2C248.333 245.2 249.123 245.055 249.793 244.765C250.463 244.475 250.978 244.095 251.338 243.625C251.708 243.145 251.893 242.62 251.893 242.05C251.893 241.25 251.648 240.605 251.158 240.115C250.668 239.615 249.943 239.21 248.983 238.9L245.653 237.73C244.093 237.17 242.913 236.53 242.113 235.81C241.313 235.09 240.913 234.08 240.913 232.78C240.913 231.32 241.473 230.13 242.593 229.21C243.723 228.29 245.323 227.83 247.393 227.83C249.313 227.83 250.813 228.275 251.893 229.165C252.973 230.045 253.593 231.23 253.753 232.72H251.443C251.293 231.85 250.883 231.175 250.213 230.695C249.553 230.205 248.613 229.96 247.393 229.96C246.153 229.96 245.188 230.235 244.498 230.785C243.808 231.335 243.463 232.03 243.463 232.87C243.463 233.56 243.678 234.11 244.108 234.52C244.548 234.92 245.233 235.28 246.163 235.6L250.063 236.95C251.413 237.4 252.478 238.03 253.258 238.84C254.048 239.65 254.443 240.7 254.443 241.99C254.443 242.99 254.173 243.895 253.633 244.705C253.103 245.515 252.318 246.16 251.278 246.64C250.238 247.12 248.963 247.36 247.453 247.36ZM269.307 232.63H271.647V247H269.307V232.63ZM259.137 232.63H261.477V241.57C261.477 242.77 261.767 243.68 262.347 244.3C262.937 244.92 263.777 245.23 264.867 245.23C265.767 245.23 266.547 244.99 267.207 244.51C267.877 244.03 268.392 243.37 268.752 242.53C269.122 241.68 269.307 240.71 269.307 239.62H270.177C270.177 241.23 269.942 242.605 269.472 243.745C269.012 244.885 268.357 245.76 267.507 246.37C266.667 246.97 265.677 247.27 264.537 247.27C263.457 247.27 262.512 247.07 261.702 246.67C260.892 246.27 260.262 245.665 259.812 244.855C259.362 244.035 259.137 243 259.137 241.75V232.63ZM287.921 247V238.57C287.921 237.2 287.591 236.16 286.931 235.45C286.281 234.73 285.391 234.37 284.261 234.37C283.401 234.37 282.656 234.605 282.026 235.075C281.396 235.545 280.911 236.22 280.571 237.1C280.231 237.97 280.061 239.01 280.061 240.22H279.161C279.161 238.55 279.381 237.125 279.821 235.945C280.261 234.765 280.901 233.865 281.741 233.245C282.591 232.615 283.621 232.3 284.831 232.3C285.961 232.3 286.926 232.555 287.726 233.065C288.536 233.565 289.156 234.285 289.586 235.225C290.016 236.165 290.231 237.28 290.231 238.57V247H287.921ZM277.721 247V232.66H279.731L280.061 235.96V247H277.721ZM293.697 245.605C293.697 245.135 293.862 244.73 294.192 244.39C294.522 244.05 294.937 243.88 295.437 243.88C295.937 243.88 296.362 244.05 296.712 244.39C297.062 244.73 297.237 245.135 297.237 245.605C297.237 246.075 297.062 246.47 296.712 246.79C296.362 247.11 295.937 247.27 295.437 247.27C294.937 247.27 294.522 247.11 294.192 246.79C293.862 246.46 293.697 246.065 293.697 245.605ZM314.187 247.36C312.707 247.36 311.412 247 310.302 246.28C309.202 245.56 308.342 244.475 307.722 243.025C307.112 241.575 306.807 239.76 306.807 237.58C306.807 235.4 307.112 233.59 307.722 232.15C308.342 230.7 309.202 229.62 310.302 228.91C311.412 228.19 312.707 227.83 314.187 227.83C315.657 227.83 316.947 228.19 318.057 228.91C319.167 229.62 320.027 230.7 320.637 232.15C321.257 233.59 321.567 235.4 321.567 237.58C321.567 239.76 321.257 241.575 320.637 243.025C320.027 244.475 319.167 245.56 318.057 246.28C316.947 247 315.657 247.36 314.187 247.36ZM314.187 245.2C315.807 245.2 317.037 244.54 317.877 243.22C318.717 241.89 319.137 240.01 319.137 237.58C319.137 235.15 318.717 233.275 317.877 231.955C317.037 230.625 315.807 229.96 314.187 229.96C312.587 229.96 311.362 230.625 310.512 231.955C309.662 233.275 309.237 235.15 309.237 237.58C309.237 240.01 309.662 241.89 310.512 243.22C311.362 244.54 312.587 245.2 314.187 245.2ZM332.3 247.36C330.82 247.36 329.51 247.125 328.37 246.655C327.24 246.185 326.35 245.54 325.7 244.72C325.06 243.9 324.74 242.97 324.74 241.93C324.74 240.98 324.985 240.165 325.475 239.485C325.975 238.805 326.655 238.285 327.515 237.925C328.385 237.555 329.37 237.37 330.47 237.37C330.76 237.37 331.04 237.385 331.31 237.415C331.58 237.445 331.87 237.5 332.18 237.58V238.27C331.18 238.27 330.305 238.435 329.555 238.765C328.805 239.085 328.22 239.51 327.8 240.04C327.38 240.57 327.17 241.14 327.17 241.75C327.17 242.49 327.395 243.12 327.845 243.64C328.295 244.15 328.905 244.54 329.675 244.81C330.455 245.07 331.33 245.2 332.3 245.2C333.92 245.2 335.18 244.94 336.08 244.42C336.98 243.9 337.43 243.22 337.43 242.38C337.43 241.7 337.19 241.14 336.71 240.7C336.24 240.26 335.59 239.89 334.76 239.59L329.57 237.61C328.94 237.37 328.3 237.04 327.65 236.62C327.01 236.2 326.47 235.675 326.03 235.045C325.59 234.415 325.37 233.67 325.37 232.81C325.37 231.84 325.645 230.98 326.195 230.23C326.745 229.48 327.535 228.895 328.565 228.475C329.605 228.045 330.85 227.83 332.3 227.83C333.63 227.83 334.81 228.06 335.84 228.52C336.88 228.97 337.695 229.59 338.285 230.38C338.875 231.16 339.17 232.05 339.17 233.05C339.17 233.83 338.97 234.555 338.57 235.225C338.18 235.885 337.6 236.42 336.83 236.83C336.07 237.23 335.13 237.43 334.01 237.43C333.74 237.43 333.48 237.415 333.23 237.385C332.99 237.345 332.72 237.28 332.42 237.19V236.44C333.23 236.44 333.96 236.305 334.61 236.035C335.26 235.755 335.775 235.37 336.155 234.88C336.545 234.39 336.74 233.82 336.74 233.17C336.74 232.55 336.55 232 336.17 231.52C335.8 231.03 335.28 230.65 334.61 230.38C333.95 230.1 333.18 229.96 332.3 229.96C331.45 229.96 330.685 230.095 330.005 230.365C329.335 230.625 328.805 230.98 328.415 231.43C328.025 231.87 327.83 232.36 327.83 232.9C327.83 233.57 328.055 234.11 328.505 234.52C328.965 234.92 329.6 235.27 330.41 235.57L335.6 237.55C336.98 238.07 338.04 238.685 338.78 239.395C339.52 240.105 339.89 241.07 339.89 242.29C339.89 243.28 339.59 244.16 338.99 244.93C338.39 245.69 337.525 246.285 336.395 246.715C335.265 247.145 333.9 247.36 332.3 247.36ZM343.198 244.615C343.198 244.145 343.363 243.74 343.693 243.4C344.023 243.06 344.438 242.89 344.938 242.89C345.438 242.89 345.863 243.06 346.213 243.4C346.563 243.74 346.738 244.145 346.738 244.615C346.738 245.085 346.563 245.48 346.213 245.8C345.863 246.12 345.438 246.28 344.938 246.28C344.438 246.28 344.023 246.12 343.693 245.8C343.363 245.47 343.198 245.075 343.198 244.615ZM343.198 235.435C343.198 234.965 343.363 234.56 343.693 234.22C344.023 233.88 344.438 233.71 344.938 233.71C345.438 233.71 345.863 233.88 346.213 234.22C346.563 234.56 346.738 234.965 346.738 235.435C346.738 235.905 346.563 236.3 346.213 236.62C345.863 236.94 345.438 237.1 344.938 237.1C344.438 237.1 344.023 236.94 343.693 236.62C343.363 236.29 343.198 235.895 343.198 235.435ZM357.342 247.36C355.862 247.36 354.567 247 353.457 246.28C352.357 245.56 351.497 244.475 350.877 243.025C350.267 241.575 349.962 239.76 349.962 237.58C349.962 235.4 350.267 233.59 350.877 232.15C351.497 230.7 352.357 229.62 353.457 228.91C354.567 228.19 355.862 227.83 357.342 227.83C358.812 227.83 360.102 228.19 361.212 228.91C362.322 229.62 363.182 230.7 363.792 232.15C364.412 233.59 364.722 235.4 364.722 237.58C364.722 239.76 364.412 241.575 363.792 243.025C363.182 244.475 362.322 245.56 361.212 246.28C360.102 247 358.812 247.36 357.342 247.36ZM357.342 245.2C358.962 245.2 360.192 244.54 361.032 243.22C361.872 241.89 362.292 240.01 362.292 237.58C362.292 235.15 361.872 233.275 361.032 231.955C360.192 230.625 358.962 229.96 357.342 229.96C355.742 229.96 354.517 230.625 353.667 231.955C352.817 233.275 352.392 235.15 352.392 237.58C352.392 240.01 352.817 241.89 353.667 243.22C354.517 244.54 355.742 245.2 357.342 245.2ZM375.154 247.36C373.674 247.36 372.379 247 371.269 246.28C370.169 245.56 369.309 244.475 368.689 243.025C368.079 241.575 367.774 239.76 367.774 237.58C367.774 235.4 368.079 233.59 368.689 232.15C369.309 230.7 370.169 229.62 371.269 228.91C372.379 228.19 373.674 227.83 375.154 227.83C376.624 227.83 377.914 228.19 379.024 228.91C380.134 229.62 380.994 230.7 381.604 232.15C382.224 233.59 382.534 235.4 382.534 237.58C382.534 239.76 382.224 241.575 381.604 243.025C380.994 244.475 380.134 245.56 379.024 246.28C377.914 247 376.624 247.36 375.154 247.36ZM375.154 245.2C376.774 245.2 378.004 244.54 378.844 243.22C379.684 241.89 380.104 240.01 380.104 237.58C380.104 235.15 379.684 233.275 378.844 231.955C378.004 230.625 376.774 229.96 375.154 229.96C373.554 229.96 372.329 230.625 371.479 231.955C370.629 233.275 370.204 235.15 370.204 237.58C370.204 240.01 370.629 241.89 371.479 243.22C372.329 244.54 373.554 245.2 375.154 245.2ZM392.316 239.29V237.25H400.476V239.29H392.316ZM410.645 247V244.21C410.645 243.12 410.82 242.21 411.17 241.48C411.53 240.75 412.03 240.145 412.67 239.665C413.32 239.185 414.085 238.77 414.965 238.42L418.685 236.95C419.645 236.56 420.365 236.06 420.845 235.45C421.325 234.84 421.565 234.08 421.565 233.17C421.565 232.21 421.23 231.425 420.56 230.815C419.9 230.205 418.975 229.9 417.785 229.9C416.605 229.9 415.635 230.155 414.875 230.665C414.125 231.165 413.695 231.92 413.585 232.93H410.975C411.045 231.84 411.365 230.915 411.935 230.155C412.515 229.395 413.3 228.82 414.29 228.43C415.28 228.03 416.435 227.83 417.755 227.83C418.965 227.83 420.05 228.065 421.01 228.535C421.97 229.005 422.725 229.655 423.275 230.485C423.835 231.305 424.115 232.25 424.115 233.32C424.115 234.29 423.935 235.135 423.575 235.855C423.215 236.575 422.7 237.195 422.03 237.715C421.37 238.235 420.585 238.68 419.675 239.05L415.865 240.58C414.905 240.95 414.185 241.395 413.705 241.915C413.225 242.435 412.985 243.11 412.985 243.94V244.84H423.935V247H410.645ZM428.018 247V244.21C428.018 243.12 428.193 242.21 428.543 241.48C428.903 240.75 429.403 240.145 430.043 239.665C430.693 239.185 431.458 238.77 432.338 238.42L436.058 236.95C437.018 236.56 437.738 236.06 438.218 235.45C438.698 234.84 438.938 234.08 438.938 233.17C438.938 232.21 438.603 231.425 437.933 230.815C437.273 230.205 436.348 229.9 435.158 229.9C433.978 229.9 433.008 230.155 432.248 230.665C431.498 231.165 431.068 231.92 430.958 232.93H428.348C428.418 231.84 428.738 230.915 429.308 230.155C429.888 229.395 430.673 228.82 431.663 228.43C432.653 228.03 433.808 227.83 435.128 227.83C436.338 227.83 437.423 228.065 438.383 228.535C439.343 229.005 440.098 229.655 440.648 230.485C441.208 231.305 441.488 232.25 441.488 233.32C441.488 234.29 441.308 235.135 440.948 235.855C440.588 236.575 440.073 237.195 439.403 237.715C438.743 238.235 437.958 238.68 437.048 239.05L433.238 240.58C432.278 240.95 431.558 241.395 431.078 241.915C430.598 242.435 430.358 243.11 430.358 243.94V244.84H441.308V247H428.018ZM445.151 244.615C445.151 244.145 445.316 243.74 445.646 243.4C445.976 243.06 446.391 242.89 446.891 242.89C447.391 242.89 447.816 243.06 448.166 243.4C448.516 243.74 448.691 244.145 448.691 244.615C448.691 245.085 448.516 245.48 448.166 245.8C447.816 246.12 447.391 246.28 446.891 246.28C446.391 246.28 445.976 246.12 445.646 245.8C445.316 245.47 445.151 245.075 445.151 244.615ZM445.151 235.435C445.151 234.965 445.316 234.56 445.646 234.22C445.976 233.88 446.391 233.71 446.891 233.71C447.391 233.71 447.816 233.88 448.166 234.22C448.516 234.56 448.691 234.965 448.691 235.435C448.691 235.905 448.516 236.3 448.166 236.62C447.816 236.94 447.391 237.1 446.891 237.1C446.391 237.1 445.976 236.94 445.646 236.62C445.316 236.29 445.151 235.895 445.151 235.435ZM459.295 247.36C457.815 247.36 456.52 247 455.41 246.28C454.31 245.56 453.45 244.475 452.83 243.025C452.22 241.575 451.915 239.76 451.915 237.58C451.915 235.4 452.22 233.59 452.83 232.15C453.45 230.7 454.31 229.62 455.41 228.91C456.52 228.19 457.815 227.83 459.295 227.83C460.765 227.83 462.055 228.19 463.165 228.91C464.275 229.62 465.135 230.7 465.745 232.15C466.365 233.59 466.675 235.4 466.675 237.58C466.675 239.76 466.365 241.575 465.745 243.025C465.135 244.475 464.275 245.56 463.165 246.28C462.055 247 460.765 247.36 459.295 247.36ZM459.295 245.2C460.915 245.2 462.145 244.54 462.985 243.22C463.825 241.89 464.245 240.01 464.245 237.58C464.245 235.15 463.825 233.275 462.985 231.955C462.145 230.625 460.915 229.96 459.295 229.96C457.695 229.96 456.47 230.625 455.62 231.955C454.77 233.275 454.345 235.15 454.345 237.58C454.345 240.01 454.77 241.89 455.62 243.22C456.47 244.54 457.695 245.2 459.295 245.2ZM477.107 247.36C475.627 247.36 474.332 247 473.222 246.28C472.122 245.56 471.262 244.475 470.642 243.025C470.032 241.575 469.727 239.76 469.727 237.58C469.727 235.4 470.032 233.59 470.642 232.15C471.262 230.7 472.122 229.62 473.222 228.91C474.332 228.19 475.627 227.83 477.107 227.83C478.577 227.83 479.867 228.19 480.977 228.91C482.087 229.62 482.947 230.7 483.557 232.15C484.177 233.59 484.487 235.4 484.487 237.58C484.487 239.76 484.177 241.575 483.557 243.025C482.947 244.475 482.087 245.56 480.977 246.28C479.867 247 478.577 247.36 477.107 247.36ZM477.107 245.2C478.727 245.2 479.957 244.54 480.797 243.22C481.637 241.89 482.057 240.01 482.057 237.58C482.057 235.15 481.637 233.275 480.797 231.955C479.957 230.625 478.727 229.96 477.107 229.96C475.507 229.96 474.282 230.625 473.432 231.955C472.582 233.275 472.157 235.15 472.157 237.58C472.157 240.01 472.582 241.89 473.432 243.22C474.282 244.54 475.507 245.2 477.107 245.2ZM51.8044 282L58.2844 263.16H61.1344L67.4644 282H65.0044L63.4144 277.17H55.9144L54.2644 282H51.8044ZM56.5144 275.34H62.8144L59.6644 266.01L56.5144 275.34ZM71.281 282V261.54H73.621V282H71.281ZM99.8492 282V273.57C99.8492 272.2 99.5192 271.16 98.8592 270.45C98.2092 269.73 97.3292 269.37 96.2192 269.37C94.9192 269.37 93.9242 269.875 93.2342 270.885C92.5442 271.885 92.1992 273.27 92.1992 275.04H91.1192C91.1192 273.75 91.2442 272.62 91.4942 271.65C91.7542 270.68 92.1292 269.875 92.6192 269.235C93.1092 268.585 93.7042 268.1 94.4042 267.78C95.1042 267.46 95.8992 267.3 96.7892 267.3C97.9192 267.3 98.8842 267.555 99.6842 268.065C100.494 268.565 101.114 269.285 101.544 270.225C101.974 271.165 102.189 272.28 102.189 273.57V282H99.8492ZM79.6892 282V267.66H81.6992L81.9692 270.54C82.4192 269.5 83.0492 268.7 83.8592 268.14C84.6792 267.58 85.6592 267.3 86.7992 267.3C87.9292 267.3 88.8942 267.555 89.6942 268.065C90.5042 268.565 91.1242 269.285 91.5542 270.225C91.9842 271.165 92.1992 272.28 92.1992 273.57V282H89.8892V273.57C89.8892 272.2 89.5592 271.16 88.8992 270.45C88.2492 269.73 87.3592 269.37 86.2292 269.37C85.3692 269.37 84.6242 269.605 83.9942 270.075C83.3642 270.545 82.8792 271.22 82.5392 272.1C82.1992 272.97 82.0292 274.01 82.0292 275.22V282H79.6892ZM116.636 282L116.336 278.85V272.7C116.336 271.41 116.061 270.485 115.511 269.925C114.961 269.355 114.136 269.07 113.036 269.07C112.416 269.07 111.851 269.16 111.341 269.34C110.841 269.52 110.441 269.8 110.141 270.18C109.851 270.55 109.706 271.03 109.706 271.62H107.096C107.096 270.58 107.351 269.745 107.861 269.115C108.371 268.475 109.071 268.015 109.961 267.735C110.861 267.445 111.886 267.3 113.036 267.3C114.136 267.3 115.111 267.485 115.961 267.855C116.811 268.225 117.476 268.815 117.956 269.625C118.436 270.425 118.676 271.47 118.676 272.76V282H116.636ZM111.746 282.36C110.566 282.36 109.591 282.15 108.821 281.73C108.051 281.31 107.476 280.765 107.096 280.095C106.716 279.425 106.526 278.72 106.526 277.98C106.526 277.01 106.766 276.22 107.246 275.61C107.736 275 108.401 274.555 109.241 274.275C110.081 273.985 111.026 273.84 112.076 273.84C112.826 273.84 113.576 273.915 114.326 274.065C115.086 274.215 115.826 274.42 116.546 274.68V276.15C115.946 275.91 115.266 275.72 114.506 275.58C113.756 275.44 113.066 275.37 112.436 275.37C111.476 275.37 110.666 275.57 110.006 275.97C109.346 276.36 109.016 277.03 109.016 277.98C109.016 278.68 109.266 279.28 109.766 279.78C110.276 280.28 111.086 280.53 112.196 280.53C112.976 280.53 113.676 280.35 114.296 279.99C114.926 279.62 115.421 279.16 115.781 278.61C116.151 278.06 116.336 277.51 116.336 276.96H116.906C116.906 277.92 116.696 278.81 116.276 279.63C115.866 280.45 115.276 281.11 114.506 281.61C113.736 282.11 112.816 282.36 111.746 282.36ZM128.689 282.36C127.909 282.36 127.209 282.21 126.589 281.91C125.969 281.61 125.479 281.16 125.119 280.56C124.759 279.96 124.579 279.21 124.579 278.31V263.67H126.889V278.25C126.889 279.73 127.579 280.47 128.959 280.47C129.369 280.47 129.764 280.425 130.144 280.335C130.534 280.245 130.969 280.11 131.449 279.93L131.779 281.61C131.269 281.83 130.759 282.01 130.249 282.15C129.749 282.29 129.229 282.36 128.689 282.36ZM122.269 269.28V267.66H131.419V269.28H122.269ZM133.188 267.66H135.798L140.478 279.96H139.938L143.568 267.66H145.968L140.568 284.88C140.118 286.32 139.518 287.43 138.768 288.21C138.018 288.99 137.058 289.38 135.888 289.38C135.258 289.38 134.658 289.29 134.088 289.11C133.528 288.93 132.948 288.67 132.348 288.33V286.17C132.878 286.59 133.388 286.89 133.878 287.07C134.378 287.25 134.898 287.34 135.438 287.34C136.038 287.34 136.538 287.15 136.938 286.77C137.348 286.39 137.688 285.9 137.958 285.3C138.228 284.71 138.458 284.09 138.648 283.44L139.068 282L133.188 267.66ZM148.183 279.615C148.183 279.145 148.348 278.74 148.678 278.4C149.008 278.06 149.423 277.89 149.923 277.89C150.423 277.89 150.848 278.06 151.198 278.4C151.548 278.74 151.723 279.145 151.723 279.615C151.723 280.085 151.548 280.48 151.198 280.8C150.848 281.12 150.423 281.28 149.923 281.28C149.423 281.28 149.008 281.12 148.678 280.8C148.348 280.47 148.183 280.075 148.183 279.615ZM148.183 270.435C148.183 269.965 148.348 269.56 148.678 269.22C149.008 268.88 149.423 268.71 149.923 268.71C150.423 268.71 150.848 268.88 151.198 269.22C151.548 269.56 151.723 269.965 151.723 270.435C151.723 270.905 151.548 271.3 151.198 271.62C150.848 271.94 150.423 272.1 149.923 272.1C149.423 272.1 149.008 271.94 148.678 271.62C148.348 271.29 148.183 270.895 148.183 270.435ZM163.566 263.16H166.926L173.406 276.18H173.166L179.646 263.16H182.916V282H180.546V265.59H180.966L174.066 279.63H172.506L165.636 265.68H165.906V282H163.566V263.16ZM194.157 282.36C192.867 282.36 191.717 282.075 190.707 281.505C189.707 280.935 188.917 280.09 188.337 278.97C187.757 277.85 187.467 276.47 187.467 274.83C187.467 273.18 187.757 271.8 188.337 270.69C188.917 269.57 189.707 268.725 190.707 268.155C191.717 267.585 192.867 267.3 194.157 267.3C195.437 267.3 196.577 267.585 197.577 268.155C198.587 268.725 199.377 269.57 199.947 270.69C200.527 271.8 200.817 273.18 200.817 274.83C200.817 276.47 200.527 277.85 199.947 278.97C199.377 280.09 198.587 280.935 197.577 281.505C196.577 282.075 195.437 282.36 194.157 282.36ZM194.097 280.32C195.027 280.32 195.817 280.1 196.467 279.66C197.117 279.21 197.607 278.575 197.937 277.755C198.277 276.935 198.447 275.96 198.447 274.83C198.447 273.12 198.092 271.775 197.382 270.795C196.672 269.805 195.617 269.31 194.217 269.31C193.277 269.31 192.482 269.535 191.832 269.985C191.192 270.425 190.702 271.06 190.362 271.89C190.032 272.71 189.867 273.69 189.867 274.83C189.867 276.52 190.222 277.86 190.932 278.85C191.652 279.83 192.707 280.32 194.097 280.32ZM215.573 282V273.57C215.573 272.2 215.243 271.16 214.583 270.45C213.933 269.73 213.043 269.37 211.913 269.37C211.053 269.37 210.308 269.605 209.678 270.075C209.048 270.545 208.563 271.22 208.223 272.1C207.883 272.97 207.713 274.01 207.713 275.22H206.813C206.813 273.55 207.033 272.125 207.473 270.945C207.913 269.765 208.553 268.865 209.393 268.245C210.243 267.615 211.273 267.3 212.483 267.3C213.613 267.3 214.578 267.555 215.378 268.065C216.188 268.565 216.808 269.285 217.238 270.225C217.668 271.165 217.883 272.28 217.883 273.57V282H215.573ZM205.373 282V267.66H207.383L207.713 270.96V282H205.373ZM221.348 280.605C221.348 280.135 221.513 279.73 221.843 279.39C222.173 279.05 222.588 278.88 223.088 278.88C223.588 278.88 224.013 279.05 224.363 279.39C224.713 279.73 224.888 280.135 224.888 280.605C224.888 281.075 224.713 281.47 224.363 281.79C224.013 282.11 223.588 282.27 223.088 282.27C222.588 282.27 222.173 282.11 221.843 281.79C221.513 281.46 221.348 281.065 221.348 280.605ZM226.95 274.29V272.25H235.11V274.29H226.95ZM245.299 282.36C244.039 282.36 242.884 282.135 241.834 281.685C240.784 281.225 239.939 280.55 239.299 279.66C238.659 278.77 238.329 277.67 238.309 276.36H240.589C240.589 277.24 240.804 277.965 241.234 278.535C241.664 279.095 242.234 279.515 242.944 279.795C243.654 280.065 244.429 280.2 245.269 280.2C246.179 280.2 246.969 280.055 247.639 279.765C248.309 279.475 248.824 279.095 249.184 278.625C249.554 278.145 249.739 277.62 249.739 277.05C249.739 276.25 249.494 275.605 249.004 275.115C248.514 274.615 247.789 274.21 246.829 273.9L243.499 272.73C241.939 272.17 240.759 271.53 239.959 270.81C239.159 270.09 238.759 269.08 238.759 267.78C238.759 266.32 239.319 265.13 240.439 264.21C241.569 263.29 243.169 262.83 245.239 262.83C247.159 262.83 248.659 263.275 249.739 264.165C250.819 265.045 251.439 266.23 251.599 267.72H249.289C249.139 266.85 248.729 266.175 248.059 265.695C247.399 265.205 246.459 264.96 245.239 264.96C243.999 264.96 243.034 265.235 242.344 265.785C241.654 266.335 241.309 267.03 241.309 267.87C241.309 268.56 241.524 269.11 241.954 269.52C242.394 269.92 243.079 270.28 244.009 270.6L247.909 271.95C249.259 272.4 250.324 273.03 251.104 273.84C251.894 274.65 252.289 275.7 252.289 276.99C252.289 277.99 252.019 278.895 251.479 279.705C250.949 280.515 250.164 281.16 249.124 281.64C248.084 282.12 246.809 282.36 245.299 282.36ZM267.154 267.63H269.494V282H267.154V267.63ZM256.984 267.63H259.324V276.57C259.324 277.77 259.614 278.68 260.194 279.3C260.784 279.92 261.624 280.23 262.714 280.23C263.614 280.23 264.394 279.99 265.054 279.51C265.724 279.03 266.239 278.37 266.599 277.53C266.969 276.68 267.154 275.71 267.154 274.62H268.024C268.024 276.23 267.789 277.605 267.319 278.745C266.859 279.885 266.204 280.76 265.354 281.37C264.514 281.97 263.524 282.27 262.384 282.27C261.304 282.27 260.359 282.07 259.549 281.67C258.739 281.27 258.109 280.665 257.659 279.855C257.209 279.035 256.984 278 256.984 276.75V267.63ZM285.768 282V273.57C285.768 272.2 285.438 271.16 284.778 270.45C284.128 269.73 283.238 269.37 282.108 269.37C281.248 269.37 280.503 269.605 279.873 270.075C279.243 270.545 278.758 271.22 278.418 272.1C278.078 272.97 277.908 274.01 277.908 275.22H277.008C277.008 273.55 277.228 272.125 277.668 270.945C278.108 269.765 278.748 268.865 279.588 268.245C280.438 267.615 281.468 267.3 282.678 267.3C283.808 267.3 284.773 267.555 285.573 268.065C286.383 268.565 287.003 269.285 287.433 270.225C287.863 271.165 288.078 272.28 288.078 273.57V282H285.768ZM275.568 282V267.66H277.578L277.908 270.96V282H275.568ZM291.544 280.605C291.544 280.135 291.709 279.73 292.039 279.39C292.369 279.05 292.784 278.88 293.284 278.88C293.784 278.88 294.209 279.05 294.559 279.39C294.909 279.73 295.084 280.135 295.084 280.605C295.084 281.075 294.909 281.47 294.559 281.79C294.209 282.11 293.784 282.27 293.284 282.27C292.784 282.27 292.369 282.11 292.039 281.79C291.709 281.46 291.544 281.065 291.544 280.605ZM312.034 282.36C310.554 282.36 309.259 282 308.149 281.28C307.049 280.56 306.189 279.475 305.569 278.025C304.959 276.575 304.654 274.76 304.654 272.58C304.654 270.4 304.959 268.59 305.569 267.15C306.189 265.7 307.049 264.62 308.149 263.91C309.259 263.19 310.554 262.83 312.034 262.83C313.504 262.83 314.794 263.19 315.904 263.91C317.014 264.62 317.874 265.7 318.484 267.15C319.104 268.59 319.414 270.4 319.414 272.58C319.414 274.76 319.104 276.575 318.484 278.025C317.874 279.475 317.014 280.56 315.904 281.28C314.794 282 313.504 282.36 312.034 282.36ZM312.034 280.2C313.654 280.2 314.884 279.54 315.724 278.22C316.564 276.89 316.984 275.01 316.984 272.58C316.984 270.15 316.564 268.275 315.724 266.955C314.884 265.625 313.654 264.96 312.034 264.96C310.434 264.96 309.209 265.625 308.359 266.955C307.509 268.275 307.084 270.15 307.084 272.58C307.084 275.01 307.509 276.89 308.359 278.22C309.209 279.54 310.434 280.2 312.034 280.2ZM330.147 282.36C328.667 282.36 327.357 282.125 326.217 281.655C325.087 281.185 324.197 280.54 323.547 279.72C322.907 278.9 322.587 277.97 322.587 276.93C322.587 275.98 322.832 275.165 323.322 274.485C323.822 273.805 324.502 273.285 325.362 272.925C326.232 272.555 327.217 272.37 328.317 272.37C328.607 272.37 328.887 272.385 329.157 272.415C329.427 272.445 329.717 272.5 330.027 272.58V273.27C329.027 273.27 328.152 273.435 327.402 273.765C326.652 274.085 326.067 274.51 325.647 275.04C325.227 275.57 325.017 276.14 325.017 276.75C325.017 277.49 325.242 278.12 325.692 278.64C326.142 279.15 326.752 279.54 327.522 279.81C328.302 280.07 329.177 280.2 330.147 280.2C331.767 280.2 333.027 279.94 333.927 279.42C334.827 278.9 335.277 278.22 335.277 277.38C335.277 276.7 335.037 276.14 334.557 275.7C334.087 275.26 333.437 274.89 332.607 274.59L327.417 272.61C326.787 272.37 326.147 272.04 325.497 271.62C324.857 271.2 324.317 270.675 323.877 270.045C323.437 269.415 323.217 268.67 323.217 267.81C323.217 266.84 323.492 265.98 324.042 265.23C324.592 264.48 325.382 263.895 326.412 263.475C327.452 263.045 328.697 262.83 330.147 262.83C331.477 262.83 332.657 263.06 333.687 263.52C334.727 263.97 335.542 264.59 336.132 265.38C336.722 266.16 337.017 267.05 337.017 268.05C337.017 268.83 336.817 269.555 336.417 270.225C336.027 270.885 335.447 271.42 334.677 271.83C333.917 272.23 332.977 272.43 331.857 272.43C331.587 272.43 331.327 272.415 331.077 272.385C330.837 272.345 330.567 272.28 330.267 272.19V271.44C331.077 271.44 331.807 271.305 332.457 271.035C333.107 270.755 333.622 270.37 334.002 269.88C334.392 269.39 334.587 268.82 334.587 268.17C334.587 267.55 334.397 267 334.017 266.52C333.647 266.03 333.127 265.65 332.457 265.38C331.797 265.1 331.027 264.96 330.147 264.96C329.297 264.96 328.532 265.095 327.852 265.365C327.182 265.625 326.652 265.98 326.262 266.43C325.872 266.87 325.677 267.36 325.677 267.9C325.677 268.57 325.902 269.11 326.352 269.52C326.812 269.92 327.447 270.27 328.257 270.57L333.447 272.55C334.827 273.07 335.887 273.685 336.627 274.395C337.367 275.105 337.737 276.07 337.737 277.29C337.737 278.28 337.437 279.16 336.837 279.93C336.237 280.69 335.372 281.285 334.242 281.715C333.112 282.145 331.747 282.36 330.147 282.36ZM341.044 279.615C341.044 279.145 341.209 278.74 341.539 278.4C341.869 278.06 342.284 277.89 342.784 277.89C343.284 277.89 343.709 278.06 344.059 278.4C344.409 278.74 344.584 279.145 344.584 279.615C344.584 280.085 344.409 280.48 344.059 280.8C343.709 281.12 343.284 281.28 342.784 281.28C342.284 281.28 341.869 281.12 341.539 280.8C341.209 280.47 341.044 280.075 341.044 279.615ZM341.044 270.435C341.044 269.965 341.209 269.56 341.539 269.22C341.869 268.88 342.284 268.71 342.784 268.71C343.284 268.71 343.709 268.88 344.059 269.22C344.409 269.56 344.584 269.965 344.584 270.435C344.584 270.905 344.409 271.3 344.059 271.62C343.709 271.94 343.284 272.1 342.784 272.1C342.284 272.1 341.869 271.94 341.539 271.62C341.209 271.29 341.044 270.895 341.044 270.435ZM355.188 282.36C353.708 282.36 352.413 282 351.303 281.28C350.203 280.56 349.343 279.475 348.723 278.025C348.113 276.575 347.808 274.76 347.808 272.58C347.808 270.4 348.113 268.59 348.723 267.15C349.343 265.7 350.203 264.62 351.303 263.91C352.413 263.19 353.708 262.83 355.188 262.83C356.658 262.83 357.948 263.19 359.058 263.91C360.168 264.62 361.028 265.7 361.638 267.15C362.258 268.59 362.568 270.4 362.568 272.58C362.568 274.76 362.258 276.575 361.638 278.025C361.028 279.475 360.168 280.56 359.058 281.28C357.948 282 356.658 282.36 355.188 282.36ZM355.188 280.2C356.808 280.2 358.038 279.54 358.878 278.22C359.718 276.89 360.138 275.01 360.138 272.58C360.138 270.15 359.718 268.275 358.878 266.955C358.038 265.625 356.808 264.96 355.188 264.96C353.588 264.96 352.363 265.625 351.513 266.955C350.663 268.275 350.238 270.15 350.238 272.58C350.238 275.01 350.663 276.89 351.513 278.22C352.363 279.54 353.588 280.2 355.188 280.2ZM373.001 282.36C371.521 282.36 370.226 282 369.116 281.28C368.016 280.56 367.156 279.475 366.536 278.025C365.926 276.575 365.621 274.76 365.621 272.58C365.621 270.4 365.926 268.59 366.536 267.15C367.156 265.7 368.016 264.62 369.116 263.91C370.226 263.19 371.521 262.83 373.001 262.83C374.471 262.83 375.761 263.19 376.871 263.91C377.981 264.62 378.841 265.7 379.451 267.15C380.071 268.59 380.381 270.4 380.381 272.58C380.381 274.76 380.071 276.575 379.451 278.025C378.841 279.475 377.981 280.56 376.871 281.28C375.761 282 374.471 282.36 373.001 282.36ZM373.001 280.2C374.621 280.2 375.851 279.54 376.691 278.22C377.531 276.89 377.951 275.01 377.951 272.58C377.951 270.15 377.531 268.275 376.691 266.955C375.851 265.625 374.621 264.96 373.001 264.96C371.401 264.96 370.176 265.625 369.326 266.955C368.476 268.275 368.051 270.15 368.051 272.58C368.051 275.01 368.476 276.89 369.326 278.22C370.176 279.54 371.401 280.2 373.001 280.2ZM390.162 274.29V272.25H398.322V274.29H390.162ZM408.491 282V279.21C408.491 278.12 408.666 277.21 409.016 276.48C409.376 275.75 409.876 275.145 410.516 274.665C411.166 274.185 411.931 273.77 412.811 273.42L416.531 271.95C417.491 271.56 418.211 271.06 418.691 270.45C419.171 269.84 419.411 269.08 419.411 268.17C419.411 267.21 419.076 266.425 418.406 265.815C417.746 265.205 416.821 264.9 415.631 264.9C414.451 264.9 413.481 265.155 412.721 265.665C411.971 266.165 411.541 266.92 411.431 267.93H408.821C408.891 266.84 409.211 265.915 409.781 265.155C410.361 264.395 411.146 263.82 412.136 263.43C413.126 263.03 414.281 262.83 415.601 262.83C416.811 262.83 417.896 263.065 418.856 263.535C419.816 264.005 420.571 264.655 421.121 265.485C421.681 266.305 421.961 267.25 421.961 268.32C421.961 269.29 421.781 270.135 421.421 270.855C421.061 271.575 420.546 272.195 419.876 272.715C419.216 273.235 418.431 273.68 417.521 274.05L413.711 275.58C412.751 275.95 412.031 276.395 411.551 276.915C411.071 277.435 410.831 278.11 410.831 278.94V279.84H421.781V282H408.491ZM425.864 282V279.21C425.864 278.12 426.039 277.21 426.389 276.48C426.749 275.75 427.249 275.145 427.889 274.665C428.539 274.185 429.304 273.77 430.184 273.42L433.904 271.95C434.864 271.56 435.584 271.06 436.064 270.45C436.544 269.84 436.784 269.08 436.784 268.17C436.784 267.21 436.449 266.425 435.779 265.815C435.119 265.205 434.194 264.9 433.004 264.9C431.824 264.9 430.854 265.155 430.094 265.665C429.344 266.165 428.914 266.92 428.804 267.93H426.194C426.264 266.84 426.584 265.915 427.154 265.155C427.734 264.395 428.519 263.82 429.509 263.43C430.499 263.03 431.654 262.83 432.974 262.83C434.184 262.83 435.269 263.065 436.229 263.535C437.189 264.005 437.944 264.655 438.494 265.485C439.054 266.305 439.334 267.25 439.334 268.32C439.334 269.29 439.154 270.135 438.794 270.855C438.434 271.575 437.919 272.195 437.249 272.715C436.589 273.235 435.804 273.68 434.894 274.05L431.084 275.58C430.124 275.95 429.404 276.395 428.924 276.915C428.444 277.435 428.204 278.11 428.204 278.94V279.84H439.154V282H425.864ZM442.997 279.615C442.997 279.145 443.162 278.74 443.492 278.4C443.822 278.06 444.237 277.89 444.737 277.89C445.237 277.89 445.662 278.06 446.012 278.4C446.362 278.74 446.537 279.145 446.537 279.615C446.537 280.085 446.362 280.48 446.012 280.8C445.662 281.12 445.237 281.28 444.737 281.28C444.237 281.28 443.822 281.12 443.492 280.8C443.162 280.47 442.997 280.075 442.997 279.615ZM442.997 270.435C442.997 269.965 443.162 269.56 443.492 269.22C443.822 268.88 444.237 268.71 444.737 268.71C445.237 268.71 445.662 268.88 446.012 269.22C446.362 269.56 446.537 269.965 446.537 270.435C446.537 270.905 446.362 271.3 446.012 271.62C445.662 271.94 445.237 272.1 444.737 272.1C444.237 272.1 443.822 271.94 443.492 271.62C443.162 271.29 442.997 270.895 442.997 270.435ZM457.141 282.36C455.661 282.36 454.366 282 453.256 281.28C452.156 280.56 451.296 279.475 450.676 278.025C450.066 276.575 449.761 274.76 449.761 272.58C449.761 270.4 450.066 268.59 450.676 267.15C451.296 265.7 452.156 264.62 453.256 263.91C454.366 263.19 455.661 262.83 457.141 262.83C458.611 262.83 459.901 263.19 461.011 263.91C462.121 264.62 462.981 265.7 463.591 267.15C464.211 268.59 464.521 270.4 464.521 272.58C464.521 274.76 464.211 276.575 463.591 278.025C462.981 279.475 462.121 280.56 461.011 281.28C459.901 282 458.611 282.36 457.141 282.36ZM457.141 280.2C458.761 280.2 459.991 279.54 460.831 278.22C461.671 276.89 462.091 275.01 462.091 272.58C462.091 270.15 461.671 268.275 460.831 266.955C459.991 265.625 458.761 264.96 457.141 264.96C455.541 264.96 454.316 265.625 453.466 266.955C452.616 268.275 452.191 270.15 452.191 272.58C452.191 275.01 452.616 276.89 453.466 278.22C454.316 279.54 455.541 280.2 457.141 280.2ZM474.954 282.36C473.474 282.36 472.179 282 471.069 281.28C469.969 280.56 469.109 279.475 468.489 278.025C467.879 276.575 467.574 274.76 467.574 272.58C467.574 270.4 467.879 268.59 468.489 267.15C469.109 265.7 469.969 264.62 471.069 263.91C472.179 263.19 473.474 262.83 474.954 262.83C476.424 262.83 477.714 263.19 478.824 263.91C479.934 264.62 480.794 265.7 481.404 267.15C482.024 268.59 482.334 270.4 482.334 272.58C482.334 274.76 482.024 276.575 481.404 278.025C480.794 279.475 479.934 280.56 478.824 281.28C477.714 282 476.424 282.36 474.954 282.36ZM474.954 280.2C476.574 280.2 477.804 279.54 478.644 278.22C479.484 276.89 479.904 275.01 479.904 272.58C479.904 270.15 479.484 268.275 478.644 266.955C477.804 265.625 476.574 264.96 474.954 264.96C473.354 264.96 472.129 265.625 471.279 266.955C470.429 268.275 470.004 270.15 470.004 272.58C470.004 275.01 470.429 276.89 471.279 278.22C472.129 279.54 473.354 280.2 474.954 280.2ZM23.9951 298.16H26.7851L36.3551 313.67H36.1451V298.16H38.4851V317H35.8751L25.9751 300.98H26.3351V317H23.9951V298.16ZM49.7229 317.36C48.4329 317.36 47.2829 317.075 46.2729 316.505C45.2729 315.935 44.4829 315.09 43.9029 313.97C43.3229 312.85 43.0329 311.47 43.0329 309.83C43.0329 308.18 43.3229 306.8 43.9029 305.69C44.4829 304.57 45.2729 303.725 46.2729 303.155C47.2829 302.585 48.4329 302.3 49.7229 302.3C51.0029 302.3 52.1429 302.585 53.1429 303.155C54.1529 303.725 54.9429 304.57 55.5129 305.69C56.0929 306.8 56.3829 308.18 56.3829 309.83C56.3829 311.47 56.0929 312.85 55.5129 313.97C54.9429 315.09 54.1529 315.935 53.1429 316.505C52.1429 317.075 51.0029 317.36 49.7229 317.36ZM49.6629 315.32C50.5929 315.32 51.3829 315.1 52.0329 314.66C52.6829 314.21 53.1729 313.575 53.5029 312.755C53.8429 311.935 54.0129 310.96 54.0129 309.83C54.0129 308.12 53.6579 306.775 52.9479 305.795C52.2379 304.805 51.1829 304.31 49.7829 304.31C48.8429 304.31 48.0479 304.535 47.3979 304.985C46.7579 305.425 46.2679 306.06 45.9279 306.89C45.5979 307.71 45.4329 308.69 45.4329 309.83C45.4329 311.52 45.7879 312.86 46.4979 313.85C47.2179 314.83 48.2729 315.32 49.6629 315.32ZM58.4492 302.66H61.1192L65.6192 314.99H65.2892L69.7892 302.66H72.4592L66.7292 317H64.1792L58.4492 302.66ZM81.2171 317.36C79.9271 317.36 78.7771 317.075 77.7671 316.505C76.7671 315.935 75.9771 315.09 75.3971 313.97C74.8171 312.85 74.5271 311.47 74.5271 309.83C74.5271 308.18 74.8171 306.8 75.3971 305.69C75.9771 304.57 76.7671 303.725 77.7671 303.155C78.7771 302.585 79.9271 302.3 81.2171 302.3C82.4971 302.3 83.6371 302.585 84.6371 303.155C85.6471 303.725 86.4371 304.57 87.0071 305.69C87.5871 306.8 87.8771 308.18 87.8771 309.83C87.8771 311.47 87.5871 312.85 87.0071 313.97C86.4371 315.09 85.6471 315.935 84.6371 316.505C83.6371 317.075 82.4971 317.36 81.2171 317.36ZM81.1571 315.32C82.0871 315.32 82.8771 315.1 83.5271 314.66C84.1771 314.21 84.6671 313.575 84.9971 312.755C85.3371 311.935 85.5071 310.96 85.5071 309.83C85.5071 308.12 85.1521 306.775 84.4421 305.795C83.7321 304.805 82.6771 304.31 81.2771 304.31C80.3371 304.31 79.5421 304.535 78.8921 304.985C78.2521 305.425 77.7621 306.06 77.4221 306.89C77.0921 307.71 76.9271 308.69 76.9271 309.83C76.9271 311.52 77.2821 312.86 77.9921 313.85C78.7121 314.83 79.7671 315.32 81.1571 315.32ZM97.5933 317.36C96.2033 317.36 95.0433 317.165 94.1133 316.775C93.1833 316.375 92.4783 315.83 91.9983 315.14C91.5183 314.44 91.2633 313.64 91.2333 312.74H93.4833C93.5333 313.65 93.8983 314.335 94.5783 314.795C95.2683 315.245 96.2033 315.47 97.3833 315.47C98.0033 315.47 98.5733 315.37 99.0933 315.17C99.6133 314.97 100.028 314.695 100.338 314.345C100.648 313.995 100.803 313.6 100.803 313.16C100.803 312.6 100.598 312.16 100.188 311.84C99.7783 311.52 99.1233 311.24 98.2233 311L95.4333 310.1C94.2233 309.72 93.2933 309.2 92.6433 308.54C92.0033 307.87 91.6833 307.07 91.6833 306.14C91.6833 304.98 92.1933 304.05 93.2133 303.35C94.2333 302.65 95.5733 302.3 97.2333 302.3C98.9933 302.3 100.358 302.66 101.328 303.38C102.298 304.1 102.803 305 102.843 306.08H100.533C100.443 305.45 100.123 304.975 99.5733 304.655C99.0233 304.325 98.2433 304.16 97.2333 304.16C96.2633 304.16 95.5033 304.38 94.9533 304.82C94.4133 305.25 94.1433 305.73 94.1433 306.26C94.1433 307.25 94.9933 307.98 96.6933 308.45L99.5433 309.41C100.773 309.78 101.713 310.265 102.363 310.865C103.023 311.465 103.353 312.23 103.353 313.16C103.353 313.88 103.118 314.56 102.648 315.2C102.178 315.84 101.513 316.36 100.653 316.76C99.7933 317.16 98.7733 317.36 97.5933 317.36ZM109.515 299.27C109.035 299.27 108.655 299.135 108.375 298.865C108.095 298.585 107.955 298.22 107.955 297.77C107.955 297.33 108.095 296.98 108.375 296.72C108.655 296.46 109.035 296.33 109.515 296.33C109.995 296.33 110.375 296.46 110.655 296.72C110.935 296.98 111.075 297.33 111.075 297.77C111.075 298.22 110.935 298.585 110.655 298.865C110.375 299.135 109.995 299.27 109.515 299.27ZM108.345 317V302.63H110.685V317H108.345ZM123.701 317.36C122.741 317.36 121.871 317.11 121.091 316.61C120.321 316.11 119.706 315.38 119.246 314.42C118.796 313.45 118.571 312.27 118.571 310.88H119.471C119.471 311.81 119.661 312.605 120.041 313.265C120.431 313.915 120.931 314.41 121.541 314.75C122.151 315.09 122.791 315.26 123.461 315.26C124.231 315.26 124.936 315.04 125.576 314.6C126.216 314.16 126.726 313.53 127.106 312.71C127.496 311.89 127.691 310.91 127.691 309.77C127.691 308.65 127.501 307.69 127.121 306.89C126.741 306.08 126.226 305.46 125.576 305.03C124.936 304.59 124.221 304.37 123.431 304.37C122.751 304.37 122.106 304.54 121.496 304.88C120.896 305.21 120.406 305.7 120.026 306.35C119.656 307 119.471 307.8 119.471 308.75H118.571C118.571 307.39 118.791 306.23 119.231 305.27C119.681 304.31 120.301 303.575 121.091 303.065C121.881 302.555 122.801 302.3 123.851 302.3C124.981 302.3 126.016 302.605 126.956 303.215C127.906 303.815 128.666 304.675 129.236 305.795C129.806 306.915 130.091 308.24 130.091 309.77C130.091 311.31 129.801 312.65 129.221 313.79C128.641 314.92 127.866 315.8 126.896 316.43C125.926 317.05 124.861 317.36 123.701 317.36ZM117.131 317V296.54H119.471V313.64L118.781 317H117.131ZM136.234 299.27C135.754 299.27 135.374 299.135 135.094 298.865C134.814 298.585 134.674 298.22 134.674 297.77C134.674 297.33 134.814 296.98 135.094 296.72C135.374 296.46 135.754 296.33 136.234 296.33C136.714 296.33 137.094 296.46 137.374 296.72C137.654 296.98 137.794 297.33 137.794 297.77C137.794 298.22 137.654 298.585 137.374 298.865C137.094 299.135 136.714 299.27 136.234 299.27ZM135.064 317V302.63H137.404V317H135.064ZM143.849 317V302.63H146.189V317H143.849ZM145.469 310.52C145.469 308.7 145.644 307.19 145.994 305.99C146.344 304.78 146.854 303.88 147.524 303.29C148.204 302.69 149.029 302.39 149.999 302.39C150.319 302.39 150.609 302.415 150.869 302.465C151.139 302.505 151.409 302.57 151.679 302.66L151.529 304.97C151.249 304.88 150.944 304.805 150.614 304.745C150.284 304.675 149.989 304.64 149.729 304.64C148.879 304.64 148.194 304.885 147.674 305.375C147.154 305.855 146.774 306.535 146.534 307.415C146.304 308.295 146.189 309.33 146.189 310.52H145.469ZM159.849 317.36C158.459 317.36 157.299 317.165 156.369 316.775C155.439 316.375 154.734 315.83 154.254 315.14C153.774 314.44 153.519 313.64 153.489 312.74H155.739C155.789 313.65 156.154 314.335 156.834 314.795C157.524 315.245 158.459 315.47 159.639 315.47C160.259 315.47 160.829 315.37 161.349 315.17C161.869 314.97 162.284 314.695 162.594 314.345C162.904 313.995 163.059 313.6 163.059 313.16C163.059 312.6 162.854 312.16 162.444 311.84C162.034 311.52 161.379 311.24 160.479 311L157.689 310.1C156.479 309.72 155.549 309.2 154.899 308.54C154.259 307.87 153.939 307.07 153.939 306.14C153.939 304.98 154.449 304.05 155.469 303.35C156.489 302.65 157.829 302.3 159.489 302.3C161.249 302.3 162.614 302.66 163.584 303.38C164.554 304.1 165.059 305 165.099 306.08H162.789C162.699 305.45 162.379 304.975 161.829 304.655C161.279 304.325 160.499 304.16 159.489 304.16C158.519 304.16 157.759 304.38 157.209 304.82C156.669 305.25 156.399 305.73 156.399 306.26C156.399 307.25 157.249 307.98 158.949 308.45L161.799 309.41C163.029 309.78 163.969 310.265 164.619 310.865C165.279 311.465 165.609 312.23 165.609 313.16C165.609 313.88 165.374 314.56 164.904 315.2C164.434 315.84 163.769 316.36 162.909 316.76C162.049 317.16 161.029 317.36 159.849 317.36ZM170.451 317V296.54H172.791V317H170.451ZM172.431 308.78L179.751 302.66H183.021L172.431 311.27V308.78ZM180.471 317L173.661 307.94L176.031 307.52L183.351 317H180.471ZM186.005 314.615C186.005 314.145 186.17 313.74 186.5 313.4C186.83 313.06 187.245 312.89 187.745 312.89C188.245 312.89 188.67 313.06 189.02 313.4C189.37 313.74 189.545 314.145 189.545 314.615C189.545 315.085 189.37 315.48 189.02 315.8C188.67 316.12 188.245 316.28 187.745 316.28C187.245 316.28 186.83 316.12 186.5 315.8C186.17 315.47 186.005 315.075 186.005 314.615ZM186.005 305.435C186.005 304.965 186.17 304.56 186.5 304.22C186.83 303.88 187.245 303.71 187.745 303.71C188.245 303.71 188.67 303.88 189.02 304.22C189.37 304.56 189.545 304.965 189.545 305.435C189.545 305.905 189.37 306.3 189.02 306.62C188.67 306.94 188.245 307.1 187.745 307.1C187.245 307.1 186.83 306.94 186.5 306.62C186.17 306.29 186.005 305.895 186.005 305.435ZM201.388 298.16H204.748L211.228 311.18H210.988L217.468 298.16H220.738V317H218.368V300.59H218.788L211.888 314.63H210.328L203.458 300.68H203.728V317H201.388V298.16ZM231.979 317.36C230.689 317.36 229.539 317.075 228.529 316.505C227.529 315.935 226.739 315.09 226.159 313.97C225.579 312.85 225.289 311.47 225.289 309.83C225.289 308.18 225.579 306.8 226.159 305.69C226.739 304.57 227.529 303.725 228.529 303.155C229.539 302.585 230.689 302.3 231.979 302.3C233.259 302.3 234.399 302.585 235.399 303.155C236.409 303.725 237.199 304.57 237.769 305.69C238.349 306.8 238.639 308.18 238.639 309.83C238.639 311.47 238.349 312.85 237.769 313.97C237.199 315.09 236.409 315.935 235.399 316.505C234.399 317.075 233.259 317.36 231.979 317.36ZM231.919 315.32C232.849 315.32 233.639 315.1 234.289 314.66C234.939 314.21 235.429 313.575 235.759 312.755C236.099 311.935 236.269 310.96 236.269 309.83C236.269 308.12 235.914 306.775 235.204 305.795C234.494 304.805 233.439 304.31 232.039 304.31C231.099 304.31 230.304 304.535 229.654 304.985C229.014 305.425 228.524 306.06 228.184 306.89C227.854 307.71 227.689 308.69 227.689 309.83C227.689 311.52 228.044 312.86 228.754 313.85C229.474 314.83 230.529 315.32 231.919 315.32ZM253.395 317V308.57C253.395 307.2 253.065 306.16 252.405 305.45C251.755 304.73 250.865 304.37 249.735 304.37C248.875 304.37 248.13 304.605 247.5 305.075C246.87 305.545 246.385 306.22 246.045 307.1C245.705 307.97 245.535 309.01 245.535 310.22H244.635C244.635 308.55 244.855 307.125 245.295 305.945C245.735 304.765 246.375 303.865 247.215 303.245C248.065 302.615 249.095 302.3 250.305 302.3C251.435 302.3 252.4 302.555 253.2 303.065C254.01 303.565 254.63 304.285 255.06 305.225C255.49 306.165 255.705 307.28 255.705 308.57V317H253.395ZM243.195 317V302.66H245.205L245.535 305.96V317H243.195ZM259.171 315.605C259.171 315.135 259.336 314.73 259.666 314.39C259.996 314.05 260.411 313.88 260.911 313.88C261.411 313.88 261.836 314.05 262.186 314.39C262.536 314.73 262.711 315.135 262.711 315.605C262.711 316.075 262.536 316.47 262.186 316.79C261.836 317.11 261.411 317.27 260.911 317.27C260.411 317.27 259.996 317.11 259.666 316.79C259.336 316.46 259.171 316.065 259.171 315.605ZM264.772 309.29V307.25H272.932V309.29H264.772ZM283.122 317.36C281.862 317.36 280.707 317.135 279.657 316.685C278.607 316.225 277.762 315.55 277.122 314.66C276.482 313.77 276.152 312.67 276.132 311.36H278.412C278.412 312.24 278.627 312.965 279.057 313.535C279.487 314.095 280.057 314.515 280.767 314.795C281.477 315.065 282.252 315.2 283.092 315.2C284.002 315.2 284.792 315.055 285.462 314.765C286.132 314.475 286.647 314.095 287.007 313.625C287.377 313.145 287.562 312.62 287.562 312.05C287.562 311.25 287.317 310.605 286.827 310.115C286.337 309.615 285.612 309.21 284.652 308.9L281.322 307.73C279.762 307.17 278.582 306.53 277.782 305.81C276.982 305.09 276.582 304.08 276.582 302.78C276.582 301.32 277.142 300.13 278.262 299.21C279.392 298.29 280.992 297.83 283.062 297.83C284.982 297.83 286.482 298.275 287.562 299.165C288.642 300.045 289.262 301.23 289.422 302.72H287.112C286.962 301.85 286.552 301.175 285.882 300.695C285.222 300.205 284.282 299.96 283.062 299.96C281.822 299.96 280.857 300.235 280.167 300.785C279.477 301.335 279.132 302.03 279.132 302.87C279.132 303.56 279.347 304.11 279.777 304.52C280.217 304.92 280.902 305.28 281.832 305.6L285.732 306.95C287.082 307.4 288.147 308.03 288.927 308.84C289.717 309.65 290.112 310.7 290.112 311.99C290.112 312.99 289.842 313.895 289.302 314.705C288.772 315.515 287.987 316.16 286.947 316.64C285.907 317.12 284.632 317.36 283.122 317.36ZM304.976 302.63H307.316V317H304.976V302.63ZM294.806 302.63H297.146V311.57C297.146 312.77 297.436 313.68 298.016 314.3C298.606 314.92 299.446 315.23 300.536 315.23C301.436 315.23 302.216 314.99 302.876 314.51C303.546 314.03 304.061 313.37 304.421 312.53C304.791 311.68 304.976 310.71 304.976 309.62H305.846C305.846 311.23 305.611 312.605 305.141 313.745C304.681 314.885 304.026 315.76 303.176 316.37C302.336 316.97 301.346 317.27 300.206 317.27C299.126 317.27 298.181 317.07 297.371 316.67C296.561 316.27 295.931 315.665 295.481 314.855C295.031 314.035 294.806 313 294.806 311.75V302.63ZM323.59 317V308.57C323.59 307.2 323.26 306.16 322.6 305.45C321.95 304.73 321.06 304.37 319.93 304.37C319.07 304.37 318.325 304.605 317.695 305.075C317.065 305.545 316.58 306.22 316.24 307.1C315.9 307.97 315.73 309.01 315.73 310.22H314.83C314.83 308.55 315.05 307.125 315.49 305.945C315.93 304.765 316.57 303.865 317.41 303.245C318.26 302.615 319.29 302.3 320.5 302.3C321.63 302.3 322.595 302.555 323.395 303.065C324.205 303.565 324.825 304.285 325.255 305.225C325.685 306.165 325.9 307.28 325.9 308.57V317H323.59ZM313.39 317V302.66H315.4L315.73 305.96V317H313.39ZM329.366 315.605C329.366 315.135 329.531 314.73 329.861 314.39C330.191 314.05 330.606 313.88 331.106 313.88C331.606 313.88 332.031 314.05 332.381 314.39C332.731 314.73 332.906 315.135 332.906 315.605C332.906 316.075 332.731 316.47 332.381 316.79C332.031 317.11 331.606 317.27 331.106 317.27C330.606 317.27 330.191 317.11 329.861 316.79C329.531 316.46 329.366 316.065 329.366 315.605ZM349.856 317.36C348.376 317.36 347.081 317 345.971 316.28C344.871 315.56 344.011 314.475 343.391 313.025C342.781 311.575 342.476 309.76 342.476 307.58C342.476 305.4 342.781 303.59 343.391 302.15C344.011 300.7 344.871 299.62 345.971 298.91C347.081 298.19 348.376 297.83 349.856 297.83C351.326 297.83 352.616 298.19 353.726 298.91C354.836 299.62 355.696 300.7 356.306 302.15C356.926 303.59 357.236 305.4 357.236 307.58C357.236 309.76 356.926 311.575 356.306 313.025C355.696 314.475 354.836 315.56 353.726 316.28C352.616 317 351.326 317.36 349.856 317.36ZM349.856 315.2C351.476 315.2 352.706 314.54 353.546 313.22C354.386 311.89 354.806 310.01 354.806 307.58C354.806 305.15 354.386 303.275 353.546 301.955C352.706 300.625 351.476 299.96 349.856 299.96C348.256 299.96 347.031 300.625 346.181 301.955C345.331 303.275 344.906 305.15 344.906 307.58C344.906 310.01 345.331 311.89 346.181 313.22C347.031 314.54 348.256 315.2 349.856 315.2ZM367.279 317.36C366.039 317.36 364.934 317.105 363.964 316.595C363.004 316.085 362.244 315.385 361.684 314.495C361.134 313.595 360.859 312.57 360.859 311.42H363.289C363.319 312.57 363.679 313.49 364.369 314.18C365.069 314.86 366.019 315.2 367.219 315.2C368.399 315.2 369.354 314.86 370.084 314.18C370.824 313.5 371.364 312.54 371.704 311.3C372.054 310.05 372.229 308.58 372.229 306.89C372.229 306.5 372.219 306.14 372.199 305.81C372.179 305.47 372.139 305.09 372.079 304.67C371.949 305.75 371.639 306.65 371.149 307.37C370.659 308.08 370.029 308.615 369.259 308.975C368.499 309.325 367.639 309.5 366.679 309.5C365.559 309.5 364.549 309.25 363.649 308.75C362.759 308.24 362.049 307.545 361.519 306.665C360.999 305.775 360.739 304.76 360.739 303.62C360.739 302.45 361.004 301.43 361.534 300.56C362.074 299.69 362.824 299.02 363.784 298.55C364.744 298.07 365.859 297.83 367.129 297.83C368.209 297.83 369.204 298.05 370.114 298.49C371.034 298.93 371.829 299.565 372.499 300.395C373.169 301.215 373.689 302.2 374.059 303.35C374.439 304.5 374.629 305.79 374.629 307.22C374.629 309.29 374.364 311.085 373.834 312.605C373.314 314.125 372.509 315.3 371.419 316.13C370.339 316.95 368.959 317.36 367.279 317.36ZM367.129 307.43C367.869 307.43 368.539 307.265 369.139 306.935C369.739 306.605 370.214 306.16 370.564 305.6C370.914 305.04 371.089 304.41 371.089 303.71C371.089 302.55 370.704 301.635 369.934 300.965C369.174 300.295 368.239 299.96 367.129 299.96C365.989 299.96 365.044 300.295 364.294 300.965C363.544 301.635 363.169 302.55 363.169 303.71C363.169 304.86 363.544 305.77 364.294 306.44C365.044 307.1 365.989 307.43 367.129 307.43ZM377.841 314.615C377.841 314.145 378.006 313.74 378.336 313.4C378.666 313.06 379.081 312.89 379.581 312.89C380.081 312.89 380.506 313.06 380.856 313.4C381.206 313.74 381.381 314.145 381.381 314.615C381.381 315.085 381.206 315.48 380.856 315.8C380.506 316.12 380.081 316.28 379.581 316.28C379.081 316.28 378.666 316.12 378.336 315.8C378.006 315.47 377.841 315.075 377.841 314.615ZM377.841 305.435C377.841 304.965 378.006 304.56 378.336 304.22C378.666 303.88 379.081 303.71 379.581 303.71C380.081 303.71 380.506 303.88 380.856 304.22C381.206 304.56 381.381 304.965 381.381 305.435C381.381 305.905 381.206 306.3 380.856 306.62C380.506 306.94 380.081 307.1 379.581 307.1C379.081 307.1 378.666 306.94 378.336 306.62C378.006 306.29 377.841 305.895 377.841 305.435ZM391.985 317.36C390.505 317.36 389.21 317 388.1 316.28C387 315.56 386.14 314.475 385.52 313.025C384.91 311.575 384.605 309.76 384.605 307.58C384.605 305.4 384.91 303.59 385.52 302.15C386.14 300.7 387 299.62 388.1 298.91C389.21 298.19 390.505 297.83 391.985 297.83C393.455 297.83 394.745 298.19 395.855 298.91C396.965 299.62 397.825 300.7 398.435 302.15C399.055 303.59 399.365 305.4 399.365 307.58C399.365 309.76 399.055 311.575 398.435 313.025C397.825 314.475 396.965 315.56 395.855 316.28C394.745 317 393.455 317.36 391.985 317.36ZM391.985 315.2C393.605 315.2 394.835 314.54 395.675 313.22C396.515 311.89 396.935 310.01 396.935 307.58C396.935 305.15 396.515 303.275 395.675 301.955C394.835 300.625 393.605 299.96 391.985 299.96C390.385 299.96 389.16 300.625 388.31 301.955C387.46 303.275 387.035 305.15 387.035 307.58C387.035 310.01 387.46 311.89 388.31 313.22C389.16 314.54 390.385 315.2 391.985 315.2ZM409.798 317.36C408.318 317.36 407.023 317 405.913 316.28C404.813 315.56 403.953 314.475 403.333 313.025C402.723 311.575 402.418 309.76 402.418 307.58C402.418 305.4 402.723 303.59 403.333 302.15C403.953 300.7 404.813 299.62 405.913 298.91C407.023 298.19 408.318 297.83 409.798 297.83C411.268 297.83 412.558 298.19 413.668 298.91C414.778 299.62 415.638 300.7 416.248 302.15C416.868 303.59 417.178 305.4 417.178 307.58C417.178 309.76 416.868 311.575 416.248 313.025C415.638 314.475 414.778 315.56 413.668 316.28C412.558 317 411.268 317.36 409.798 317.36ZM409.798 315.2C411.418 315.2 412.648 314.54 413.488 313.22C414.328 311.89 414.748 310.01 414.748 307.58C414.748 305.15 414.328 303.275 413.488 301.955C412.648 300.625 411.418 299.96 409.798 299.96C408.198 299.96 406.973 300.625 406.123 301.955C405.273 303.275 404.848 305.15 404.848 307.58C404.848 310.01 405.273 311.89 406.123 313.22C406.973 314.54 408.198 315.2 409.798 315.2ZM426.959 309.29V307.25H435.119V309.29H426.959ZM445.288 317V314.21C445.288 313.12 445.463 312.21 445.813 311.48C446.173 310.75 446.673 310.145 447.313 309.665C447.963 309.185 448.728 308.77 449.608 308.42L453.328 306.95C454.288 306.56 455.008 306.06 455.488 305.45C455.968 304.84 456.208 304.08 456.208 303.17C456.208 302.21 455.873 301.425 455.203 300.815C454.543 300.205 453.618 299.9 452.428 299.9C451.248 299.9 450.278 300.155 449.518 300.665C448.768 301.165 448.338 301.92 448.228 302.93H445.618C445.688 301.84 446.008 300.915 446.578 300.155C447.158 299.395 447.943 298.82 448.933 298.43C449.923 298.03 451.078 297.83 452.398 297.83C453.608 297.83 454.693 298.065 455.653 298.535C456.613 299.005 457.368 299.655 457.918 300.485C458.478 301.305 458.758 302.25 458.758 303.32C458.758 304.29 458.578 305.135 458.218 305.855C457.858 306.575 457.343 307.195 456.673 307.715C456.013 308.235 455.228 308.68 454.318 309.05L450.508 310.58C449.548 310.95 448.828 311.395 448.348 311.915C447.868 312.435 447.628 313.11 447.628 313.94V314.84H458.578V317H445.288ZM469.651 317.36C468.711 317.36 467.801 317.23 466.921 316.97C466.051 316.7 465.266 316.31 464.566 315.8C463.876 315.28 463.331 314.64 462.931 313.88C462.531 313.12 462.331 312.24 462.331 311.24H464.731C464.751 312.1 464.981 312.825 465.421 313.415C465.861 314.005 466.446 314.45 467.176 314.75C467.916 315.05 468.741 315.2 469.651 315.2C471.051 315.2 472.136 314.86 472.906 314.18C473.676 313.5 474.061 312.65 474.061 311.63C474.061 310.98 473.901 310.405 473.581 309.905C473.261 309.405 472.751 309.015 472.051 308.735C471.361 308.445 470.451 308.3 469.321 308.3H467.191V306.44H468.631C470.091 306.44 471.241 306.15 472.081 305.57C472.921 304.99 473.341 304.19 473.341 303.17C473.341 302.27 473.001 301.51 472.321 300.89C471.641 300.27 470.671 299.96 469.411 299.96C468.441 299.96 467.576 300.16 466.816 300.56C466.056 300.95 465.541 301.67 465.271 302.72H462.871C463.031 301.55 463.411 300.605 464.011 299.885C464.611 299.165 465.371 298.645 466.291 298.325C467.211 297.995 468.231 297.83 469.351 297.83C470.601 297.83 471.716 298.05 472.696 298.49C473.676 298.93 474.446 299.535 475.006 300.305C475.576 301.075 475.861 301.96 475.861 302.96C475.861 303.95 475.576 304.8 475.006 305.51C474.446 306.21 473.631 306.75 472.561 307.13C473.751 307.47 474.721 308.03 475.471 308.81C476.231 309.59 476.611 310.59 476.611 311.81C476.611 312.89 476.326 313.85 475.756 314.69C475.196 315.52 474.396 316.175 473.356 316.655C472.316 317.125 471.081 317.36 469.651 317.36ZM480.146 314.615C480.146 314.145 480.311 313.74 480.641 313.4C480.971 313.06 481.386 312.89 481.886 312.89C482.386 312.89 482.811 313.06 483.161 313.4C483.511 313.74 483.686 314.145 483.686 314.615C483.686 315.085 483.511 315.48 483.161 315.8C482.811 316.12 482.386 316.28 481.886 316.28C481.386 316.28 480.971 316.12 480.641 315.8C480.311 315.47 480.146 315.075 480.146 314.615ZM480.146 305.435C480.146 304.965 480.311 304.56 480.641 304.22C480.971 303.88 481.386 303.71 481.886 303.71C482.386 303.71 482.811 303.88 483.161 304.22C483.511 304.56 483.686 304.965 483.686 305.435C483.686 305.905 483.511 306.3 483.161 306.62C482.811 306.94 482.386 307.1 481.886 307.1C481.386 307.1 480.971 306.94 480.641 306.62C480.311 306.29 480.146 305.895 480.146 305.435ZM494.29 317.36C492.81 317.36 491.515 317 490.405 316.28C489.305 315.56 488.445 314.475 487.825 313.025C487.215 311.575 486.91 309.76 486.91 307.58C486.91 305.4 487.215 303.59 487.825 302.15C488.445 300.7 489.305 299.62 490.405 298.91C491.515 298.19 492.81 297.83 494.29 297.83C495.76 297.83 497.05 298.19 498.16 298.91C499.27 299.62 500.13 300.7 500.74 302.15C501.36 303.59 501.67 305.4 501.67 307.58C501.67 309.76 501.36 311.575 500.74 313.025C500.13 314.475 499.27 315.56 498.16 316.28C497.05 317 495.76 317.36 494.29 317.36ZM494.29 315.2C495.91 315.2 497.14 314.54 497.98 313.22C498.82 311.89 499.24 310.01 499.24 307.58C499.24 305.15 498.82 303.275 497.98 301.955C497.14 300.625 495.91 299.96 494.29 299.96C492.69 299.96 491.465 300.625 490.615 301.955C489.765 303.275 489.34 305.15 489.34 307.58C489.34 310.01 489.765 311.89 490.615 313.22C491.465 314.54 492.69 315.2 494.29 315.2ZM512.102 317.36C510.622 317.36 509.327 317 508.217 316.28C507.117 315.56 506.257 314.475 505.637 313.025C505.027 311.575 504.722 309.76 504.722 307.58C504.722 305.4 505.027 303.59 505.637 302.15C506.257 300.7 507.117 299.62 508.217 298.91C509.327 298.19 510.622 297.83 512.102 297.83C513.572 297.83 514.862 298.19 515.972 298.91C517.082 299.62 517.942 300.7 518.552 302.15C519.172 303.59 519.482 305.4 519.482 307.58C519.482 309.76 519.172 311.575 518.552 313.025C517.942 314.475 517.082 315.56 515.972 316.28C514.862 317 513.572 317.36 512.102 317.36ZM512.102 315.2C513.722 315.2 514.952 314.54 515.792 313.22C516.632 311.89 517.052 310.01 517.052 307.58C517.052 305.15 516.632 303.275 515.792 301.955C514.952 300.625 513.722 299.96 512.102 299.96C510.502 299.96 509.277 300.625 508.427 301.955C507.577 303.275 507.152 305.15 507.152 307.58C507.152 310.01 507.577 311.89 508.427 313.22C509.277 314.54 510.502 315.2 512.102 315.2ZM43.9827 335.17V333.16H58.6527V335.17H51.9477L52.4727 334.63V352H50.1327V334.63L50.6577 335.17H43.9827ZM68.1346 352L67.8346 348.85V342.7C67.8346 341.41 67.5596 340.485 67.0096 339.925C66.4596 339.355 65.6346 339.07 64.5346 339.07C63.9146 339.07 63.3496 339.16 62.8396 339.34C62.3396 339.52 61.9396 339.8 61.6396 340.18C61.3496 340.55 61.2046 341.03 61.2046 341.62H58.5946C58.5946 340.58 58.8496 339.745 59.3596 339.115C59.8696 338.475 60.5696 338.015 61.4596 337.735C62.3596 337.445 63.3846 337.3 64.5346 337.3C65.6346 337.3 66.6096 337.485 67.4596 337.855C68.3096 338.225 68.9746 338.815 69.4546 339.625C69.9346 340.425 70.1746 341.47 70.1746 342.76V352H68.1346ZM63.2446 352.36C62.0646 352.36 61.0896 352.15 60.3196 351.73C59.5496 351.31 58.9746 350.765 58.5946 350.095C58.2146 349.425 58.0246 348.72 58.0246 347.98C58.0246 347.01 58.2646 346.22 58.7446 345.61C59.2346 345 59.8996 344.555 60.7396 344.275C61.5796 343.985 62.5246 343.84 63.5746 343.84C64.3246 343.84 65.0746 343.915 65.8246 344.065C66.5846 344.215 67.3246 344.42 68.0446 344.68V346.15C67.4446 345.91 66.7646 345.72 66.0046 345.58C65.2546 345.44 64.5646 345.37 63.9346 345.37C62.9746 345.37 62.1646 345.57 61.5046 345.97C60.8446 346.36 60.5146 347.03 60.5146 347.98C60.5146 348.68 60.7646 349.28 61.2646 349.78C61.7746 350.28 62.5846 350.53 63.6946 350.53C64.4746 350.53 65.1746 350.35 65.7946 349.99C66.4246 349.62 66.9196 349.16 67.2796 348.61C67.6496 348.06 67.8346 347.51 67.8346 346.96H68.4046C68.4046 347.92 68.1946 348.81 67.7746 349.63C67.3646 350.45 66.7746 351.11 66.0046 351.61C65.2346 352.11 64.3146 352.36 63.2446 352.36ZM80.938 352.36C79.548 352.36 78.388 352.165 77.458 351.775C76.528 351.375 75.823 350.83 75.343 350.14C74.863 349.44 74.608 348.64 74.578 347.74H76.828C76.878 348.65 77.243 349.335 77.923 349.795C78.613 350.245 79.548 350.47 80.728 350.47C81.348 350.47 81.918 350.37 82.438 350.17C82.958 349.97 83.373 349.695 83.683 349.345C83.993 348.995 84.148 348.6 84.148 348.16C84.148 347.6 83.943 347.16 83.533 346.84C83.123 346.52 82.468 346.24 81.568 346L78.778 345.1C77.568 344.72 76.638 344.2 75.988 343.54C75.348 342.87 75.028 342.07 75.028 341.14C75.028 339.98 75.538 339.05 76.558 338.35C77.578 337.65 78.918 337.3 80.578 337.3C82.338 337.3 83.703 337.66 84.673 338.38C85.643 339.1 86.148 340 86.188 341.08H83.878C83.788 340.45 83.468 339.975 82.918 339.655C82.368 339.325 81.588 339.16 80.578 339.16C79.608 339.16 78.848 339.38 78.298 339.82C77.758 340.25 77.488 340.73 77.488 341.26C77.488 342.25 78.338 342.98 80.038 343.45L82.888 344.41C84.118 344.78 85.058 345.265 85.708 345.865C86.368 346.465 86.698 347.23 86.698 348.16C86.698 348.88 86.463 349.56 85.993 350.2C85.523 350.84 84.858 351.36 83.998 351.76C83.138 352.16 82.118 352.36 80.938 352.36ZM101.74 352V343.57C101.74 342.2 101.41 341.16 100.75 340.45C100.1 339.73 99.2098 339.37 98.0798 339.37C97.2198 339.37 96.4748 339.605 95.8448 340.075C95.2148 340.545 94.7298 341.22 94.3898 342.1C94.0498 342.97 93.8798 344.01 93.8798 345.22H92.9798C92.9798 343.55 93.1998 342.125 93.6398 340.945C94.0798 339.765 94.7198 338.865 95.5598 338.245C96.4098 337.615 97.4398 337.3 98.6498 337.3C99.7798 337.3 100.745 337.555 101.545 338.065C102.355 338.565 102.975 339.285 103.405 340.225C103.835 341.165 104.05 342.28 104.05 343.57V352H101.74ZM91.5398 352V331.54H93.8798V352H91.5398ZM109.645 352V331.54H111.985V352H109.645ZM111.625 343.78L118.945 337.66H122.215L111.625 346.27V343.78ZM119.665 352L112.855 342.94L115.225 342.52L122.545 352H119.665ZM131.53 352.36C130.29 352.36 129.18 352.045 128.2 351.415C127.23 350.775 126.46 349.89 125.89 348.76C125.33 347.63 125.05 346.33 125.05 344.86C125.05 343.29 125.33 341.94 125.89 340.81C126.45 339.68 127.215 338.815 128.185 338.215C129.165 337.605 130.28 337.3 131.53 337.3C132.62 337.3 133.55 337.52 134.32 337.96C135.09 338.4 135.71 338.995 136.18 339.745C136.65 340.495 136.975 341.345 137.155 342.295C137.345 343.235 137.4 344.21 137.32 345.22H126.94V343.78H135.775L135.085 344.23C135.115 343.64 135.08 343.05 134.98 342.46C134.89 341.87 134.715 341.33 134.455 340.84C134.195 340.34 133.83 339.94 133.36 339.64C132.89 339.34 132.29 339.19 131.56 339.19C130.64 339.19 129.87 339.425 129.25 339.895C128.63 340.365 128.165 340.985 127.855 341.755C127.545 342.515 127.39 343.34 127.39 344.23V345.19C127.39 346.19 127.54 347.085 127.84 347.875C128.15 348.665 128.61 349.29 129.22 349.75C129.83 350.21 130.6 350.44 131.53 350.44C132.46 350.44 133.225 350.215 133.825 349.765C134.425 349.315 134.79 348.65 134.92 347.77H137.35C137.2 348.72 136.86 349.54 136.33 350.23C135.8 350.91 135.125 351.435 134.305 351.805C133.485 352.175 132.56 352.36 131.53 352.36ZM152.16 352V343.57C152.16 342.2 151.83 341.16 151.17 340.45C150.52 339.73 149.63 339.37 148.5 339.37C147.64 339.37 146.895 339.605 146.265 340.075C145.635 340.545 145.15 341.22 144.81 342.1C144.47 342.97 144.3 344.01 144.3 345.22H143.4C143.4 343.55 143.62 342.125 144.06 340.945C144.5 339.765 145.14 338.865 145.98 338.245C146.83 337.615 147.86 337.3 149.07 337.3C150.2 337.3 151.165 337.555 151.965 338.065C152.775 338.565 153.395 339.285 153.825 340.225C154.255 341.165 154.47 342.28 154.47 343.57V352H152.16ZM141.96 352V337.66H143.97L144.3 340.96V352H141.96ZM164.475 352.36C163.695 352.36 162.995 352.21 162.375 351.91C161.755 351.61 161.265 351.16 160.905 350.56C160.545 349.96 160.365 349.21 160.365 348.31V333.67H162.675V348.25C162.675 349.73 163.365 350.47 164.745 350.47C165.155 350.47 165.55 350.425 165.93 350.335C166.32 350.245 166.755 350.11 167.235 349.93L167.565 351.61C167.055 351.83 166.545 352.01 166.035 352.15C165.535 352.29 165.015 352.36 164.475 352.36ZM158.055 339.28V337.66H167.205V339.28H158.055ZM169.994 349.615C169.994 349.145 170.159 348.74 170.489 348.4C170.819 348.06 171.234 347.89 171.734 347.89C172.234 347.89 172.659 348.06 173.009 348.4C173.359 348.74 173.534 349.145 173.534 349.615C173.534 350.085 173.359 350.48 173.009 350.8C172.659 351.12 172.234 351.28 171.734 351.28C171.234 351.28 170.819 351.12 170.489 350.8C170.159 350.47 169.994 350.075 169.994 349.615ZM169.994 340.435C169.994 339.965 170.159 339.56 170.489 339.22C170.819 338.88 171.234 338.71 171.734 338.71C172.234 338.71 172.659 338.88 173.009 339.22C173.359 339.56 173.534 339.965 173.534 340.435C173.534 340.905 173.359 341.3 173.009 341.62C172.659 341.94 172.234 342.1 171.734 342.1C171.234 342.1 170.819 341.94 170.489 341.62C170.159 341.29 169.994 340.895 169.994 340.435ZM185.378 333.16H188.738L195.218 346.18H194.978L201.458 333.16H204.728V352H202.358V335.59H202.778L195.878 349.63H194.318L187.448 335.68H187.718V352H185.378V333.16ZM215.968 352.36C214.678 352.36 213.528 352.075 212.518 351.505C211.518 350.935 210.728 350.09 210.148 348.97C209.568 347.85 209.278 346.47 209.278 344.83C209.278 343.18 209.568 341.8 210.148 340.69C210.728 339.57 211.518 338.725 212.518 338.155C213.528 337.585 214.678 337.3 215.968 337.3C217.248 337.3 218.388 337.585 219.388 338.155C220.398 338.725 221.188 339.57 221.758 340.69C222.338 341.8 222.628 343.18 222.628 344.83C222.628 346.47 222.338 347.85 221.758 348.97C221.188 350.09 220.398 350.935 219.388 351.505C218.388 352.075 217.248 352.36 215.968 352.36ZM215.908 350.32C216.838 350.32 217.628 350.1 218.278 349.66C218.928 349.21 219.418 348.575 219.748 347.755C220.088 346.935 220.258 345.96 220.258 344.83C220.258 343.12 219.903 341.775 219.193 340.795C218.483 339.805 217.428 339.31 216.028 339.31C215.088 339.31 214.293 339.535 213.643 339.985C213.003 340.425 212.513 341.06 212.173 341.89C211.843 342.71 211.678 343.69 211.678 344.83C211.678 346.52 212.033 347.86 212.743 348.85C213.463 349.83 214.518 350.32 215.908 350.32ZM237.384 352V343.57C237.384 342.2 237.054 341.16 236.394 340.45C235.744 339.73 234.854 339.37 233.724 339.37C232.864 339.37 232.119 339.605 231.489 340.075C230.859 340.545 230.374 341.22 230.034 342.1C229.694 342.97 229.524 344.01 229.524 345.22H228.624C228.624 343.55 228.844 342.125 229.284 340.945C229.724 339.765 230.364 338.865 231.204 338.245C232.054 337.615 233.084 337.3 234.294 337.3C235.424 337.3 236.389 337.555 237.189 338.065C237.999 338.565 238.619 339.285 239.049 340.225C239.479 341.165 239.694 342.28 239.694 343.57V352H237.384ZM227.184 352V337.66H229.194L229.524 340.96V352H227.184ZM243.16 350.605C243.16 350.135 243.325 349.73 243.655 349.39C243.985 349.05 244.4 348.88 244.9 348.88C245.4 348.88 245.825 349.05 246.175 349.39C246.525 349.73 246.7 350.135 246.7 350.605C246.7 351.075 246.525 351.47 246.175 351.79C245.825 352.11 245.4 352.27 244.9 352.27C244.4 352.27 243.985 352.11 243.655 351.79C243.325 351.46 243.16 351.065 243.16 350.605ZM248.761 344.29V342.25H256.921V344.29H248.761ZM267.111 352.36C265.851 352.36 264.696 352.135 263.646 351.685C262.596 351.225 261.751 350.55 261.111 349.66C260.471 348.77 260.141 347.67 260.121 346.36H262.401C262.401 347.24 262.616 347.965 263.046 348.535C263.476 349.095 264.046 349.515 264.756 349.795C265.466 350.065 266.241 350.2 267.081 350.2C267.991 350.2 268.781 350.055 269.451 349.765C270.121 349.475 270.636 349.095 270.996 348.625C271.366 348.145 271.551 347.62 271.551 347.05C271.551 346.25 271.306 345.605 270.816 345.115C270.326 344.615 269.601 344.21 268.641 343.9L265.311 342.73C263.751 342.17 262.571 341.53 261.771 340.81C260.971 340.09 260.571 339.08 260.571 337.78C260.571 336.32 261.131 335.13 262.251 334.21C263.381 333.29 264.981 332.83 267.051 332.83C268.971 332.83 270.471 333.275 271.551 334.165C272.631 335.045 273.251 336.23 273.411 337.72H271.101C270.951 336.85 270.541 336.175 269.871 335.695C269.211 335.205 268.271 334.96 267.051 334.96C265.811 334.96 264.846 335.235 264.156 335.785C263.466 336.335 263.121 337.03 263.121 337.87C263.121 338.56 263.336 339.11 263.766 339.52C264.206 339.92 264.891 340.28 265.821 340.6L269.721 341.95C271.071 342.4 272.136 343.03 272.916 343.84C273.706 344.65 274.101 345.7 274.101 346.99C274.101 347.99 273.831 348.895 273.291 349.705C272.761 350.515 271.976 351.16 270.936 351.64C269.896 352.12 268.621 352.36 267.111 352.36ZM288.966 337.63H291.306V352H288.966V337.63ZM278.796 337.63H281.136V346.57C281.136 347.77 281.426 348.68 282.006 349.3C282.596 349.92 283.436 350.23 284.526 350.23C285.426 350.23 286.206 349.99 286.866 349.51C287.536 349.03 288.051 348.37 288.411 347.53C288.781 346.68 288.966 345.71 288.966 344.62H289.836C289.836 346.23 289.601 347.605 289.131 348.745C288.671 349.885 288.016 350.76 287.166 351.37C286.326 351.97 285.336 352.27 284.196 352.27C283.116 352.27 282.171 352.07 281.361 351.67C280.551 351.27 279.921 350.665 279.471 349.855C279.021 349.035 278.796 348 278.796 346.75V337.63ZM307.58 352V343.57C307.58 342.2 307.25 341.16 306.59 340.45C305.94 339.73 305.05 339.37 303.92 339.37C303.06 339.37 302.315 339.605 301.685 340.075C301.055 340.545 300.57 341.22 300.23 342.1C299.89 342.97 299.72 344.01 299.72 345.22H298.82C298.82 343.55 299.04 342.125 299.48 340.945C299.92 339.765 300.56 338.865 301.4 338.245C302.25 337.615 303.28 337.3 304.49 337.3C305.62 337.3 306.585 337.555 307.385 338.065C308.195 338.565 308.815 339.285 309.245 340.225C309.675 341.165 309.89 342.28 309.89 343.57V352H307.58ZM297.38 352V337.66H299.39L299.72 340.96V352H297.38ZM313.355 350.605C313.355 350.135 313.52 349.73 313.85 349.39C314.18 349.05 314.595 348.88 315.095 348.88C315.595 348.88 316.02 349.05 316.37 349.39C316.72 349.73 316.895 350.135 316.895 350.605C316.895 351.075 316.72 351.47 316.37 351.79C316.02 352.11 315.595 352.27 315.095 352.27C314.595 352.27 314.18 352.11 313.85 351.79C313.52 351.46 313.355 351.065 313.355 350.605ZM333.846 352.36C332.366 352.36 331.071 352 329.961 351.28C328.861 350.56 328.001 349.475 327.381 348.025C326.771 346.575 326.466 344.76 326.466 342.58C326.466 340.4 326.771 338.59 327.381 337.15C328.001 335.7 328.861 334.62 329.961 333.91C331.071 333.19 332.366 332.83 333.846 332.83C335.316 332.83 336.606 333.19 337.716 333.91C338.826 334.62 339.686 335.7 340.296 337.15C340.916 338.59 341.226 340.4 341.226 342.58C341.226 344.76 340.916 346.575 340.296 348.025C339.686 349.475 338.826 350.56 337.716 351.28C336.606 352 335.316 352.36 333.846 352.36ZM333.846 350.2C335.466 350.2 336.696 349.54 337.536 348.22C338.376 346.89 338.796 345.01 338.796 342.58C338.796 340.15 338.376 338.275 337.536 336.955C336.696 335.625 335.466 334.96 333.846 334.96C332.246 334.96 331.021 335.625 330.171 336.955C329.321 338.275 328.896 340.15 328.896 342.58C328.896 345.01 329.321 346.89 330.171 348.22C331.021 349.54 332.246 350.2 333.846 350.2ZM351.958 352.36C350.478 352.36 349.168 352.125 348.028 351.655C346.898 351.185 346.008 350.54 345.358 349.72C344.718 348.9 344.398 347.97 344.398 346.93C344.398 345.98 344.643 345.165 345.133 344.485C345.633 343.805 346.313 343.285 347.173 342.925C348.043 342.555 349.028 342.37 350.128 342.37C350.418 342.37 350.698 342.385 350.968 342.415C351.238 342.445 351.528 342.5 351.838 342.58V343.27C350.838 343.27 349.963 343.435 349.213 343.765C348.463 344.085 347.878 344.51 347.458 345.04C347.038 345.57 346.828 346.14 346.828 346.75C346.828 347.49 347.053 348.12 347.503 348.64C347.953 349.15 348.563 349.54 349.333 349.81C350.113 350.07 350.988 350.2 351.958 350.2C353.578 350.2 354.838 349.94 355.738 349.42C356.638 348.9 357.088 348.22 357.088 347.38C357.088 346.7 356.848 346.14 356.368 345.7C355.898 345.26 355.248 344.89 354.418 344.59L349.228 342.61C348.598 342.37 347.958 342.04 347.308 341.62C346.668 341.2 346.128 340.675 345.688 340.045C345.248 339.415 345.028 338.67 345.028 337.81C345.028 336.84 345.303 335.98 345.853 335.23C346.403 334.48 347.193 333.895 348.223 333.475C349.263 333.045 350.508 332.83 351.958 332.83C353.288 332.83 354.468 333.06 355.498 333.52C356.538 333.97 357.353 334.59 357.943 335.38C358.533 336.16 358.828 337.05 358.828 338.05C358.828 338.83 358.628 339.555 358.228 340.225C357.838 340.885 357.258 341.42 356.488 341.83C355.728 342.23 354.788 342.43 353.668 342.43C353.398 342.43 353.138 342.415 352.888 342.385C352.648 342.345 352.378 342.28 352.078 342.19V341.44C352.888 341.44 353.618 341.305 354.268 341.035C354.918 340.755 355.433 340.37 355.813 339.88C356.203 339.39 356.398 338.82 356.398 338.17C356.398 337.55 356.208 337 355.828 336.52C355.458 336.03 354.938 335.65 354.268 335.38C353.608 335.1 352.838 334.96 351.958 334.96C351.108 334.96 350.343 335.095 349.663 335.365C348.993 335.625 348.463 335.98 348.073 336.43C347.683 336.87 347.488 337.36 347.488 337.9C347.488 338.57 347.713 339.11 348.163 339.52C348.623 339.92 349.258 340.27 350.068 340.57L355.258 342.55C356.638 343.07 357.698 343.685 358.438 344.395C359.178 345.105 359.548 346.07 359.548 347.29C359.548 348.28 359.248 349.16 358.648 349.93C358.048 350.69 357.183 351.285 356.053 351.715C354.923 352.145 353.558 352.36 351.958 352.36ZM362.856 349.615C362.856 349.145 363.021 348.74 363.351 348.4C363.681 348.06 364.096 347.89 364.596 347.89C365.096 347.89 365.521 348.06 365.871 348.4C366.221 348.74 366.396 349.145 366.396 349.615C366.396 350.085 366.221 350.48 365.871 350.8C365.521 351.12 365.096 351.28 364.596 351.28C364.096 351.28 363.681 351.12 363.351 350.8C363.021 350.47 362.856 350.075 362.856 349.615ZM362.856 340.435C362.856 339.965 363.021 339.56 363.351 339.22C363.681 338.88 364.096 338.71 364.596 338.71C365.096 338.71 365.521 338.88 365.871 339.22C366.221 339.56 366.396 339.965 366.396 340.435C366.396 340.905 366.221 341.3 365.871 341.62C365.521 341.94 365.096 342.1 364.596 342.1C364.096 342.1 363.681 341.94 363.351 341.62C363.021 341.29 362.856 340.895 362.856 340.435ZM377 352.36C375.52 352.36 374.225 352 373.115 351.28C372.015 350.56 371.155 349.475 370.535 348.025C369.925 346.575 369.62 344.76 369.62 342.58C369.62 340.4 369.925 338.59 370.535 337.15C371.155 335.7 372.015 334.62 373.115 333.91C374.225 333.19 375.52 332.83 377 332.83C378.47 332.83 379.76 333.19 380.87 333.91C381.98 334.62 382.84 335.7 383.45 337.15C384.07 338.59 384.38 340.4 384.38 342.58C384.38 344.76 384.07 346.575 383.45 348.025C382.84 349.475 381.98 350.56 380.87 351.28C379.76 352 378.47 352.36 377 352.36ZM377 350.2C378.62 350.2 379.85 349.54 380.69 348.22C381.53 346.89 381.95 345.01 381.95 342.58C381.95 340.15 381.53 338.275 380.69 336.955C379.85 335.625 378.62 334.96 377 334.96C375.4 334.96 374.175 335.625 373.325 336.955C372.475 338.275 372.05 340.15 372.05 342.58C372.05 345.01 372.475 346.89 373.325 348.22C374.175 349.54 375.4 350.2 377 350.2ZM394.812 352.36C393.332 352.36 392.037 352 390.927 351.28C389.827 350.56 388.967 349.475 388.347 348.025C387.737 346.575 387.432 344.76 387.432 342.58C387.432 340.4 387.737 338.59 388.347 337.15C388.967 335.7 389.827 334.62 390.927 333.91C392.037 333.19 393.332 332.83 394.812 332.83C396.282 332.83 397.572 333.19 398.682 333.91C399.792 334.62 400.652 335.7 401.262 337.15C401.882 338.59 402.192 340.4 402.192 342.58C402.192 344.76 401.882 346.575 401.262 348.025C400.652 349.475 399.792 350.56 398.682 351.28C397.572 352 396.282 352.36 394.812 352.36ZM394.812 350.2C396.432 350.2 397.662 349.54 398.502 348.22C399.342 346.89 399.762 345.01 399.762 342.58C399.762 340.15 399.342 338.275 398.502 336.955C397.662 335.625 396.432 334.96 394.812 334.96C393.212 334.96 391.987 335.625 391.137 336.955C390.287 338.275 389.862 340.15 389.862 342.58C389.862 345.01 390.287 346.89 391.137 348.22C391.987 349.54 393.212 350.2 394.812 350.2ZM411.974 344.29V342.25H420.134V344.29H411.974ZM430.303 352V349.21C430.303 348.12 430.478 347.21 430.828 346.48C431.188 345.75 431.688 345.145 432.328 344.665C432.978 344.185 433.743 343.77 434.623 343.42L438.343 341.95C439.303 341.56 440.023 341.06 440.503 340.45C440.983 339.84 441.223 339.08 441.223 338.17C441.223 337.21 440.888 336.425 440.218 335.815C439.558 335.205 438.633 334.9 437.443 334.9C436.263 334.9 435.293 335.155 434.533 335.665C433.783 336.165 433.353 336.92 433.243 337.93H430.633C430.703 336.84 431.023 335.915 431.593 335.155C432.173 334.395 432.958 333.82 433.948 333.43C434.938 333.03 436.093 332.83 437.413 332.83C438.623 332.83 439.708 333.065 440.668 333.535C441.628 334.005 442.383 334.655 442.933 335.485C443.493 336.305 443.773 337.25 443.773 338.32C443.773 339.29 443.593 340.135 443.233 340.855C442.873 341.575 442.358 342.195 441.688 342.715C441.028 343.235 440.243 343.68 439.333 344.05L435.523 345.58C434.563 345.95 433.843 346.395 433.363 346.915C432.883 347.435 432.643 348.11 432.643 348.94V349.84H443.593V352H430.303ZM450.736 333.1H452.626V352H450.286V335.86C449.806 336.19 449.301 336.445 448.771 336.625C448.251 336.795 447.726 336.89 447.196 336.91V334.63C447.826 334.54 448.436 334.375 449.026 334.135C449.626 333.895 450.196 333.55 450.736 333.1ZM457.338 349.615C457.338 349.145 457.503 348.74 457.833 348.4C458.163 348.06 458.578 347.89 459.078 347.89C459.578 347.89 460.003 348.06 460.353 348.4C460.703 348.74 460.878 349.145 460.878 349.615C460.878 350.085 460.703 350.48 460.353 350.8C460.003 351.12 459.578 351.28 459.078 351.28C458.578 351.28 458.163 351.12 457.833 350.8C457.503 350.47 457.338 350.075 457.338 349.615ZM457.338 340.435C457.338 339.965 457.503 339.56 457.833 339.22C458.163 338.88 458.578 338.71 459.078 338.71C459.578 338.71 460.003 338.88 460.353 339.22C460.703 339.56 460.878 339.965 460.878 340.435C460.878 340.905 460.703 341.3 460.353 341.62C460.003 341.94 459.578 342.1 459.078 342.1C458.578 342.1 458.163 341.94 457.833 341.62C457.503 341.29 457.338 340.895 457.338 340.435ZM471.482 352.36C470.002 352.36 468.707 352 467.597 351.28C466.497 350.56 465.637 349.475 465.017 348.025C464.407 346.575 464.102 344.76 464.102 342.58C464.102 340.4 464.407 338.59 465.017 337.15C465.637 335.7 466.497 334.62 467.597 333.91C468.707 333.19 470.002 332.83 471.482 332.83C472.952 332.83 474.242 333.19 475.352 333.91C476.462 334.62 477.322 335.7 477.932 337.15C478.552 338.59 478.862 340.4 478.862 342.58C478.862 344.76 478.552 346.575 477.932 348.025C477.322 349.475 476.462 350.56 475.352 351.28C474.242 352 472.952 352.36 471.482 352.36ZM471.482 350.2C473.102 350.2 474.332 349.54 475.172 348.22C476.012 346.89 476.432 345.01 476.432 342.58C476.432 340.15 476.012 338.275 475.172 336.955C474.332 335.625 473.102 334.96 471.482 334.96C469.882 334.96 468.657 335.625 467.807 336.955C466.957 338.275 466.532 340.15 466.532 342.58C466.532 345.01 466.957 346.89 467.807 348.22C468.657 349.54 469.882 350.2 471.482 350.2ZM489.295 352.36C487.815 352.36 486.52 352 485.41 351.28C484.31 350.56 483.45 349.475 482.83 348.025C482.22 346.575 481.915 344.76 481.915 342.58C481.915 340.4 482.22 338.59 482.83 337.15C483.45 335.7 484.31 334.62 485.41 333.91C486.52 333.19 487.815 332.83 489.295 332.83C490.765 332.83 492.055 333.19 493.165 333.91C494.275 334.62 495.135 335.7 495.745 337.15C496.365 338.59 496.675 340.4 496.675 342.58C496.675 344.76 496.365 346.575 495.745 348.025C495.135 349.475 494.275 350.56 493.165 351.28C492.055 352 490.765 352.36 489.295 352.36ZM489.295 350.2C490.915 350.2 492.145 349.54 492.985 348.22C493.825 346.89 494.245 345.01 494.245 342.58C494.245 340.15 493.825 338.275 492.985 336.955C492.145 335.625 490.915 334.96 489.295 334.96C487.695 334.96 486.47 335.625 485.62 336.955C484.77 338.275 484.345 340.15 484.345 342.58C484.345 345.01 484.77 346.89 485.62 348.22C486.47 349.54 487.695 350.2 489.295 350.2Z" fill="black"/>
<path d="M179.4 110.04H184.68L190.96 131.84H189.76L195.96 111.76H199.16L205.6 131.52H204.52L211.12 110.04H216.44L207.52 136H202.56L197.48 120.68H197.92L192.84 136H187.88L179.4 110.04ZM230.492 136.56C228.185 136.56 226.145 136.053 224.372 135.04C222.612 134.027 221.232 132.513 220.232 130.5C219.232 128.487 218.732 125.987 218.732 123C218.732 119.96 219.232 117.447 220.232 115.46C221.232 113.46 222.612 111.973 224.372 111C226.145 110.013 228.185 109.52 230.492 109.52C232.812 109.52 234.858 110.027 236.632 111.04C238.405 112.04 239.792 113.54 240.792 115.54C241.792 117.54 242.292 120.027 242.292 123C242.292 126.027 241.792 128.547 240.792 130.56C239.792 132.573 238.405 134.08 236.632 135.08C234.858 136.067 232.812 136.56 230.492 136.56ZM230.492 132.28C232.612 132.28 234.292 131.48 235.532 129.88C236.785 128.28 237.412 125.973 237.412 122.96C237.412 120.053 236.785 117.793 235.532 116.18C234.292 114.567 232.612 113.76 230.492 113.76C228.412 113.76 226.745 114.573 225.492 116.2C224.238 117.813 223.612 120.08 223.612 123C223.612 126 224.238 128.3 225.492 129.9C226.745 131.487 228.412 132.28 230.492 132.28ZM247.876 136V110.04H257.476C260.583 110.04 262.963 110.767 264.616 112.22C266.283 113.673 267.116 115.6 267.116 118C267.116 120.36 266.283 122.267 264.616 123.72C262.963 125.16 260.583 125.88 257.476 125.88H252.596V136H247.876ZM261.916 136L255.036 123.84H260.076L268.076 136H261.916ZM252.596 122.72H256.996C258.73 122.72 260.043 122.327 260.936 121.54C261.83 120.74 262.276 119.707 262.276 118.44C262.276 117.147 261.87 116.107 261.056 115.32C260.243 114.52 259.05 114.12 257.476 114.12H252.596V122.72ZM288.618 110.04H295.098L277.978 127.56V121.12L288.618 110.04ZM282.858 120.76L295.818 136H289.738L279.578 123.84L282.858 120.76ZM273.618 110.04H278.378V136H273.618V110.04ZM299.79 136V110.04H304.51V136H299.79ZM311.898 110.04H317.058L328.858 128.56H328.498V110.04H333.218V136H328.418L315.858 116.36H316.618V136H311.898V110.04ZM350.13 136.56C348.01 136.56 346.096 136 344.39 134.88C342.683 133.76 341.323 132.2 340.31 130.2C339.31 128.187 338.81 125.84 338.81 123.16C338.81 121.04 339.116 119.14 339.73 117.46C340.356 115.78 341.223 114.347 342.33 113.16C343.436 111.973 344.736 111.073 346.23 110.46C347.723 109.833 349.343 109.52 351.09 109.52C353.516 109.52 355.55 110.047 357.19 111.1C358.843 112.153 360.13 113.813 361.05 116.08L356.21 117.2C355.53 116.093 354.743 115.253 353.85 114.68C352.97 114.093 351.97 113.8 350.85 113.8C349.57 113.8 348.403 114.18 347.35 114.94C346.296 115.687 345.456 116.76 344.83 118.16C344.203 119.56 343.89 121.227 343.89 123.16C343.89 124.973 344.163 126.56 344.71 127.92C345.27 129.28 346.05 130.34 347.05 131.1C348.05 131.86 349.21 132.24 350.53 132.24C351.65 132.24 352.65 131.993 353.53 131.5C354.423 130.993 355.123 130.273 355.63 129.34C356.15 128.407 356.41 127.28 356.41 125.96H357.45C357.45 128.12 357.19 129.993 356.67 131.58C356.163 133.167 355.37 134.393 354.29 135.26C353.21 136.127 351.823 136.56 350.13 136.56ZM357.09 136L356.41 130.28V125.8L350.57 125.68V122.68H360.93V136H357.09ZM208.033 157.04H212.753V167.88H224.073V157.04H228.793V183H224.073V172H212.753V183H208.033V157.04ZM246.156 183.56C243.849 183.56 241.809 183.053 240.036 182.04C238.276 181.027 236.896 179.513 235.896 177.5C234.896 175.487 234.396 172.987 234.396 170C234.396 166.96 234.896 164.447 235.896 162.46C236.896 160.46 238.276 158.973 240.036 158C241.809 157.013 243.849 156.52 246.156 156.52C248.476 156.52 250.522 157.027 252.296 158.04C254.069 159.04 255.456 160.54 256.456 162.54C257.456 164.54 257.956 167.027 257.956 170C257.956 173.027 257.456 175.547 256.456 177.56C255.456 179.573 254.069 181.08 252.296 182.08C250.522 183.067 248.476 183.56 246.156 183.56ZM246.156 179.28C248.276 179.28 249.956 178.48 251.196 176.88C252.449 175.28 253.076 172.973 253.076 169.96C253.076 167.053 252.449 164.793 251.196 163.18C249.956 161.567 248.276 160.76 246.156 160.76C244.076 160.76 242.409 161.573 241.156 163.2C239.902 164.813 239.276 167.08 239.276 170C239.276 173 239.902 175.3 241.156 176.9C242.409 178.487 244.076 179.28 246.156 179.28ZM263.14 157.04H267.86V173.2C267.86 175.333 268.4 176.873 269.48 177.82C270.574 178.767 271.967 179.24 273.66 179.24C275.367 179.24 276.76 178.767 277.84 177.82C278.92 176.873 279.46 175.333 279.46 173.2V157.04H284.18V173.2C284.18 175.387 283.76 177.253 282.92 178.8C282.08 180.347 280.874 181.527 279.3 182.34C277.74 183.153 275.86 183.56 273.66 183.56C271.46 183.56 269.574 183.153 268 182.34C266.44 181.527 265.24 180.347 264.4 178.8C263.56 177.253 263.14 175.387 263.14 173.2V157.04ZM291.158 183V157.04H300.758C303.864 157.04 306.244 157.767 307.898 159.22C309.564 160.673 310.398 162.6 310.398 165C310.398 167.36 309.564 169.267 307.898 170.72C306.244 172.16 303.864 172.88 300.758 172.88H295.878V183H291.158ZM305.198 183L298.318 170.84H303.358L311.358 183H305.198ZM295.878 169.72H300.278C302.011 169.72 303.324 169.327 304.218 168.54C305.111 167.74 305.558 166.707 305.558 165.44C305.558 164.147 305.151 163.107 304.338 162.32C303.524 161.52 302.331 161.12 300.758 161.12H295.878V169.72ZM325.94 183.56C324.14 183.56 322.48 183.247 320.96 182.62C319.453 181.993 318.226 181.04 317.28 179.76C316.346 178.48 315.846 176.853 315.78 174.88H320.42C320.42 175.88 320.666 176.7 321.16 177.34C321.653 177.98 322.313 178.46 323.14 178.78C323.98 179.087 324.9 179.24 325.9 179.24C326.86 179.24 327.713 179.113 328.46 178.86C329.22 178.607 329.813 178.247 330.24 177.78C330.68 177.3 330.9 176.733 330.9 176.08C330.9 175.213 330.633 174.533 330.1 174.04C329.58 173.547 328.74 173.093 327.58 172.68L322.46 170.64C320.46 169.853 318.926 168.94 317.86 167.9C316.793 166.86 316.26 165.427 316.26 163.6C316.26 161.493 317.093 159.787 318.76 158.48C320.426 157.173 322.753 156.52 325.74 156.52C328.646 156.52 330.893 157.2 332.48 158.56C334.066 159.907 334.966 161.787 335.18 164.2H330.54C330.366 163.173 329.9 162.353 329.14 161.74C328.38 161.113 327.246 160.8 325.74 160.8C324.406 160.8 323.353 161.08 322.58 161.64C321.806 162.187 321.42 162.88 321.42 163.72C321.42 164.44 321.66 165.013 322.14 165.44C322.633 165.853 323.393 166.253 324.42 166.64L330.1 168.84C332.02 169.587 333.493 170.527 334.52 171.66C335.546 172.793 336.06 174.213 336.06 175.92C336.06 177.48 335.666 178.833 334.88 179.98C334.093 181.113 332.946 181.993 331.44 182.62C329.933 183.247 328.1 183.56 325.94 183.56Z" fill="black"/>
</svg>
