<svg width="1753" height="776" viewBox="0 0 1753 776" fill="none" xmlns="http://www.w3.org/2000/svg">
<path d="M66.8494 550.471L116.137 529.123L118.857 533.9L69.5687 555.247L66.8494 550.471ZM94.3831 490.908L64.2627 503.954L67.5258 509.686L75.1777 511.136L81.9759 523.078L68.2848 529.008L61.4866 517.066L64.7876 510.872L61.5245 505.14L50.5716 509.884L69.6065 543.322L107.942 526.718L98.4241 509.999L103.901 507.627C106.913 506.323 108.153 503.106 106.658 500.479L102.579 493.313C101.083 490.686 97.3951 489.604 94.3831 490.908ZM101.181 502.851L95.7048 505.222L91.6259 498.057L97.1024 495.685L101.181 502.851Z" fill="black"/>
<path d="M579.44 65.8547L576.799 58.0088L586.139 58.709L579.44 65.8547ZM572.161 48.7386L590.197 43.7174L589.489 55.1361L576.477 54.798L572.161 48.7386ZM548.843 38.068L539.503 37.3678L546.202 30.2221L548.843 38.068ZM560.18 40.1925L552.515 37.7059L549.552 26.6493L562.242 23.7766L560.18 40.1925ZM585.238 31.2364L589.875 40.5066L568.167 45.8899L564.174 43.0412L565.913 23.4145L577.25 25.539L585.238 31.2364Z" fill="black"/>
<path d="M119.333 329.071L113.197 316.006L129.36 316.748L119.333 329.071ZM103.344 300.64L133.252 291.36L134.374 310.586L111.987 310.624L103.344 300.64ZM61.1639 283.792L45.0002 283.05L55.0279 270.727L61.1639 283.792ZM81.0442 286.834L67.3875 283.012L60.0418 264.565L81.2194 259.145L81.0442 286.834ZM122.19 270.612L132.042 285.978L95.9107 296.038L88.4775 291.436L87.4429 258.366L107.323 261.408L122.19 270.612Z" fill="black"/>
<path d="M1155.94 214.71L1153.3 206.865L1162.64 207.565L1155.94 214.71ZM1148.66 197.594L1166.69 192.573L1165.99 203.992L1152.97 203.654L1148.66 197.594ZM1125.34 186.924L1116 186.224L1122.7 179.078L1125.34 186.924ZM1136.68 189.048L1129.01 186.562L1126.05 175.505L1138.74 172.632L1136.68 189.048ZM1161.73 180.092L1166.37 189.362L1144.66 194.746L1140.67 191.897L1142.41 172.27L1153.75 174.395L1161.73 180.092Z" fill="black"/>
<path d="M1723.66 186.339L1720.82 178.547L1730.18 179.063L1723.66 186.339ZM1715.94 169.371L1733.85 163.995L1733.43 175.425L1720.42 175.344L1715.94 169.371ZM1692.36 159.163L1683 158.647L1689.51 151.371L1692.36 159.163ZM1703.74 161.063L1696.02 158.728L1692.77 147.733L1705.38 144.611L1703.74 161.063ZM1728.56 151.615L1733.44 160.792L1711.88 166.602L1707.81 163.832L1709.04 144.176L1720.43 146.077L1728.56 151.615Z" fill="black"/>
<path d="M613.783 639.307L607.31 626.366L623.489 626.789L613.783 639.307ZM597.062 611.199L626.722 601.331L628.342 620.53L605.961 621.01L597.062 611.199ZM554.456 595.186L538.277 594.763L547.983 582.246L554.456 595.186ZM574.41 597.836L560.658 594.284L552.836 575.987L573.868 570.151L574.41 597.836ZM615.125 580.807L625.373 595.975L589.511 606.745L581.961 602.29L580.07 569.249L600.024 571.898L615.125 580.807Z" fill="black"/>
<path d="M1358.78 620.928L1349.48 619.91L1353.94 612.719L1358.78 620.928ZM1337.88 619.921L1339.8 603.492L1351.52 608.615L1345.98 618.887L1337.88 619.921ZM1317.36 634.314L1312.9 641.506L1308.06 633.297L1317.36 634.314ZM1324.12 626.094L1318.45 631.233L1305.64 629.192L1307.68 617.896L1324.12 626.094ZM1324.7 602.479L1336.3 602.469L1333.3 621.979L1328.71 624.037L1308.77 614.815L1315.53 606.595L1324.7 602.479Z" fill="black"/>
<path d="M1617 617.679L1623.07 612.604L1669.62 654.949L1663.55 660.024L1617 617.679ZM1629.14 607.528L1671.61 572L1718.16 614.345C1719.76 615.801 1720.54 617.544 1720.49 619.574C1720.44 621.605 1719.58 623.318 1717.92 624.714L1708.81 632.327C1707.14 633.723 1705.15 634.399 1702.82 634.357C1700.49 634.314 1698.53 633.565 1696.93 632.109L1691.11 626.816L1669.87 644.58L1629.14 607.528ZM1697.18 621.741L1702.99 627.034L1712.1 619.42L1706.28 614.127L1697.18 621.741ZM1641.02 607.746L1670.12 634.212L1700.46 608.834L1683 592.955L1681.79 593.97L1682.75 603.323L1667.58 616.012L1653.04 602.779L1668.21 590.091L1678.88 591.323L1680.09 590.308L1671.36 582.369L1641.02 607.746Z" fill="black"/>
<path d="M0.000136834 64.8952L4.39671 58.9068L59.3199 89.5864L54.9233 95.5748L0.000136834 64.8952ZM22.5241 60.5883C18.7481 58.479 16.3767 55.5007 15.4097 51.6532C14.4427 47.8057 15.1683 44.2352 17.5864 40.9415L39.5693 10.9995L56.7328 20.5869L51.4569 27.773L42.0906 28.6631C41.9029 28.699 41.3809 28.9704 40.5247 29.4773L31.182 42.2027C30.8889 42.6019 30.804 43.0471 30.9275 43.5383C31.0509 44.0294 31.3415 44.4029 31.7992 44.6585L45.53 52.3284C45.9876 52.5841 46.498 52.6581 47.0611 52.5504C47.6242 52.4427 48.0523 52.1893 48.3454 51.7901L57.6882 39.0647C57.7615 38.9649 57.8257 38.4378 57.881 37.4835L54.8896 29.6905L60.1655 22.5044L94.4925 41.6792C96.3805 42.7338 97.5671 44.2228 98.0525 46.1462C98.5341 48.0703 98.1703 49.8557 96.9613 51.5025L90.3664 60.4851C89.1574 62.132 87.451 63.166 85.2474 63.5874C83.0401 64.0095 80.9924 63.6932 79.1045 62.6386L72.2391 58.8036L65.6442 67.7862C63.2261 71.0799 59.8116 73.1484 55.4006 73.9918C50.9897 74.8353 46.8962 74.2024 43.1203 72.0931L22.5241 60.5883ZM76.6356 52.8152L83.501 56.6502L90.0959 47.6676L83.2305 43.8326L76.6356 52.8152Z" fill="black"/>
<path d="M217.707 722.199L223.868 718.049L265.193 765.484L259.031 769.635L217.707 722.199ZM240.361 725.758C237.52 722.496 236.294 718.892 236.685 714.944C237.075 710.996 238.964 707.881 242.353 705.598L273.161 684.846L286.075 699.67L278.681 704.65L269.565 702.323C269.376 702.293 268.793 702.372 267.816 702.56L254.723 711.379C254.312 711.656 254.082 712.046 254.032 712.55C253.982 713.054 254.129 713.504 254.474 713.899L264.805 725.758C265.149 726.153 265.604 726.395 266.171 726.484C266.737 726.573 267.226 726.479 267.636 726.203L280.73 717.383C280.833 717.314 281.071 716.84 281.446 715.96L281.264 707.615L288.658 702.634L314.485 732.281C315.906 733.912 316.52 735.714 316.327 737.689C316.13 739.662 315.184 741.22 313.489 742.361L304.247 748.587C302.553 749.728 300.597 750.125 298.381 749.776C296.161 749.428 294.34 748.438 292.92 746.808L287.754 740.878L278.512 747.104C275.123 749.386 271.21 750.179 266.774 749.483C262.337 748.786 258.699 746.807 255.858 743.546L240.361 725.758ZM293.916 736.728L299.081 742.657L308.324 736.432L303.158 730.502L293.916 736.728Z" fill="black"/>
<path d="M901 718.896L905.397 712.907L960.32 743.587L955.923 749.575L901 718.896ZM923.524 714.589C919.748 712.48 917.377 709.501 916.41 705.654C915.443 701.806 916.168 698.236 918.586 694.942L940.569 665L957.733 674.587L952.457 681.773L943.091 682.664C942.903 682.7 942.381 682.971 941.525 683.478L932.182 696.203C931.889 696.602 931.804 697.048 931.927 697.539C932.051 698.03 932.341 698.403 932.799 698.659L946.53 706.329C946.988 706.585 947.498 706.659 948.061 706.551C948.624 706.443 949.052 706.19 949.345 705.791L958.688 693.065C958.761 692.965 958.826 692.438 958.881 691.484L955.89 683.691L961.166 676.505L995.492 695.68C997.38 696.734 998.567 698.223 999.052 700.147C999.534 702.071 999.17 703.856 997.961 705.503L991.366 714.486C990.157 716.132 988.451 717.167 986.247 717.588C984.04 718.01 981.992 717.694 980.104 716.639L973.239 712.804L966.644 721.787C964.226 725.08 960.812 727.149 956.401 727.992C951.99 728.836 947.896 728.203 944.12 726.094L923.524 714.589ZM977.636 706.816L984.501 710.651L991.096 701.668L984.231 697.833L977.636 706.816Z" fill="black"/>
<path d="M1638.9 335.955L1720.54 363.918L1717.61 370.412L1635.98 342.45L1638.9 335.955ZM1743.93 311.962L1694.04 294.874L1690.53 302.667L1697.26 310.97L1689.95 327.206L1667.28 319.439L1674.59 303.202L1686 301.114L1689.51 293.32L1671.37 287.106L1650.9 332.568L1714.39 354.316L1724.63 331.586L1733.7 334.693C1738.68 336.402 1744.08 334.877 1745.69 331.305L1750.08 321.564C1751.68 317.992 1748.92 313.671 1743.93 311.962ZM1736.62 328.198L1727.55 325.091L1731.93 315.35L1741.01 318.457L1736.62 328.198Z" fill="black"/>
<path d="M263.817 360.776L323.9 338.773L326.627 344.439L266.545 366.442L263.817 360.776ZM302.083 293.445L265.365 306.891L268.638 313.69L277.496 315.778L284.314 329.943L267.624 336.055L260.806 321.89L265.3 314.912L262.027 308.113L248.676 313.002L267.766 352.665L314.497 335.552L304.952 315.721L311.628 313.276C315.299 311.931 317.076 308.281 315.576 305.165L311.486 296.666C309.986 293.55 305.754 292.1 302.083 293.445ZM308.9 307.61L302.225 310.055L298.134 301.555L304.81 299.111L308.9 307.61Z" fill="black"/>
<path d="M1295.46 60.1352L1351.28 44.9672L1353.21 50.3775L1297.39 65.5455L1295.46 60.1352ZM1335.82 1.68525L1286.2 15.1679L1295.86 42.2192C1298 48.1975 1305.28 51.5313 1312.13 49.669L1330.74 44.613C1337.59 42.7507 1341.42 36.4001 1339.28 30.4218L1336.38 22.3064L1342.59 20.6211C1346.03 19.6857 1347.93 16.5282 1346.86 13.5255L1343.96 5.41016C1342.89 2.40747 1339.27 0.749885 1335.82 1.68525ZM1307.39 22.1112L1313.21 24.0933L1316.61 33.6154L1307.3 36.1434L1303.9 26.6213L1307.39 22.1112ZM1333.08 32.1071C1334.14 35.0828 1332.22 38.2758 1328.81 39.2027L1310.2 44.2587C1306.79 45.1857 1303.13 43.5095 1302.07 40.5338L1294.34 18.8928L1303.64 16.3648L1304.99 20.152L1300.78 25.5997C1300.5 25.9443 1300.42 26.409 1300.57 26.8148L1304.68 38.3386C1304.95 39.096 1305.85 39.5058 1306.72 39.2698L1319.12 35.8992C1319.99 35.6632 1320.46 34.8827 1320.19 34.1253L1316.08 22.6014C1315.93 22.1957 1315.57 21.8489 1315.11 21.7065L1308.09 19.3093L1306.74 15.5222L1325.35 10.4662L1333.08 32.1071ZM1340.65 15.2109L1334.45 16.8962L1331.55 8.78083L1337.76 7.09549L1340.65 15.2109Z" fill="black"/>
<path opacity="0.3" d="M1308.1 19.3093L1315.11 21.7065C1315.57 21.8489 1315.93 22.1956 1316.08 22.6014L1320.19 34.1252C1320.46 34.8827 1319.99 35.6632 1319.12 35.8991L1306.72 39.2698C1305.85 39.5057 1304.95 39.096 1304.68 38.3386L1300.57 26.8148C1300.42 26.409 1300.5 25.9442 1300.78 25.5996L1304.99 20.152L1303.64 16.3648L1294.34 18.8928L1302.07 40.5338C1303.13 43.5094 1306.79 45.1856 1310.2 44.2587L1328.81 39.2027C1332.22 38.2758 1334.14 35.0828 1333.08 32.1071L1325.35 10.4661L1306.74 15.5222L1308.1 19.3093Z" fill="black"/>
</svg>
