<svg width="119" height="52" viewBox="0 0 119 52" fill="none" xmlns="http://www.w3.org/2000/svg">
<path d="M0.72 37L9.76 10.16H17.9L26.44 37H19.7L18.24 32.28H8.98L7.52 37H0.72ZM10.6 27.54H16.78L13.74 17.72L10.6 27.54ZM41.6684 37.64C40.5351 37.64 39.4751 37.3 38.4884 36.62C37.5151 35.9267 36.7284 34.8667 36.1284 33.44C35.5418 32 35.2484 30.1667 35.2484 27.94H36.9284C36.9284 28.6333 37.1084 29.2733 37.4684 29.86C37.8418 30.4467 38.3084 30.92 38.8684 31.28C39.4418 31.6267 40.0218 31.8 40.6084 31.8C41.4218 31.8 42.1151 31.5933 42.6884 31.18C43.2751 30.7667 43.7284 30.2 44.0484 29.48C44.3684 28.76 44.5284 27.9467 44.5284 27.04C44.5284 26.1733 44.3684 25.3933 44.0484 24.7C43.7418 24.0067 43.2951 23.46 42.7084 23.06C42.1218 22.66 41.4084 22.46 40.5684 22.46C39.9151 22.46 39.3084 22.6133 38.7484 22.92C38.2018 23.2267 37.7618 23.66 37.4284 24.22C37.0951 24.7667 36.9284 25.4133 36.9284 26.16H35.2484C35.2484 24.04 35.5151 22.28 36.0484 20.88C36.5951 19.4667 37.3818 18.4133 38.4084 17.72C39.4484 17.0133 40.7084 16.66 42.1884 16.66C43.8418 16.66 45.3218 17.0933 46.6284 17.96C47.9484 18.8267 48.9951 20.04 49.7684 21.6C50.5418 23.1467 50.9284 24.96 50.9284 27.04C50.9284 29.1467 50.5151 31 49.6884 32.6C48.8751 34.1867 47.7684 35.4267 46.3684 36.32C44.9818 37.2 43.4151 37.64 41.6684 37.64ZM30.5284 37V9.4H36.9284V31.86L34.5284 37H30.5284ZM64.3972 37.64C62.5705 37.64 60.8905 37.2667 59.3572 36.52C57.8372 35.76 56.6172 34.6133 55.6972 33.08C54.7905 31.5333 54.3372 29.5733 54.3372 27.2C54.3372 24.7467 54.7905 22.7467 55.6972 21.2C56.6172 19.6533 57.8372 18.5133 59.3572 17.78C60.8905 17.0333 62.5705 16.66 64.3972 16.66C66.1839 16.66 67.8305 17.0333 69.3372 17.78C70.8439 18.5133 72.0505 19.6533 72.9572 21.2C73.8772 22.7467 74.3372 24.7467 74.3372 27.2C74.3372 29.5733 73.8772 31.5333 72.9572 33.08C72.0505 34.6133 70.8439 35.76 69.3372 36.52C67.8305 37.2667 66.1839 37.64 64.3972 37.64ZM64.1572 32.06C64.7705 32.06 65.3639 31.9 65.9372 31.58C66.5239 31.26 67.0105 30.7467 67.3972 30.04C67.7839 29.32 67.9772 28.3733 67.9772 27.2C67.9772 25.3733 67.6505 24.0867 66.9972 23.34C66.3439 22.5933 65.5572 22.22 64.6372 22.22C64.0239 22.22 63.4105 22.38 62.7972 22.7C62.1972 23.02 61.6972 23.5467 61.2972 24.28C60.9105 25 60.7172 25.9733 60.7172 27.2C60.7172 28.9733 61.0572 30.2267 61.7372 30.96C62.4305 31.6933 63.2372 32.06 64.1572 32.06ZM92.3138 17.18H98.7138V37H92.3138V17.18ZM79.2538 17.18H85.6538V29.1C85.6538 30.0067 85.8804 30.68 86.3338 31.12C86.8004 31.5467 87.3938 31.76 88.1138 31.76C88.7671 31.76 89.4138 31.6 90.0538 31.28C90.7071 30.96 91.2471 30.4133 91.6738 29.64C92.1004 28.8667 92.3138 27.7933 92.3138 26.42H93.7138C93.7138 29.0333 93.4138 31.1467 92.8138 32.76C92.2138 34.36 91.3938 35.5267 90.3538 36.26C89.3271 36.9933 88.1604 37.36 86.8538 37.36C85.5338 37.36 84.2938 37.1333 83.1338 36.68C81.9738 36.2267 81.0338 35.4533 80.3138 34.36C79.6071 33.2667 79.2538 31.76 79.2538 29.84V17.18ZM112.73 37.64C111.477 37.64 110.304 37.4133 109.21 36.96C108.13 36.5067 107.257 35.8 106.59 34.84C105.937 33.8667 105.61 32.62 105.61 31.1V12.32H112.05V30.86C112.05 32.06 112.644 32.66 113.83 32.66C114.204 32.66 114.597 32.62 115.01 32.54C115.437 32.4467 115.93 32.3 116.49 32.1L117.43 36.56C116.617 36.8533 115.837 37.1067 115.09 37.32C114.357 37.5333 113.57 37.64 112.73 37.64ZM103.27 21.44V17.3H116.53V21.44H103.27Z" fill="black"/>
<line x1="17" y1="51.5" x2="109.087" y2="51.5" stroke="black"/>
</svg>
