<svg width="226" height="35" viewBox="0 0 226 35" fill="none" xmlns="http://www.w3.org/2000/svg">
<path d="M0.0560004 34V1.792H14C16.608 1.792 18.768 2.176 20.48 2.944C22.192 3.696 23.472 4.728 24.32 6.04C25.184 7.336 25.616 8.808 25.616 10.456C25.616 12.232 25.104 13.736 24.08 14.968C23.072 16.2 21.744 17.096 20.096 17.656C21.2 17.944 22.208 18.384 23.12 18.976C24.032 19.568 24.76 20.352 25.304 21.328C25.864 22.288 26.144 23.48 26.144 24.904C26.144 25.848 25.968 26.848 25.616 27.904C25.264 28.96 24.648 29.952 23.768 30.88C22.888 31.792 21.664 32.544 20.096 33.136C18.528 33.712 16.528 34 14.096 34H0.0560004ZM7.736 27.28H13.856C15.152 27.28 16.136 27.04 16.808 26.56C17.48 26.064 17.816 25.352 17.816 24.424C17.816 23.496 17.496 22.752 16.856 22.192C16.232 21.632 15.232 21.352 13.856 21.352H7.736V27.28ZM7.736 8.44V14.584H13.664C15.136 14.584 16.184 14.304 16.808 13.744C17.432 13.184 17.744 12.456 17.744 11.56C17.744 10.696 17.432 9.96 16.808 9.352C16.2 8.744 15.168 8.44 13.712 8.44H7.736ZM41.9495 34.768C39.9655 34.768 38.1015 34.256 36.3575 33.232C34.6135 32.208 33.1975 30.744 32.1095 28.84C31.0375 26.936 30.5015 24.68 30.5015 22.072C30.5015 19.464 31.0375 17.232 32.1095 15.376C33.1815 13.504 34.5895 12.072 36.3335 11.08C38.0775 10.088 39.9495 9.592 41.9495 9.592C43.9335 9.592 45.6615 9.992 47.1335 10.792C48.6055 11.576 49.7895 12.64 50.6855 13.984C51.5975 15.328 52.1895 16.848 52.4615 18.544C52.7495 20.224 52.6935 21.96 52.2935 23.752H36.5735V19.864H46.6775L45.5735 20.584C45.6215 20.024 45.5975 19.456 45.5015 18.88C45.4215 18.304 45.2535 17.776 44.9975 17.296C44.7415 16.8 44.3735 16.408 43.8935 16.12C43.4295 15.816 42.8295 15.664 42.0935 15.664C41.2775 15.664 40.5655 15.864 39.9575 16.264C39.3655 16.648 38.9015 17.216 38.5655 17.968C38.2455 18.704 38.0855 19.608 38.0855 20.68V23.704C38.0855 24.712 38.2295 25.584 38.5175 26.32C38.8055 27.056 39.2295 27.632 39.7895 28.048C40.3655 28.448 41.0855 28.648 41.9495 28.648C42.6535 28.648 43.2695 28.504 43.7975 28.216C44.3255 27.928 44.6935 27.472 44.9015 26.848H52.5335C52.2935 28.32 51.7015 29.656 50.7575 30.856C49.8295 32.056 48.6135 33.008 47.1095 33.712C45.6215 34.416 43.9015 34.768 41.9495 34.768ZM67.9344 34.768C65.6784 34.768 63.6864 34.472 61.9584 33.88C60.2304 33.272 58.8784 32.368 57.9024 31.168C56.9424 29.952 56.4704 28.424 56.4864 26.584H63.4224C63.4544 27.416 63.7744 27.992 64.3824 28.312C65.0064 28.632 65.8464 28.792 66.9024 28.792C67.5424 28.792 68.0704 28.712 68.4864 28.552C68.9024 28.392 69.2144 28.184 69.4224 27.928C69.6304 27.656 69.7344 27.368 69.7344 27.064C69.7344 26.664 69.5904 26.344 69.3024 26.104C69.0144 25.864 68.5664 25.624 67.9584 25.384L62.2224 23.152C60.5264 22.448 59.2144 21.56 58.2864 20.488C57.3744 19.4 56.9184 18.112 56.9184 16.624C56.9184 14.528 57.8864 12.832 59.8224 11.536C61.7584 10.24 64.4064 9.592 67.7664 9.592C70.9184 9.592 73.3424 10.328 75.0384 11.8C76.7344 13.272 77.5904 15.144 77.6064 17.416H70.5744C70.5744 16.904 70.3584 16.464 69.9264 16.096C69.4944 15.712 68.7744 15.52 67.7664 15.52C66.9344 15.52 66.2784 15.656 65.7984 15.928C65.3184 16.2 65.0784 16.56 65.0784 17.008C65.0784 17.616 65.5824 18.096 66.5904 18.448L73.1184 21.064C74.7344 21.704 76.0064 22.504 76.9344 23.464C77.8624 24.424 78.3264 25.624 78.3264 27.064C78.3264 28.376 77.8704 29.624 76.9584 30.808C76.0624 31.976 74.8304 32.928 73.2624 33.664C71.6944 34.4 69.9184 34.768 67.9344 34.768ZM92.9326 34.768C91.4286 34.768 90.0206 34.496 88.7086 33.952C87.4126 33.408 86.3646 32.56 85.5646 31.408C84.7806 30.24 84.3886 28.744 84.3886 26.92V4.384H92.1166V26.632C92.1166 28.072 92.8286 28.792 94.2526 28.792C94.7006 28.792 95.1726 28.744 95.6686 28.648C96.1806 28.536 96.7726 28.36 97.4446 28.12L98.5726 33.472C97.5966 33.824 96.6606 34.128 95.7646 34.384C94.8846 34.64 93.9406 34.768 92.9326 34.768ZM81.5806 15.328V10.36H97.4926V15.328H81.5806ZM127.089 34.768C124.897 34.768 122.881 34.32 121.041 33.424C119.217 32.512 117.753 31.136 116.649 29.296C115.561 27.44 115.017 25.088 115.017 22.24C115.017 19.296 115.561 16.896 116.649 15.04C117.753 13.184 119.217 11.816 121.041 10.936C122.881 10.04 124.897 9.592 127.089 9.592C129.233 9.592 131.209 10.04 133.017 10.936C134.825 11.816 136.273 13.184 137.361 15.04C138.465 16.896 139.017 19.296 139.017 22.24C139.017 25.088 138.465 27.44 137.361 29.296C136.273 31.136 134.825 32.512 133.017 33.424C131.209 34.32 129.233 34.768 127.089 34.768ZM126.801 28.072C127.537 28.072 128.249 27.88 128.937 27.496C129.641 27.112 130.225 26.496 130.689 25.648C131.153 24.784 131.385 23.648 131.385 22.24C131.385 20.048 130.993 18.504 130.209 17.608C129.425 16.712 128.481 16.264 127.377 16.264C126.641 16.264 125.905 16.456 125.169 16.84C124.449 17.224 123.849 17.856 123.369 18.736C122.905 19.6 122.673 20.768 122.673 22.24C122.673 24.368 123.081 25.872 123.897 26.752C124.729 27.632 125.697 28.072 126.801 28.072ZM146.621 34V8.296C146.621 6.44 146.989 4.936 147.725 3.784C148.461 2.632 149.421 1.792 150.605 1.264C151.789 0.719997 153.037 0.447997 154.349 0.447997C155.245 0.447997 156.189 0.511997 157.181 0.639997C158.173 0.751999 159.125 0.871999 160.037 0.999997L158.525 6.832C158.205 6.752 157.853 6.672 157.469 6.592C157.101 6.512 156.725 6.472 156.341 6.472C155.957 6.472 155.621 6.544 155.333 6.688C155.045 6.832 154.821 7.056 154.661 7.36C154.501 7.648 154.421 8.008 154.421 8.44V34H146.621ZM143.477 15.328V10.36H158.189V15.328H143.477ZM165.512 34V8.296C165.512 6.44 165.88 4.936 166.616 3.784C167.352 2.632 168.312 1.792 169.496 1.264C170.68 0.719997 171.928 0.447997 173.24 0.447997C174.136 0.447997 175.08 0.511997 176.072 0.639997C177.064 0.751999 178.016 0.871999 178.928 0.999997L177.416 6.832C177.096 6.752 176.744 6.672 176.36 6.592C175.992 6.512 175.616 6.472 175.232 6.472C174.848 6.472 174.512 6.544 174.224 6.688C173.936 6.832 173.712 7.056 173.552 7.36C173.392 7.648 173.312 8.008 173.312 8.44V34H165.512ZM162.368 15.328V10.36H177.08V15.328H162.368ZM192.418 34.768C190.434 34.768 188.57 34.256 186.826 33.232C185.082 32.208 183.666 30.744 182.578 28.84C181.506 26.936 180.97 24.68 180.97 22.072C180.97 19.464 181.506 17.232 182.578 15.376C183.65 13.504 185.058 12.072 186.802 11.08C188.546 10.088 190.418 9.592 192.418 9.592C194.402 9.592 196.13 9.992 197.602 10.792C199.074 11.576 200.258 12.64 201.154 13.984C202.066 15.328 202.658 16.848 202.93 18.544C203.218 20.224 203.162 21.96 202.762 23.752H187.042V19.864H197.146L196.042 20.584C196.09 20.024 196.066 19.456 195.97 18.88C195.89 18.304 195.722 17.776 195.466 17.296C195.21 16.8 194.842 16.408 194.362 16.12C193.898 15.816 193.298 15.664 192.562 15.664C191.746 15.664 191.034 15.864 190.426 16.264C189.834 16.648 189.37 17.216 189.034 17.968C188.714 18.704 188.554 19.608 188.554 20.68V23.704C188.554 24.712 188.698 25.584 188.986 26.32C189.274 27.056 189.698 27.632 190.258 28.048C190.834 28.448 191.554 28.648 192.418 28.648C193.122 28.648 193.738 28.504 194.266 28.216C194.794 27.928 195.162 27.472 195.37 26.848H203.002C202.762 28.32 202.17 29.656 201.226 30.856C200.298 32.056 199.082 33.008 197.578 33.712C196.09 34.416 194.37 34.768 192.418 34.768ZM209.259 34V10.216H216.939V34H209.259ZM215.307 23.92C215.307 20.704 215.715 18.064 216.531 16C217.347 13.936 218.379 12.408 219.627 11.416C220.875 10.424 222.147 9.928 223.443 9.928C223.699 9.928 223.955 9.944 224.211 9.976C224.467 9.992 224.707 10.024 224.931 10.072L225.003 17.8C224.603 17.752 224.195 17.72 223.779 17.704C223.363 17.672 222.971 17.656 222.603 17.656C221.483 17.656 220.491 17.864 219.627 18.28C218.779 18.696 218.115 19.36 217.635 20.272C217.171 21.184 216.939 22.4 216.939 23.92H215.307Z" fill="black"/>
</svg>
