<svg width="156" height="52" viewBox="0 0 156 52" fill="none" xmlns="http://www.w3.org/2000/svg">
<path d="M13.58 37.64C11.2333 37.64 9.16667 37.1133 7.38 36.06C5.60667 35.0067 4.22 33.44 3.22 31.36C2.22 29.28 1.72 26.7 1.72 23.62C1.72 20.5267 2.21333 17.94 3.2 15.86C4.2 13.78 5.59333 12.2133 7.38 11.16C9.16667 10.0933 11.2333 9.56 13.58 9.56C16.9667 9.56 19.5467 10.36 21.32 11.96C23.0933 13.56 24.1467 15.6333 24.48 18.18L17.68 19.36C17.3733 18.2133 16.8867 17.2667 16.22 16.52C15.5667 15.76 14.6867 15.38 13.58 15.38C12.5933 15.38 11.72 15.68 10.96 16.28C10.2133 16.8667 9.63333 17.7667 9.22 18.98C8.80667 20.1933 8.6 21.74 8.6 23.62C8.6 25.46 8.81333 26.9867 9.24 28.2C9.66667 29.4 10.2533 30.2933 11 30.88C11.76 31.4667 12.62 31.76 13.58 31.76C14.9533 31.76 15.98 31.4 16.66 30.68C17.34 29.9467 17.68 29.06 17.68 28.02H24.44C24.44 30.0867 24.02 31.84 23.18 33.28C22.3533 34.7067 21.1333 35.7933 19.52 36.54C17.9067 37.2733 15.9267 37.64 13.58 37.64ZM37.9909 37.64C36.1643 37.64 34.4843 37.2667 32.9509 36.52C31.4309 35.76 30.2109 34.6133 29.2909 33.08C28.3843 31.5333 27.9309 29.5733 27.9309 27.2C27.9309 24.7467 28.3843 22.7467 29.2909 21.2C30.2109 19.6533 31.4309 18.5133 32.9509 17.78C34.4843 17.0333 36.1643 16.66 37.9909 16.66C39.7776 16.66 41.4243 17.0333 42.9309 17.78C44.4376 18.5133 45.6443 19.6533 46.5509 21.2C47.4709 22.7467 47.9309 24.7467 47.9309 27.2C47.9309 29.5733 47.4709 31.5333 46.5509 33.08C45.6443 34.6133 44.4376 35.76 42.9309 36.52C41.4243 37.2667 39.7776 37.64 37.9909 37.64ZM37.7509 32.06C38.3643 32.06 38.9576 31.9 39.5309 31.58C40.1176 31.26 40.6043 30.7467 40.9909 30.04C41.3776 29.32 41.5709 28.3733 41.5709 27.2C41.5709 25.3733 41.2443 24.0867 40.5909 23.34C39.9376 22.5933 39.1509 22.22 38.2309 22.22C37.6176 22.22 37.0043 22.38 36.3909 22.7C35.7909 23.02 35.2909 23.5467 34.8909 24.28C34.5043 25 34.3109 25.9733 34.3109 27.2C34.3109 28.9733 34.6509 30.2267 35.3309 30.96C36.0243 31.6933 36.8309 32.06 37.7509 32.06ZM66.1075 37V25.52C66.1075 24.48 65.8542 23.7133 65.3475 23.22C64.8408 22.7133 64.2275 22.46 63.5075 22.46C62.7742 22.46 62.1008 22.6667 61.4875 23.08C60.8742 23.4933 60.3808 24.16 60.0075 25.08C59.6475 25.9867 59.4675 27.1933 59.4675 28.7H57.5275C57.5275 25.8733 57.8608 23.5733 58.5275 21.8C59.2075 20.0267 60.1275 18.7267 61.2875 17.9C62.4608 17.0733 63.7875 16.66 65.2675 16.66C66.9608 16.66 68.3408 17.04 69.4075 17.8C70.4875 18.56 71.2808 19.6067 71.7875 20.94C72.2942 22.2733 72.5475 23.8 72.5475 25.52V37H66.1075ZM53.0675 37V17.3H58.7075L59.4675 20.56V37H53.0675ZM86.0897 37.64C84.8364 37.64 83.663 37.4133 82.5697 36.96C81.4897 36.5067 80.6164 35.8 79.9497 34.84C79.2964 33.8667 78.9697 32.62 78.9697 31.1V12.32H85.4097V30.86C85.4097 32.06 86.003 32.66 87.1897 32.66C87.563 32.66 87.9564 32.62 88.3697 32.54C88.7964 32.4467 89.2897 32.3 89.8497 32.1L90.7897 36.56C89.9764 36.8533 89.1964 37.1067 88.4497 37.32C87.7164 37.5333 86.9297 37.64 86.0897 37.64ZM76.6297 21.44V17.3H89.8897V21.44H76.6297ZM108.292 37L107.472 31.74V24.36C107.472 23.3733 107.292 22.6067 106.932 22.06C106.572 21.5133 105.806 21.24 104.632 21.24C103.939 21.24 103.372 21.3467 102.932 21.56C102.506 21.76 102.186 22.0333 101.972 22.38C101.772 22.7133 101.672 23.08 101.672 23.48H94.7522C94.7522 21.9333 95.1189 20.66 95.8522 19.66C96.5855 18.6467 97.6855 17.8933 99.1522 17.4C100.619 16.9067 102.446 16.66 104.632 16.66C106.539 16.66 108.179 16.9533 109.552 17.54C110.939 18.1267 112.006 19.0067 112.752 20.18C113.499 21.3533 113.872 22.8267 113.872 24.6V37H108.292ZM102.092 37.64C100.332 37.64 98.8455 37.3467 97.6322 36.76C96.4322 36.16 95.5255 35.3533 94.9122 34.34C94.2989 33.3267 93.9922 32.2067 93.9922 30.98C93.9922 29.82 94.3122 28.82 94.9522 27.98C95.5922 27.1267 96.5389 26.4667 97.7922 26C99.0589 25.5333 100.612 25.3 102.452 25.3C103.572 25.3 104.559 25.36 105.412 25.48C106.279 25.6 107.166 25.7467 108.072 25.92V29.52C107.406 29.3733 106.712 29.26 105.992 29.18C105.286 29.1 104.592 29.06 103.912 29.06C102.966 29.06 102.212 29.2133 101.652 29.52C101.106 29.8133 100.832 30.3 100.832 30.98C100.832 31.4733 101.079 31.9067 101.572 32.28C102.066 32.64 102.846 32.82 103.912 32.82C104.819 32.82 105.532 32.64 106.052 32.28C106.572 31.92 106.939 31.4667 107.152 30.92C107.366 30.3733 107.472 29.8333 107.472 29.3H108.972C108.972 30.82 108.732 32.2133 108.252 33.48C107.772 34.7467 107.026 35.76 106.012 36.52C104.999 37.2667 103.692 37.64 102.092 37.64ZM128.256 37.64C126.536 37.64 124.936 37.2067 123.456 36.34C121.989 35.4733 120.803 34.2533 119.896 32.68C119.003 31.1067 118.556 29.2667 118.556 27.16C118.556 24.8533 119.003 22.9267 119.896 21.38C120.803 19.82 121.989 18.6467 123.456 17.86C124.936 17.06 126.536 16.66 128.256 16.66C129.709 16.66 130.976 16.9067 132.056 17.4C133.149 17.8933 134.056 18.54 134.776 19.34C135.496 20.14 136.029 21.02 136.376 21.98C136.736 22.94 136.916 23.88 136.916 24.8L130.516 24.74C130.423 24.1667 130.189 23.6467 129.816 23.18C129.456 22.7 128.923 22.46 128.216 22.46C127.656 22.46 127.123 22.6067 126.616 22.9C126.123 23.18 125.716 23.66 125.396 24.34C125.089 25.02 124.936 25.96 124.936 27.16C124.936 28.3333 125.089 29.26 125.396 29.94C125.716 30.62 126.123 31.1 126.616 31.38C127.123 31.66 127.656 31.8 128.216 31.8C129.123 31.8 129.729 31.5933 130.036 31.18C130.356 30.7533 130.516 30.22 130.516 29.58H136.916C136.916 30.9933 136.603 32.3133 135.976 33.54C135.349 34.7667 134.396 35.76 133.116 36.52C131.849 37.2667 130.229 37.64 128.256 37.64ZM149.254 37.64C148 37.64 146.827 37.4133 145.734 36.96C144.654 36.5067 143.78 35.8 143.114 34.84C142.46 33.8667 142.134 32.62 142.134 31.1V12.32H148.574V30.86C148.574 32.06 149.167 32.66 150.354 32.66C150.727 32.66 151.12 32.62 151.534 32.54C151.96 32.4467 152.454 32.3 153.014 32.1L153.954 36.56C153.14 36.8533 152.36 37.1067 151.614 37.32C150.88 37.5333 150.094 37.64 149.254 37.64ZM139.794 21.44V17.3H153.054V21.44H139.794Z" fill="black"/>
<line x1="25.9978" y1="51.5" x2="145.002" y2="51.5" stroke="black"/>
</svg>
