<svg width="114" height="50" viewBox="0 0 114 50" fill="none" xmlns="http://www.w3.org/2000/svg">
<path d="M3.38 10.16H9.78V20.74H19.92V10.16H26.38V37H19.92V26.38H9.78V37H3.38V10.16ZM41.5456 37.64C39.719 37.64 38.039 37.2667 36.5056 36.52C34.9856 35.76 33.7656 34.6133 32.8456 33.08C31.939 31.5333 31.4856 29.5733 31.4856 27.2C31.4856 24.7467 31.939 22.7467 32.8456 21.2C33.7656 19.6533 34.9856 18.5133 36.5056 17.78C38.039 17.0333 39.719 16.66 41.5456 16.66C43.3323 16.66 44.979 17.0333 46.4856 17.78C47.9923 18.5133 49.199 19.6533 50.1056 21.2C51.0256 22.7467 51.4856 24.7467 51.4856 27.2C51.4856 29.5733 51.0256 31.5333 50.1056 33.08C49.199 34.6133 47.9923 35.76 46.4856 36.52C44.979 37.2667 43.3323 37.64 41.5456 37.64ZM41.3056 32.06C41.919 32.06 42.5123 31.9 43.0856 31.58C43.6723 31.26 44.159 30.7467 44.5456 30.04C44.9323 29.32 45.1256 28.3733 45.1256 27.2C45.1256 25.3733 44.799 24.0867 44.1456 23.34C43.4923 22.5933 42.7056 22.22 41.7856 22.22C41.1723 22.22 40.559 22.38 39.9456 22.7C39.3456 23.02 38.8456 23.5467 38.4456 24.28C38.059 25 37.8656 25.9733 37.8656 27.2C37.8656 28.9733 38.2056 30.2267 38.8856 30.96C39.579 31.6933 40.3856 32.06 41.3056 32.06ZM82.4422 37V25.52C82.4422 24.48 82.1889 23.7133 81.6822 23.22C81.1889 22.7133 80.5689 22.46 79.8222 22.46C78.7289 22.46 77.8355 22.9333 77.1422 23.88C76.4489 24.8133 76.1022 26.42 76.1022 28.7H73.5822C73.5822 26.34 73.7955 24.3867 74.2222 22.84C74.6489 21.28 75.2355 20.0533 75.9822 19.16C76.7289 18.2533 77.5822 17.6133 78.5422 17.24C79.5155 16.8533 80.5489 16.66 81.6422 16.66C83.3222 16.66 84.6955 17.04 85.7622 17.8C86.8422 18.56 87.6355 19.6067 88.1422 20.94C88.6622 22.2733 88.9222 23.8 88.9222 25.52V37H82.4422ZM56.6222 37V17.3H62.2622L62.9422 20.08C63.6222 18.8933 64.4689 18.0267 65.4822 17.48C66.5089 16.9333 67.6222 16.66 68.8222 16.66C70.5155 16.66 71.8955 17.04 72.9622 17.8C74.0422 18.56 74.8355 19.6067 75.3422 20.94C75.8489 22.2733 76.1022 23.8 76.1022 25.52V37H69.6622V25.52C69.6622 24.48 69.4089 23.7133 68.9022 23.22C68.3955 22.7133 67.7822 22.46 67.0622 22.46C66.3289 22.46 65.6555 22.6667 65.0422 23.08C64.4289 23.4933 63.9355 24.16 63.5622 25.08C63.2022 25.9867 63.0222 27.1933 63.0222 28.7V37H56.6222ZM103.018 37.64C101.364 37.64 99.8111 37.2133 98.3578 36.36C96.9045 35.5067 95.7245 34.2867 94.8178 32.7C93.9245 31.1133 93.4778 29.2333 93.4778 27.06C93.4778 24.8867 93.9245 23.0267 94.8178 21.48C95.7111 19.92 96.8845 18.7267 98.3378 17.9C99.7911 17.0733 101.351 16.66 103.018 16.66C104.671 16.66 106.111 16.9933 107.338 17.66C108.564 18.3133 109.551 19.2 110.298 20.32C111.058 21.44 111.551 22.7067 111.778 24.12C112.018 25.52 111.971 26.9667 111.638 28.46H98.5378V25.22H106.958L106.038 25.82C106.078 25.3533 106.058 24.88 105.978 24.4C105.911 23.92 105.771 23.48 105.558 23.08C105.344 22.6667 105.038 22.34 104.638 22.1C104.251 21.8467 103.751 21.72 103.138 21.72C102.458 21.72 101.864 21.8867 101.358 22.22C100.864 22.54 100.478 23.0133 100.198 23.64C99.9311 24.2533 99.7978 25.0067 99.7978 25.9V28.42C99.7978 29.26 99.9178 29.9867 100.158 30.6C100.398 31.2133 100.751 31.6933 101.218 32.04C101.698 32.3733 102.298 32.54 103.018 32.54C103.604 32.54 104.118 32.42 104.558 32.18C104.998 31.94 105.304 31.56 105.478 31.04H111.838C111.638 32.2667 111.144 33.38 110.358 34.38C109.584 35.38 108.571 36.1733 107.318 36.76C106.078 37.3467 104.644 37.64 103.018 37.64Z" fill="black"/>
<line x1="14.9972" y1="49.5" x2="103.003" y2="49.5" stroke="black"/>
</svg>
