<svg width="401" height="312" viewBox="0 0 401 312" fill="none" xmlns="http://www.w3.org/2000/svg">
<path d="M224.913 42.4294C226.167 39.3835 226.848 36.1227 226.848 32.5394C226.848 29.9594 226.454 27.4869 225.773 25.1935C223.444 25.731 221.007 26.0177 218.463 26.0177C213.253 26.0233 208.118 24.7762 203.49 22.3814C198.863 19.9867 194.879 16.5146 191.875 12.2577C188.661 20.0342 182.598 26.2893 174.926 29.7444C174.782 30.6402 174.782 31.6077 174.782 32.5394C174.782 35.9604 175.456 39.348 176.766 42.5086C178.075 45.6692 179.994 48.5411 182.413 50.9601C187.298 55.8456 193.924 58.5902 200.833 58.5902C204.596 58.5902 208.215 57.766 211.476 56.2969C213.518 60.2027 214.45 62.1377 214.378 62.1377C208.502 64.1085 203.951 65.076 200.833 65.076C192.162 65.076 183.884 61.6719 177.793 55.5444C174.087 51.8506 171.333 47.3135 169.766 42.3219H165V26.0177H168.906C170.089 20.2576 172.81 14.9252 176.779 10.5864C180.748 6.24765 185.818 3.06434 191.45 1.37426C197.083 -0.315811 203.068 -0.449605 208.77 0.987078C214.472 2.42376 219.679 5.37733 223.838 9.53438C228.354 14.0324 231.434 19.7687 232.689 26.0177H236.667V42.3219H236.452L223.695 54.0394L204.703 51.8894V45.9052H222.011L224.913 42.4294M191.051 31.7152C192.126 31.7152 193.165 32.1452 193.917 32.9335C194.674 33.696 195.098 34.7263 195.098 35.8002C195.098 36.8741 194.674 37.9045 193.917 38.6669C193.165 39.4194 192.126 39.8494 191.051 39.8494C188.793 39.8494 186.966 38.0577 186.966 35.8002C186.966 33.5427 188.793 31.7152 191.051 31.7152M210.58 31.7152C212.837 31.7152 214.629 33.5427 214.629 35.8002C214.629 38.0577 212.837 39.8494 210.58 39.8494C208.323 39.8494 206.495 38.0577 206.495 35.8002C206.495 34.7168 206.925 33.6778 207.691 32.9117C208.458 32.1456 209.497 31.7152 210.58 31.7152V31.7152Z" fill="black"/>
<path d="M89.8931 251.36C88.5031 251.36 87.3431 251.165 86.4131 250.775C85.4831 250.375 84.7781 249.83 84.2981 249.14C83.8181 248.44 83.5631 247.64 83.5331 246.74H85.7831C85.8331 247.65 86.1981 248.335 86.8781 248.795C87.5681 249.245 88.5031 249.47 89.6831 249.47C90.3031 249.47 90.8731 249.37 91.3931 249.17C91.9131 248.97 92.3281 248.695 92.6381 248.345C92.9481 247.995 93.1031 247.6 93.1031 247.16C93.1031 246.6 92.8981 246.16 92.4881 245.84C92.0781 245.52 91.4231 245.24 90.5231 245L87.7331 244.1C86.5231 243.72 85.5931 243.2 84.9431 242.54C84.3031 241.87 83.9831 241.07 83.9831 240.14C83.9831 238.98 84.4931 238.05 85.5131 237.35C86.5331 236.65 87.8731 236.3 89.5331 236.3C91.2931 236.3 92.6581 236.66 93.6281 237.38C94.5981 238.1 95.1031 239 95.1431 240.08H92.8331C92.7431 239.45 92.4231 238.975 91.8731 238.655C91.3231 238.325 90.5431 238.16 89.5331 238.16C88.5631 238.16 87.8031 238.38 87.2531 238.82C86.7131 239.25 86.4431 239.73 86.4431 240.26C86.4431 241.25 87.2931 241.98 88.9931 242.45L91.8431 243.41C93.0731 243.78 94.0131 244.265 94.6631 244.865C95.3231 245.465 95.6531 246.23 95.6531 247.16C95.6531 247.88 95.4181 248.56 94.9481 249.2C94.4781 249.84 93.8131 250.36 92.9531 250.76C92.0931 251.16 91.0731 251.36 89.8931 251.36ZM105.475 251.36C104.235 251.36 103.125 251.045 102.145 250.415C101.175 249.775 100.405 248.89 99.8348 247.76C99.2748 246.63 98.9948 245.33 98.9948 243.86C98.9948 242.29 99.2748 240.94 99.8348 239.81C100.395 238.68 101.16 237.815 102.13 237.215C103.11 236.605 104.225 236.3 105.475 236.3C106.565 236.3 107.495 236.52 108.265 236.96C109.035 237.4 109.655 237.995 110.125 238.745C110.595 239.495 110.92 240.345 111.1 241.295C111.29 242.235 111.345 243.21 111.265 244.22H100.885V242.78H109.72L109.03 243.23C109.06 242.64 109.025 242.05 108.925 241.46C108.835 240.87 108.66 240.33 108.4 239.84C108.14 239.34 107.775 238.94 107.305 238.64C106.835 238.34 106.235 238.19 105.505 238.19C104.585 238.19 103.815 238.425 103.195 238.895C102.575 239.365 102.11 239.985 101.8 240.755C101.49 241.515 101.335 242.34 101.335 243.23V244.19C101.335 245.19 101.485 246.085 101.785 246.875C102.095 247.665 102.555 248.29 103.165 248.75C103.775 249.21 104.545 249.44 105.475 249.44C106.405 249.44 107.17 249.215 107.77 248.765C108.37 248.315 108.735 247.65 108.865 246.77H111.295C111.145 247.72 110.805 248.54 110.275 249.23C109.745 249.91 109.07 250.435 108.25 250.805C107.43 251.175 106.505 251.36 105.475 251.36ZM115.905 251V236.63H118.245V251H115.905ZM117.525 244.52C117.525 242.7 117.7 241.19 118.05 239.99C118.4 238.78 118.91 237.88 119.58 237.29C120.26 236.69 121.085 236.39 122.055 236.39C122.375 236.39 122.665 236.415 122.925 236.465C123.195 236.505 123.465 236.57 123.735 236.66L123.585 238.97C123.305 238.88 123 238.805 122.67 238.745C122.34 238.675 122.045 238.64 121.785 238.64C120.935 238.64 120.25 238.885 119.73 239.375C119.21 239.855 118.83 240.535 118.59 241.415C118.36 242.295 118.245 243.33 118.245 244.52H117.525ZM124.255 236.66H126.925L131.425 248.99H131.095L135.595 236.66H138.265L132.535 251H129.985L124.255 236.66ZM143.153 233.27C142.673 233.27 142.293 233.135 142.013 232.865C141.733 232.585 141.593 232.22 141.593 231.77C141.593 231.33 141.733 230.98 142.013 230.72C142.293 230.46 142.673 230.33 143.153 230.33C143.633 230.33 144.013 230.46 144.293 230.72C144.573 230.98 144.713 231.33 144.713 231.77C144.713 232.22 144.573 232.585 144.293 232.865C144.013 233.135 143.633 233.27 143.153 233.27ZM141.983 251V236.63H144.323V251H141.983ZM155.808 251.36C154.658 251.36 153.583 251.05 152.583 250.43C151.593 249.81 150.793 248.935 150.183 247.805C149.573 246.675 149.268 245.34 149.268 243.8C149.268 242.22 149.573 240.87 150.183 239.75C150.793 238.63 151.593 237.775 152.583 237.185C153.583 236.595 154.658 236.3 155.808 236.3C156.618 236.3 157.343 236.425 157.983 236.675C158.633 236.915 159.198 237.25 159.678 237.68C160.158 238.11 160.553 238.6 160.863 239.15C161.183 239.69 161.418 240.26 161.568 240.86L159.168 241.07C158.918 240.24 158.498 239.585 157.908 239.105C157.328 238.615 156.618 238.37 155.778 238.37C155.068 238.37 154.398 238.575 153.768 238.985C153.148 239.385 152.643 239.99 152.253 240.8C151.863 241.6 151.668 242.6 151.668 243.8C151.668 244.91 151.843 245.875 152.193 246.695C152.553 247.505 153.043 248.135 153.663 248.585C154.283 249.035 154.988 249.26 155.778 249.26C156.888 249.26 157.728 248.99 158.298 248.45C158.878 247.9 159.168 247.14 159.168 246.17H161.568C161.568 247.17 161.333 248.06 160.863 248.84C160.393 249.62 159.723 250.235 158.853 250.685C157.993 251.135 156.978 251.36 155.808 251.36ZM171.217 251.36C169.977 251.36 168.867 251.045 167.887 250.415C166.917 249.775 166.147 248.89 165.577 247.76C165.017 246.63 164.737 245.33 164.737 243.86C164.737 242.29 165.017 240.94 165.577 239.81C166.137 238.68 166.902 237.815 167.872 237.215C168.852 236.605 169.967 236.3 171.217 236.3C172.307 236.3 173.237 236.52 174.007 236.96C174.777 237.4 175.397 237.995 175.867 238.745C176.337 239.495 176.662 240.345 176.842 241.295C177.032 242.235 177.087 243.21 177.007 244.22H166.627V242.78H175.462L174.772 243.23C174.802 242.64 174.767 242.05 174.667 241.46C174.577 240.87 174.402 240.33 174.142 239.84C173.882 239.34 173.517 238.94 173.047 238.64C172.577 238.34 171.977 238.19 171.247 238.19C170.327 238.19 169.557 238.425 168.937 238.895C168.317 239.365 167.852 239.985 167.542 240.755C167.232 241.515 167.077 242.34 167.077 243.23V244.19C167.077 245.19 167.227 246.085 167.527 246.875C167.837 247.665 168.297 248.29 168.907 248.75C169.517 249.21 170.287 249.44 171.217 249.44C172.147 249.44 172.912 249.215 173.512 248.765C174.112 248.315 174.477 247.65 174.607 246.77H177.037C176.887 247.72 176.547 248.54 176.017 249.23C175.487 249.91 174.812 250.435 173.992 250.805C173.172 251.175 172.247 251.36 171.217 251.36ZM194.937 256.4C192.777 256.4 190.817 256.1 189.057 255.5C187.307 254.9 185.802 254.05 184.542 252.95C183.282 251.86 182.312 250.57 181.632 249.08C180.962 247.59 180.627 245.955 180.627 244.175C180.627 242.415 180.952 240.785 181.602 239.285C182.262 237.785 183.182 236.48 184.362 235.37C185.542 234.25 186.932 233.38 188.532 232.76C190.142 232.14 191.897 231.83 193.797 231.83C195.567 231.83 197.162 232.095 198.582 232.625C200.002 233.155 201.217 233.895 202.227 234.845C203.247 235.795 204.027 236.9 204.567 238.16C205.107 239.41 205.377 240.755 205.377 242.195C205.377 243.405 205.197 244.5 204.837 245.48C204.477 246.45 203.987 247.285 203.367 247.985C202.757 248.685 202.067 249.225 201.297 249.605C200.527 249.975 199.732 250.16 198.912 250.16C198.092 250.16 197.417 249.975 196.887 249.605C196.357 249.225 196.047 248.7 195.957 248.03L195.867 247.58C195.527 248.28 195.057 248.885 194.457 249.395C193.857 249.905 193.067 250.16 192.087 250.16C191.237 250.16 190.442 249.945 189.702 249.515C188.972 249.085 188.382 248.475 187.932 247.685C187.482 246.895 187.257 245.955 187.257 244.865C187.257 243.905 187.437 243.01 187.797 242.18C188.157 241.34 188.647 240.605 189.267 239.975C189.897 239.335 190.607 238.84 191.397 238.49C192.197 238.13 193.037 237.95 193.917 237.95C195.117 237.95 196.067 238.31 196.767 239.03C197.467 239.75 197.817 240.84 197.817 242.3V246.86C197.817 247.4 197.907 247.795 198.087 248.045C198.277 248.295 198.572 248.42 198.972 248.42C199.542 248.42 200.137 248.175 200.757 247.685C201.377 247.195 201.902 246.485 202.332 245.555C202.762 244.625 202.977 243.505 202.977 242.195C202.977 240.585 202.612 239.16 201.882 237.92C201.152 236.67 200.107 235.69 198.747 234.98C197.397 234.26 195.782 233.9 193.902 233.9C192.262 233.9 190.772 234.175 189.432 234.725C188.102 235.275 186.957 236.035 185.997 237.005C185.047 237.975 184.312 239.1 183.792 240.38C183.282 241.65 183.027 243.015 183.027 244.475C183.027 246.455 183.502 248.2 184.452 249.71C185.412 251.21 186.782 252.385 188.562 253.235C190.342 254.085 192.467 254.51 194.937 254.51V256.4ZM192.417 248.27C193.207 248.27 193.862 248.03 194.382 247.55C194.912 247.06 195.397 246.38 195.837 245.51V242.3C195.837 241.48 195.692 240.855 195.402 240.425C195.112 239.995 194.627 239.78 193.947 239.78C193.277 239.78 192.597 239.99 191.907 240.41C191.217 240.82 190.637 241.41 190.167 242.18C189.707 242.94 189.477 243.84 189.477 244.88C189.477 245.98 189.752 246.82 190.302 247.4C190.862 247.98 191.567 248.27 192.417 248.27ZM209.801 232.16H215.321C217.221 232.16 218.871 232.55 220.271 233.33C221.671 234.1 222.756 235.19 223.526 236.6C224.296 238.01 224.681 239.67 224.681 241.58C224.681 243.47 224.296 245.12 223.526 246.53C222.756 247.94 221.671 249.04 220.271 249.83C218.871 250.61 217.221 251 215.321 251H209.801V232.16ZM212.141 234.23V248.96H215.321C216.741 248.96 217.961 248.64 218.981 248C220.011 247.36 220.801 246.485 221.351 245.375C221.911 244.255 222.191 242.99 222.191 241.58C222.191 240.16 221.911 238.9 221.351 237.8C220.801 236.69 220.011 235.82 218.981 235.19C217.961 234.55 216.741 234.23 215.321 234.23H212.141ZM230.386 251V234.44C230.386 233.49 230.566 232.715 230.926 232.115C231.296 231.505 231.786 231.055 232.396 230.765C233.016 230.475 233.706 230.33 234.466 230.33C234.876 230.33 235.291 230.36 235.711 230.42C236.141 230.48 236.566 230.57 236.986 230.69L236.536 232.55C236.236 232.43 235.936 232.34 235.636 232.28C235.346 232.22 235.066 232.19 234.796 232.19C234.476 232.19 234.156 232.25 233.836 232.37C233.516 232.49 233.251 232.715 233.041 233.045C232.831 233.375 232.726 233.85 232.726 234.47V251H230.386ZM228.046 238.28V236.66H235.696V238.28H228.046ZM245.919 251.36C244.659 251.36 243.504 251.135 242.454 250.685C241.404 250.225 240.559 249.55 239.919 248.66C239.279 247.77 238.949 246.67 238.929 245.36H241.209C241.209 246.24 241.424 246.965 241.854 247.535C242.284 248.095 242.854 248.515 243.564 248.795C244.274 249.065 245.049 249.2 245.889 249.2C246.799 249.2 247.589 249.055 248.259 248.765C248.929 248.475 249.444 248.095 249.804 247.625C250.174 247.145 250.359 246.62 250.359 246.05C250.359 245.25 250.114 244.605 249.624 244.115C249.134 243.615 248.409 243.21 247.449 242.9L244.119 241.73C242.559 241.17 241.379 240.53 240.579 239.81C239.779 239.09 239.379 238.08 239.379 236.78C239.379 235.32 239.939 234.13 241.059 233.21C242.189 232.29 243.789 231.83 245.859 231.83C247.779 231.83 249.279 232.275 250.359 233.165C251.439 234.045 252.059 235.23 252.219 236.72H249.909C249.759 235.85 249.349 235.175 248.679 234.695C248.019 234.205 247.079 233.96 245.859 233.96C244.619 233.96 243.654 234.235 242.964 234.785C242.274 235.335 241.929 236.03 241.929 236.87C241.929 237.56 242.144 238.11 242.574 238.52C243.014 238.92 243.699 239.28 244.629 239.6L248.529 240.95C249.879 241.4 250.944 242.03 251.724 242.84C252.514 243.65 252.909 244.7 252.909 245.99C252.909 246.99 252.639 247.895 252.099 248.705C251.569 249.515 250.784 250.16 249.744 250.64C248.704 251.12 247.429 251.36 245.919 251.36ZM255.894 249.605C255.894 249.135 256.059 248.73 256.389 248.39C256.719 248.05 257.134 247.88 257.634 247.88C258.134 247.88 258.559 248.05 258.909 248.39C259.259 248.73 259.434 249.135 259.434 249.605C259.434 250.075 259.259 250.47 258.909 250.79C258.559 251.11 258.134 251.27 257.634 251.27C257.134 251.27 256.719 251.11 256.389 250.79C256.059 250.46 255.894 250.065 255.894 249.605ZM268.425 251.36C267.275 251.36 266.2 251.05 265.2 250.43C264.21 249.81 263.41 248.935 262.8 247.805C262.19 246.675 261.885 245.34 261.885 243.8C261.885 242.22 262.19 240.87 262.8 239.75C263.41 238.63 264.21 237.775 265.2 237.185C266.2 236.595 267.275 236.3 268.425 236.3C269.235 236.3 269.96 236.425 270.6 236.675C271.25 236.915 271.815 237.25 272.295 237.68C272.775 238.11 273.17 238.6 273.48 239.15C273.8 239.69 274.035 240.26 274.185 240.86L271.785 241.07C271.535 240.24 271.115 239.585 270.525 239.105C269.945 238.615 269.235 238.37 268.395 238.37C267.685 238.37 267.015 238.575 266.385 238.985C265.765 239.385 265.26 239.99 264.87 240.8C264.48 241.6 264.285 242.6 264.285 243.8C264.285 244.91 264.46 245.875 264.81 246.695C265.17 247.505 265.66 248.135 266.28 248.585C266.9 249.035 267.605 249.26 268.395 249.26C269.505 249.26 270.345 248.99 270.915 248.45C271.495 247.9 271.785 247.14 271.785 246.17H274.185C274.185 247.17 273.95 248.06 273.48 248.84C273.01 249.62 272.34 250.235 271.47 250.685C270.61 251.135 269.595 251.36 268.425 251.36ZM284.044 251.36C282.754 251.36 281.604 251.075 280.594 250.505C279.594 249.935 278.804 249.09 278.224 247.97C277.644 246.85 277.354 245.47 277.354 243.83C277.354 242.18 277.644 240.8 278.224 239.69C278.804 238.57 279.594 237.725 280.594 237.155C281.604 236.585 282.754 236.3 284.044 236.3C285.324 236.3 286.464 236.585 287.464 237.155C288.474 237.725 289.264 238.57 289.834 239.69C290.414 240.8 290.704 242.18 290.704 243.83C290.704 245.47 290.414 246.85 289.834 247.97C289.264 249.09 288.474 249.935 287.464 250.505C286.464 251.075 285.324 251.36 284.044 251.36ZM283.984 249.32C284.914 249.32 285.704 249.1 286.354 248.66C287.004 248.21 287.494 247.575 287.824 246.755C288.164 245.935 288.334 244.96 288.334 243.83C288.334 242.12 287.979 240.775 287.269 239.795C286.559 238.805 285.504 238.31 284.104 238.31C283.164 238.31 282.369 238.535 281.719 238.985C281.079 239.425 280.589 240.06 280.249 240.89C279.919 241.71 279.754 242.69 279.754 243.83C279.754 245.52 280.109 246.86 280.819 247.85C281.539 248.83 282.594 249.32 283.984 249.32ZM315.42 251V242.57C315.42 241.2 315.09 240.16 314.43 239.45C313.78 238.73 312.9 238.37 311.79 238.37C310.49 238.37 309.495 238.875 308.805 239.885C308.115 240.885 307.77 242.27 307.77 244.04H306.69C306.69 242.75 306.815 241.62 307.065 240.65C307.325 239.68 307.7 238.875 308.19 238.235C308.68 237.585 309.275 237.1 309.975 236.78C310.675 236.46 311.47 236.3 312.36 236.3C313.49 236.3 314.455 236.555 315.255 237.065C316.065 237.565 316.685 238.285 317.115 239.225C317.545 240.165 317.76 241.28 317.76 242.57V251H315.42ZM295.26 251V236.66H297.27L297.54 239.54C297.99 238.5 298.62 237.7 299.43 237.14C300.25 236.58 301.23 236.3 302.37 236.3C303.5 236.3 304.465 236.555 305.265 237.065C306.075 237.565 306.695 238.285 307.125 239.225C307.555 240.165 307.77 241.28 307.77 242.57V251H305.46V242.57C305.46 241.2 305.13 240.16 304.47 239.45C303.82 238.73 302.93 238.37 301.8 238.37C300.94 238.37 300.195 238.605 299.565 239.075C298.935 239.545 298.45 240.22 298.11 241.1C297.77 241.97 297.6 243.01 297.6 244.22V251H295.26ZM84.5757 286.36C83.1857 286.36 82.0257 286.165 81.0957 285.775C80.1657 285.375 79.4607 284.83 78.9807 284.14C78.5007 283.44 78.2457 282.64 78.2157 281.74H80.4657C80.5157 282.65 80.8807 283.335 81.5607 283.795C82.2507 284.245 83.1857 284.47 84.3657 284.47C84.9857 284.47 85.5557 284.37 86.0757 284.17C86.5957 283.97 87.0107 283.695 87.3207 283.345C87.6307 282.995 87.7857 282.6 87.7857 282.16C87.7857 281.6 87.5807 281.16 87.1707 280.84C86.7607 280.52 86.1057 280.24 85.2057 280L82.4157 279.1C81.2057 278.72 80.2757 278.2 79.6257 277.54C78.9857 276.87 78.6657 276.07 78.6657 275.14C78.6657 273.98 79.1757 273.05 80.1957 272.35C81.2157 271.65 82.5557 271.3 84.2157 271.3C85.9757 271.3 87.3407 271.66 88.3107 272.38C89.2807 273.1 89.7857 274 89.8257 275.08H87.5157C87.4257 274.45 87.1057 273.975 86.5557 273.655C86.0057 273.325 85.2257 273.16 84.2157 273.16C83.2457 273.16 82.4857 273.38 81.9357 273.82C81.3957 274.25 81.1257 274.73 81.1257 275.26C81.1257 276.25 81.9757 276.98 83.6757 277.45L86.5257 278.41C87.7557 278.78 88.6957 279.265 89.3457 279.865C90.0057 280.465 90.3357 281.23 90.3357 282.16C90.3357 282.88 90.1007 283.56 89.6307 284.2C89.1607 284.84 88.4957 285.36 87.6357 285.76C86.7757 286.16 85.7557 286.36 84.5757 286.36ZM104.927 271.63H107.267V286H104.927V271.63ZM94.7575 271.63H97.0975V280.57C97.0975 281.77 97.3875 282.68 97.9675 283.3C98.5575 283.92 99.3975 284.23 100.487 284.23C101.387 284.23 102.167 283.99 102.827 283.51C103.497 283.03 104.012 282.37 104.372 281.53C104.742 280.68 104.927 279.71 104.927 278.62H105.797C105.797 280.23 105.562 281.605 105.092 282.745C104.632 283.885 103.977 284.76 103.127 285.37C102.287 285.97 101.297 286.27 100.157 286.27C99.0775 286.27 98.1325 286.07 97.3225 285.67C96.5125 285.27 95.8825 284.665 95.4325 283.855C94.9825 283.035 94.7575 282 94.7575 280.75V271.63ZM119.852 286.36C118.802 286.36 117.887 286.12 117.107 285.64C116.337 285.16 115.742 284.46 115.322 283.54C114.902 282.61 114.692 281.48 114.692 280.15H115.682C115.682 281.04 115.867 281.79 116.237 282.4C116.607 283.01 117.087 283.475 117.677 283.795C118.277 284.105 118.912 284.26 119.582 284.26C120.302 284.26 120.992 284.055 121.652 283.645C122.312 283.225 122.852 282.61 123.272 281.8C123.692 280.99 123.902 279.99 123.902 278.8C123.902 277.66 123.707 276.685 123.317 275.875C122.937 275.065 122.422 274.445 121.772 274.015C121.122 273.585 120.402 273.37 119.612 273.37C118.932 273.37 118.292 273.535 117.692 273.865C117.092 274.195 116.607 274.68 116.237 275.32C115.867 275.95 115.682 276.73 115.682 277.66H114.692C114.692 276.27 114.922 275.105 115.382 274.165C115.842 273.215 116.467 272.5 117.257 272.02C118.047 271.54 118.932 271.3 119.912 271.3C121.032 271.3 122.077 271.6 123.047 272.2C124.017 272.8 124.802 273.66 125.402 274.78C126.002 275.9 126.302 277.24 126.302 278.8C126.302 280.38 125.997 281.735 125.387 282.865C124.787 283.995 123.997 284.86 123.017 285.46C122.037 286.06 120.982 286.36 119.852 286.36ZM113.342 293.05V271.66H115.292L115.682 275.02V293.05H113.342ZM137.4 286.36C136.35 286.36 135.435 286.12 134.655 285.64C133.885 285.16 133.29 284.46 132.87 283.54C132.45 282.61 132.24 281.48 132.24 280.15H133.23C133.23 281.04 133.415 281.79 133.785 282.4C134.155 283.01 134.635 283.475 135.225 283.795C135.825 284.105 136.46 284.26 137.13 284.26C137.85 284.26 138.54 284.055 139.2 283.645C139.86 283.225 140.4 282.61 140.82 281.8C141.24 280.99 141.45 279.99 141.45 278.8C141.45 277.66 141.255 276.685 140.865 275.875C140.485 275.065 139.97 274.445 139.32 274.015C138.67 273.585 137.95 273.37 137.16 273.37C136.48 273.37 135.84 273.535 135.24 273.865C134.64 274.195 134.155 274.68 133.785 275.32C133.415 275.95 133.23 276.73 133.23 277.66H132.24C132.24 276.27 132.47 275.105 132.93 274.165C133.39 273.215 134.015 272.5 134.805 272.02C135.595 271.54 136.48 271.3 137.46 271.3C138.58 271.3 139.625 271.6 140.595 272.2C141.565 272.8 142.35 273.66 142.95 274.78C143.55 275.9 143.85 277.24 143.85 278.8C143.85 280.38 143.545 281.735 142.935 282.865C142.335 283.995 141.545 284.86 140.565 285.46C139.585 286.06 138.53 286.36 137.4 286.36ZM130.89 293.05V271.66H132.84L133.23 275.02V293.05H130.89ZM153.629 286.36C152.339 286.36 151.189 286.075 150.179 285.505C149.179 284.935 148.389 284.09 147.809 282.97C147.229 281.85 146.939 280.47 146.939 278.83C146.939 277.18 147.229 275.8 147.809 274.69C148.389 273.57 149.179 272.725 150.179 272.155C151.189 271.585 152.339 271.3 153.629 271.3C154.909 271.3 156.049 271.585 157.049 272.155C158.059 272.725 158.849 273.57 159.419 274.69C159.999 275.8 160.289 277.18 160.289 278.83C160.289 280.47 159.999 281.85 159.419 282.97C158.849 284.09 158.059 284.935 157.049 285.505C156.049 286.075 154.909 286.36 153.629 286.36ZM153.569 284.32C154.499 284.32 155.289 284.1 155.939 283.66C156.589 283.21 157.079 282.575 157.409 281.755C157.749 280.935 157.919 279.96 157.919 278.83C157.919 277.12 157.564 275.775 156.854 274.795C156.144 273.805 155.089 273.31 153.689 273.31C152.749 273.31 151.954 273.535 151.304 273.985C150.664 274.425 150.174 275.06 149.834 275.89C149.504 276.71 149.339 277.69 149.339 278.83C149.339 280.52 149.694 281.86 150.404 282.85C151.124 283.83 152.179 284.32 153.569 284.32ZM164.845 286V271.63H167.185V286H164.845ZM166.465 279.52C166.465 277.7 166.64 276.19 166.99 274.99C167.34 273.78 167.85 272.88 168.52 272.29C169.2 271.69 170.025 271.39 170.995 271.39C171.315 271.39 171.605 271.415 171.865 271.465C172.135 271.505 172.405 271.57 172.675 271.66L172.525 273.97C172.245 273.88 171.94 273.805 171.61 273.745C171.28 273.675 170.985 273.64 170.725 273.64C169.875 273.64 169.19 273.885 168.67 274.375C168.15 274.855 167.77 275.535 167.53 276.415C167.3 277.295 167.185 278.33 167.185 279.52H166.465ZM180.095 286.36C179.315 286.36 178.615 286.21 177.995 285.91C177.375 285.61 176.885 285.16 176.525 284.56C176.165 283.96 175.985 283.21 175.985 282.31V267.67H178.295V282.25C178.295 283.73 178.985 284.47 180.365 284.47C180.775 284.47 181.17 284.425 181.55 284.335C181.94 284.245 182.375 284.11 182.855 283.93L183.185 285.61C182.675 285.83 182.165 286.01 181.655 286.15C181.155 286.29 180.635 286.36 180.095 286.36ZM173.675 273.28V271.66H182.825V273.28H173.675ZM200.255 291.4C198.095 291.4 196.135 291.1 194.375 290.5C192.625 289.9 191.12 289.05 189.86 287.95C188.6 286.86 187.63 285.57 186.95 284.08C186.28 282.59 185.945 280.955 185.945 279.175C185.945 277.415 186.27 275.785 186.92 274.285C187.58 272.785 188.5 271.48 189.68 270.37C190.86 269.25 192.25 268.38 193.85 267.76C195.46 267.14 197.215 266.83 199.115 266.83C200.885 266.83 202.48 267.095 203.9 267.625C205.32 268.155 206.535 268.895 207.545 269.845C208.565 270.795 209.345 271.9 209.885 273.16C210.425 274.41 210.695 275.755 210.695 277.195C210.695 278.405 210.515 279.5 210.155 280.48C209.795 281.45 209.305 282.285 208.685 282.985C208.075 283.685 207.385 284.225 206.615 284.605C205.845 284.975 205.05 285.16 204.23 285.16C203.41 285.16 202.735 284.975 202.205 284.605C201.675 284.225 201.365 283.7 201.275 283.03L201.185 282.58C200.845 283.28 200.375 283.885 199.775 284.395C199.175 284.905 198.385 285.16 197.405 285.16C196.555 285.16 195.76 284.945 195.02 284.515C194.29 284.085 193.7 283.475 193.25 282.685C192.8 281.895 192.575 280.955 192.575 279.865C192.575 278.905 192.755 278.01 193.115 277.18C193.475 276.34 193.965 275.605 194.585 274.975C195.215 274.335 195.925 273.84 196.715 273.49C197.515 273.13 198.355 272.95 199.235 272.95C200.435 272.95 201.385 273.31 202.085 274.03C202.785 274.75 203.135 275.84 203.135 277.3V281.86C203.135 282.4 203.225 282.795 203.405 283.045C203.595 283.295 203.89 283.42 204.29 283.42C204.86 283.42 205.455 283.175 206.075 282.685C206.695 282.195 207.22 281.485 207.65 280.555C208.08 279.625 208.295 278.505 208.295 277.195C208.295 275.585 207.93 274.16 207.2 272.92C206.47 271.67 205.425 270.69 204.065 269.98C202.715 269.26 201.1 268.9 199.22 268.9C197.58 268.9 196.09 269.175 194.75 269.725C193.42 270.275 192.275 271.035 191.315 272.005C190.365 272.975 189.63 274.1 189.11 275.38C188.6 276.65 188.345 278.015 188.345 279.475C188.345 281.455 188.82 283.2 189.77 284.71C190.73 286.21 192.1 287.385 193.88 288.235C195.66 289.085 197.785 289.51 200.255 289.51V291.4ZM197.735 283.27C198.525 283.27 199.18 283.03 199.7 282.55C200.23 282.06 200.715 281.38 201.155 280.51V277.3C201.155 276.48 201.01 275.855 200.72 275.425C200.43 274.995 199.945 274.78 199.265 274.78C198.595 274.78 197.915 274.99 197.225 275.41C196.535 275.82 195.955 276.41 195.485 277.18C195.025 277.94 194.795 278.84 194.795 279.88C194.795 280.98 195.07 281.82 195.62 282.4C196.18 282.98 196.885 283.27 197.735 283.27ZM215.119 267.16H220.639C222.539 267.16 224.189 267.55 225.589 268.33C226.989 269.1 228.074 270.19 228.844 271.6C229.614 273.01 229.999 274.67 229.999 276.58C229.999 278.47 229.614 280.12 228.844 281.53C228.074 282.94 226.989 284.04 225.589 284.83C224.189 285.61 222.539 286 220.639 286H215.119V267.16ZM217.459 269.23V283.96H220.639C222.059 283.96 223.279 283.64 224.299 283C225.329 282.36 226.119 281.485 226.669 280.375C227.229 279.255 227.509 277.99 227.509 276.58C227.509 275.16 227.229 273.9 226.669 272.8C226.119 271.69 225.329 270.82 224.299 270.19C223.279 269.55 222.059 269.23 220.639 269.23H217.459ZM235.704 286V269.44C235.704 268.49 235.884 267.715 236.244 267.115C236.614 266.505 237.104 266.055 237.714 265.765C238.334 265.475 239.024 265.33 239.784 265.33C240.194 265.33 240.609 265.36 241.029 265.42C241.459 265.48 241.884 265.57 242.304 265.69L241.854 267.55C241.554 267.43 241.254 267.34 240.954 267.28C240.664 267.22 240.384 267.19 240.114 267.19C239.794 267.19 239.474 267.25 239.154 267.37C238.834 267.49 238.569 267.715 238.359 268.045C238.149 268.375 238.044 268.85 238.044 269.47V286H235.704ZM233.364 273.28V271.66H241.014V273.28H233.364ZM251.237 286.36C249.977 286.36 248.822 286.135 247.772 285.685C246.722 285.225 245.877 284.55 245.237 283.66C244.597 282.77 244.267 281.67 244.247 280.36H246.527C246.527 281.24 246.742 281.965 247.172 282.535C247.602 283.095 248.172 283.515 248.882 283.795C249.592 284.065 250.367 284.2 251.207 284.2C252.117 284.2 252.907 284.055 253.577 283.765C254.247 283.475 254.762 283.095 255.122 282.625C255.492 282.145 255.677 281.62 255.677 281.05C255.677 280.25 255.432 279.605 254.942 279.115C254.452 278.615 253.727 278.21 252.767 277.9L249.437 276.73C247.877 276.17 246.697 275.53 245.897 274.81C245.097 274.09 244.697 273.08 244.697 271.78C244.697 270.32 245.257 269.13 246.377 268.21C247.507 267.29 249.107 266.83 251.177 266.83C253.097 266.83 254.597 267.275 255.677 268.165C256.757 269.045 257.377 270.23 257.537 271.72H255.227C255.077 270.85 254.667 270.175 253.997 269.695C253.337 269.205 252.397 268.96 251.177 268.96C249.937 268.96 248.972 269.235 248.282 269.785C247.592 270.335 247.247 271.03 247.247 271.87C247.247 272.56 247.462 273.11 247.892 273.52C248.332 273.92 249.017 274.28 249.947 274.6L253.847 275.95C255.197 276.4 256.262 277.03 257.042 277.84C257.832 278.65 258.227 279.7 258.227 280.99C258.227 281.99 257.957 282.895 257.417 283.705C256.887 284.515 256.102 285.16 255.062 285.64C254.022 286.12 252.747 286.36 251.237 286.36ZM261.212 284.605C261.212 284.135 261.377 283.73 261.707 283.39C262.037 283.05 262.452 282.88 262.952 282.88C263.452 282.88 263.877 283.05 264.227 283.39C264.577 283.73 264.752 284.135 264.752 284.605C264.752 285.075 264.577 285.47 264.227 285.79C263.877 286.11 263.452 286.27 262.952 286.27C262.452 286.27 262.037 286.11 261.707 285.79C261.377 285.46 261.212 285.065 261.212 284.605ZM273.743 286.36C272.593 286.36 271.518 286.05 270.518 285.43C269.528 284.81 268.728 283.935 268.118 282.805C267.508 281.675 267.203 280.34 267.203 278.8C267.203 277.22 267.508 275.87 268.118 274.75C268.728 273.63 269.528 272.775 270.518 272.185C271.518 271.595 272.593 271.3 273.743 271.3C274.553 271.3 275.278 271.425 275.918 271.675C276.568 271.915 277.133 272.25 277.613 272.68C278.093 273.11 278.488 273.6 278.798 274.15C279.118 274.69 279.353 275.26 279.503 275.86L277.103 276.07C276.853 275.24 276.433 274.585 275.843 274.105C275.263 273.615 274.553 273.37 273.713 273.37C273.003 273.37 272.333 273.575 271.703 273.985C271.083 274.385 270.578 274.99 270.188 275.8C269.798 276.6 269.603 277.6 269.603 278.8C269.603 279.91 269.778 280.875 270.128 281.695C270.488 282.505 270.978 283.135 271.598 283.585C272.218 284.035 272.923 284.26 273.713 284.26C274.823 284.26 275.663 283.99 276.233 283.45C276.813 282.9 277.103 282.14 277.103 281.17H279.503C279.503 282.17 279.268 283.06 278.798 283.84C278.328 284.62 277.658 285.235 276.788 285.685C275.928 286.135 274.913 286.36 273.743 286.36ZM289.362 286.36C288.072 286.36 286.922 286.075 285.912 285.505C284.912 284.935 284.122 284.09 283.542 282.97C282.962 281.85 282.672 280.47 282.672 278.83C282.672 277.18 282.962 275.8 283.542 274.69C284.122 273.57 284.912 272.725 285.912 272.155C286.922 271.585 288.072 271.3 289.362 271.3C290.642 271.3 291.782 271.585 292.782 272.155C293.792 272.725 294.582 273.57 295.152 274.69C295.732 275.8 296.022 277.18 296.022 278.83C296.022 280.47 295.732 281.85 295.152 282.97C294.582 284.09 293.792 284.935 292.782 285.505C291.782 286.075 290.642 286.36 289.362 286.36ZM289.302 284.32C290.232 284.32 291.022 284.1 291.672 283.66C292.322 283.21 292.812 282.575 293.142 281.755C293.482 280.935 293.652 279.96 293.652 278.83C293.652 277.12 293.297 275.775 292.587 274.795C291.877 273.805 290.822 273.31 289.422 273.31C288.482 273.31 287.687 273.535 287.037 273.985C286.397 274.425 285.907 275.06 285.567 275.89C285.237 276.71 285.072 277.69 285.072 278.83C285.072 280.52 285.427 281.86 286.137 282.85C286.857 283.83 287.912 284.32 289.302 284.32ZM320.738 286V277.57C320.738 276.2 320.408 275.16 319.748 274.45C319.098 273.73 318.218 273.37 317.108 273.37C315.808 273.37 314.813 273.875 314.123 274.885C313.433 275.885 313.088 277.27 313.088 279.04H312.008C312.008 277.75 312.133 276.62 312.383 275.65C312.643 274.68 313.018 273.875 313.508 273.235C313.998 272.585 314.593 272.1 315.293 271.78C315.993 271.46 316.788 271.3 317.678 271.3C318.808 271.3 319.773 271.555 320.573 272.065C321.383 272.565 322.003 273.285 322.433 274.225C322.863 275.165 323.078 276.28 323.078 277.57V286H320.738ZM300.578 286V271.66H302.588L302.858 274.54C303.308 273.5 303.938 272.7 304.748 272.14C305.568 271.58 306.548 271.3 307.688 271.3C308.818 271.3 309.783 271.555 310.583 272.065C311.393 272.565 312.013 273.285 312.443 274.225C312.873 275.165 313.088 276.28 313.088 277.57V286H310.778V277.57C310.778 276.2 310.448 275.16 309.788 274.45C309.138 273.73 308.248 273.37 307.118 273.37C306.258 273.37 305.513 273.605 304.883 274.075C304.253 274.545 303.768 275.22 303.428 276.1C303.088 276.97 302.918 278.01 302.918 279.22V286H300.578Z" fill="black"/>
<path d="M72.5208 129V103.04H77.2408V129H72.5208ZM84.6283 103.04H89.7883L101.588 121.56H101.228V103.04H105.948V129H101.148L88.5883 109.36H89.3483V129H84.6283V103.04ZM113.38 129V103.04H129.74V107.12H118.1V113.96H128.74V118H118.1V129H113.38ZM145.175 129.56C142.868 129.56 140.828 129.053 139.055 128.04C137.295 127.027 135.915 125.513 134.915 123.5C133.915 121.487 133.415 118.987 133.415 116C133.415 112.96 133.915 110.447 134.915 108.46C135.915 106.46 137.295 104.973 139.055 104C140.828 103.013 142.868 102.52 145.175 102.52C147.495 102.52 149.542 103.027 151.315 104.04C153.088 105.04 154.475 106.54 155.475 108.54C156.475 110.54 156.975 113.027 156.975 116C156.975 119.027 156.475 121.547 155.475 123.56C154.475 125.573 153.088 127.08 151.315 128.08C149.542 129.067 147.495 129.56 145.175 129.56ZM145.175 125.28C147.295 125.28 148.975 124.48 150.215 122.88C151.468 121.28 152.095 118.973 152.095 115.96C152.095 113.053 151.468 110.793 150.215 109.18C148.975 107.567 147.295 106.76 145.175 106.76C143.095 106.76 141.428 107.573 140.175 109.2C138.922 110.813 138.295 113.08 138.295 116C138.295 119 138.922 121.3 140.175 122.9C141.428 124.487 143.095 125.28 145.175 125.28ZM162.56 129V103.04H172.16C175.267 103.04 177.647 103.767 179.3 105.22C180.967 106.673 181.8 108.6 181.8 111C181.8 113.36 180.967 115.267 179.3 116.72C177.647 118.16 175.267 118.88 172.16 118.88H167.28V129H162.56ZM176.6 129L169.72 116.84H174.76L182.76 129H176.6ZM167.28 115.72H171.68C173.413 115.72 174.727 115.327 175.62 114.54C176.513 113.74 176.96 112.707 176.96 111.44C176.96 110.147 176.553 109.107 175.74 108.32C174.927 107.52 173.733 107.12 172.16 107.12H167.28V115.72ZM188.302 103.04H195.062L202.382 118.92H201.982L209.302 103.04H215.822V129H211.062V108.48H211.782L203.702 126.16H200.622L192.582 108.56H193.022V129H188.302V103.04ZM220.423 129L229.263 103.04H235.183L243.663 129H238.703L236.903 123.4H227.263L225.423 129H220.423ZM228.463 119.84H235.783L232.143 108.68L228.463 119.84ZM243.025 107.12V103.04H263.825V107.12H254.725L255.785 106.04V129H251.065V106.04L252.125 107.12H243.025ZM267.755 129V103.04H272.475V129H267.755ZM289.863 129.56C287.556 129.56 285.516 129.053 283.743 128.04C281.983 127.027 280.603 125.513 279.603 123.5C278.603 121.487 278.103 118.987 278.103 116C278.103 112.96 278.603 110.447 279.603 108.46C280.603 106.46 281.983 104.973 283.743 104C285.516 103.013 287.556 102.52 289.863 102.52C292.183 102.52 294.229 103.027 296.003 104.04C297.776 105.04 299.163 106.54 300.163 108.54C301.163 110.54 301.663 113.027 301.663 116C301.663 119.027 301.163 121.547 300.163 123.56C299.163 125.573 297.776 127.08 296.003 128.08C294.229 129.067 292.183 129.56 289.863 129.56ZM289.863 125.28C291.983 125.28 293.663 124.48 294.903 122.88C296.156 121.28 296.783 118.973 296.783 115.96C296.783 113.053 296.156 110.793 294.903 109.18C293.663 107.567 291.983 106.76 289.863 106.76C287.783 106.76 286.116 107.573 284.863 109.2C283.609 110.813 282.983 113.08 282.983 116C282.983 119 283.609 121.3 284.863 122.9C286.116 124.487 287.783 125.28 289.863 125.28ZM307.167 103.04H312.327L324.127 121.56H323.767V103.04H328.487V129H323.687L311.127 109.36H311.887V129H307.167V103.04ZM133.338 176.56C131.538 176.56 129.878 176.247 128.358 175.62C126.851 174.993 125.625 174.04 124.678 172.76C123.745 171.48 123.245 169.853 123.178 167.88H127.818C127.818 168.88 128.065 169.7 128.558 170.34C129.051 170.98 129.711 171.46 130.538 171.78C131.378 172.087 132.298 172.24 133.298 172.24C134.258 172.24 135.111 172.113 135.858 171.86C136.618 171.607 137.211 171.247 137.638 170.78C138.078 170.3 138.298 169.733 138.298 169.08C138.298 168.213 138.031 167.533 137.498 167.04C136.978 166.547 136.138 166.093 134.978 165.68L129.858 163.64C127.858 162.853 126.325 161.94 125.258 160.9C124.191 159.86 123.658 158.427 123.658 156.6C123.658 154.493 124.491 152.787 126.158 151.48C127.825 150.173 130.151 149.52 133.138 149.52C136.045 149.52 138.291 150.2 139.878 151.56C141.465 152.907 142.365 154.787 142.578 157.2H137.938C137.765 156.173 137.298 155.353 136.538 154.74C135.778 154.113 134.645 153.8 133.138 153.8C131.805 153.8 130.751 154.08 129.978 154.64C129.205 155.187 128.818 155.88 128.818 156.72C128.818 157.44 129.058 158.013 129.538 158.44C130.031 158.853 130.791 159.253 131.818 159.64L137.498 161.84C139.418 162.587 140.891 163.527 141.918 164.66C142.945 165.793 143.458 167.213 143.458 168.92C143.458 170.48 143.065 171.833 142.278 172.98C141.491 174.113 140.345 174.993 138.838 175.62C137.331 176.247 135.498 176.56 133.338 176.56ZM149.766 176V150.04H166.446V154.12H154.486V160.96H165.726V165.04H154.486V171.88H166.446V176H149.766ZM173.283 176V150.04H182.883C185.989 150.04 188.369 150.767 190.023 152.22C191.689 153.673 192.523 155.6 192.523 158C192.523 160.36 191.689 162.267 190.023 163.72C188.369 165.16 185.989 165.88 182.883 165.88H178.003V176H173.283ZM187.323 176L180.443 163.84H185.483L193.483 176H187.323ZM178.003 162.72H182.403C184.136 162.72 185.449 162.327 186.343 161.54C187.236 160.74 187.683 159.707 187.683 158.44C187.683 157.147 187.276 156.107 186.463 155.32C185.649 154.52 184.456 154.12 182.883 154.12H178.003V162.72ZM207.105 170.84L213.745 150.04H218.705L209.785 176H204.825L196.025 150.04H201.025L207.585 170.84H207.105ZM223.126 176V150.04H227.846V176H223.126ZM244.754 176.56C242.474 176.56 240.487 176.02 238.794 174.94C237.114 173.847 235.807 172.287 234.874 170.26C233.94 168.233 233.474 165.8 233.474 162.96C233.474 160.027 233.954 157.567 234.914 155.58C235.887 153.58 237.22 152.073 238.914 151.06C240.62 150.033 242.567 149.52 244.754 149.52C247.78 149.52 250.14 150.253 251.834 151.72C253.54 153.187 254.634 155.093 255.114 157.44L250.074 158.36C249.66 157 249 155.9 248.094 155.06C247.187 154.22 246.074 153.8 244.754 153.8C243.594 153.8 242.547 154.14 241.614 154.82C240.68 155.487 239.934 156.5 239.374 157.86C238.827 159.22 238.554 160.92 238.554 162.96C238.554 164.88 238.794 166.533 239.274 167.92C239.767 169.307 240.474 170.373 241.394 171.12C242.314 171.867 243.434 172.24 244.754 172.24C246.447 172.24 247.754 171.793 248.674 170.9C249.607 169.993 250.074 168.84 250.074 167.44H255.114C255.114 169.373 254.694 171.02 253.854 172.38C253.027 173.727 251.84 174.76 250.294 175.48C248.747 176.2 246.9 176.56 244.754 176.56ZM260.625 176V150.04H277.305V154.12H265.345V160.96H276.585V165.04H265.345V171.88H277.305V176H260.625Z" fill="black"/>
</svg>
