<svg width="291" height="41" viewBox="0 0 291 41" fill="none" xmlns="http://www.w3.org/2000/svg">
<path d="M12.0682 32H0.875V2.90909H11.9545C14.947 2.90909 17.5322 3.49148 19.7102 4.65625C21.8977 5.81155 23.5833 7.47822 24.767 9.65625C25.9602 11.8248 26.5568 14.4242 26.5568 17.4545C26.5568 20.4848 25.965 23.089 24.7812 25.267C23.5975 27.4356 21.9214 29.1023 19.7528 30.267C17.5843 31.4223 15.0227 32 12.0682 32ZM8.77273 25.2955H11.7841C13.2235 25.2955 14.4498 25.0634 15.4631 24.5994C16.4858 24.1354 17.2623 23.3352 17.7926 22.1989C18.3324 21.0625 18.6023 19.4811 18.6023 17.4545C18.6023 15.428 18.3277 13.8466 17.7784 12.7102C17.2386 11.5739 16.4432 10.7737 15.392 10.3097C14.3504 9.84564 13.072 9.61364 11.5568 9.61364H8.77273V25.2955ZM30.3246 32V10.1818H37.9382V14.3295H38.1655C38.5632 12.7955 39.1929 11.6733 40.0547 10.9631C40.9259 10.2528 41.9439 9.89773 43.1087 9.89773C43.4496 9.89773 43.7857 9.92614 44.1172 9.98295C44.4581 10.0303 44.7848 10.1013 45.0973 10.196V16.8864C44.709 16.7538 44.2308 16.6544 43.6626 16.5881C43.0945 16.5218 42.6068 16.4886 42.1996 16.4886C41.4325 16.4886 40.7412 16.6638 40.1257 17.0142C39.5196 17.3551 39.0414 17.8381 38.6911 18.4631C38.3407 19.0786 38.1655 19.803 38.1655 20.6364V32H30.3246ZM47.6683 32V10.1818H55.5092V32H47.6683ZM51.5888 7.90909C50.5282 7.90909 49.6191 7.55871 48.8615 6.85795C48.1039 6.1572 47.7251 5.31439 47.7251 4.32955C47.7251 3.3447 48.1039 2.50189 48.8615 1.80114C49.6191 1.10038 50.5282 0.75 51.5888 0.75C52.6589 0.75 53.5679 1.10038 54.3161 1.80114C55.0736 2.50189 55.4524 3.3447 55.4524 4.32955C55.4524 5.31439 55.0736 6.1572 54.3161 6.85795C53.5679 7.55871 52.6589 7.90909 51.5888 7.90909ZM67.3452 19.7273V32H59.5043V10.1818H66.9474V14.3295H67.1747C67.6482 12.947 68.4815 11.8627 69.6747 11.0767C70.8774 10.2907 72.2789 9.89773 73.8793 9.89773C75.4228 9.89773 76.7628 10.2528 77.8991 10.9631C79.045 11.6638 79.9304 12.6297 80.5554 13.8608C81.1899 15.0919 81.5024 16.4981 81.4929 18.0795V32H73.652V19.7273C73.6615 18.6477 73.3868 17.8002 72.8281 17.1847C72.2789 16.5691 71.5118 16.2614 70.527 16.2614C69.883 16.2614 69.3196 16.4034 68.8366 16.6875C68.3632 16.9621 67.9986 17.3598 67.7429 17.8807C67.4872 18.392 67.3546 19.0076 67.3452 19.7273ZM92.4091 26.8295L92.4659 17.5114H93.4886L98.7727 10.1818H107.58L98.7159 21.6023H96.5L92.4091 26.8295ZM85.3636 32V2.90909H93.2045V32H85.3636ZM98.8295 32L93.8295 23.3636L98.9432 17.7955L107.807 32H98.8295ZM130.658 10.1818V15.8636H116.056V10.1818H130.658ZM118.84 32V9.55682C118.84 7.75758 119.162 6.2661 119.806 5.08239C120.45 3.89867 121.359 3.01326 122.533 2.42614C123.708 1.83901 125.09 1.54545 126.681 1.54545C127.675 1.54545 128.641 1.62121 129.579 1.77273C130.526 1.92424 131.227 2.05682 131.681 2.17045L130.545 7.79545C130.261 7.71023 129.929 7.64394 129.55 7.59659C129.172 7.53977 128.84 7.51136 128.556 7.51136C127.817 7.51136 127.32 7.66761 127.065 7.98011C126.809 8.29261 126.681 8.70454 126.681 9.21591V32H118.84ZM143.531 32.3977C141.164 32.3977 139.137 31.929 137.452 30.9915C135.766 30.0445 134.473 28.7282 133.574 27.0426C132.674 25.3475 132.224 23.3826 132.224 21.1477C132.224 18.9129 132.674 16.9527 133.574 15.267C134.473 13.572 135.766 12.2557 137.452 11.3182C139.137 10.3712 141.164 9.89773 143.531 9.89773C145.899 9.89773 147.925 10.3712 149.611 11.3182C151.296 12.2557 152.589 13.572 153.489 15.267C154.388 16.9527 154.838 18.9129 154.838 21.1477C154.838 23.3826 154.388 25.3475 153.489 27.0426C152.589 28.7282 151.296 30.0445 149.611 30.9915C147.925 31.929 145.899 32.3977 143.531 32.3977ZM143.588 26.6023C144.251 26.6023 144.824 26.3797 145.307 25.9347C145.79 25.4896 146.164 24.8551 146.429 24.0312C146.694 23.2074 146.827 22.2273 146.827 21.0909C146.827 19.9451 146.694 18.965 146.429 18.1506C146.164 17.3267 145.79 16.6922 145.307 16.2472C144.824 15.8021 144.251 15.5795 143.588 15.5795C142.887 15.5795 142.286 15.8021 141.784 16.2472C141.282 16.6922 140.899 17.3267 140.634 18.1506C140.368 18.965 140.236 19.9451 140.236 21.0909C140.236 22.2273 140.368 23.2074 140.634 24.0312C140.899 24.8551 141.282 25.4896 141.784 25.9347C142.286 26.3797 142.887 26.6023 143.588 26.6023ZM158.02 32V10.1818H165.634V14.3295H165.861C166.259 12.7955 166.888 11.6733 167.75 10.9631C168.621 10.2528 169.639 9.89773 170.804 9.89773C171.145 9.89773 171.481 9.92614 171.812 9.98295C172.153 10.0303 172.48 10.1013 172.793 10.196V16.8864C172.404 16.7538 171.926 16.6544 171.358 16.5881C170.79 16.5218 170.302 16.4886 169.895 16.4886C169.128 16.4886 168.437 16.6638 167.821 17.0142C167.215 17.3551 166.737 17.8381 166.386 18.4631C166.036 19.0786 165.861 19.803 165.861 20.6364V32H158.02ZM198.901 12C198.825 11.053 198.47 10.3144 197.835 9.78409C197.21 9.25379 196.259 8.98864 194.98 8.98864C194.166 8.98864 193.498 9.08807 192.977 9.28693C192.466 9.47633 192.087 9.73674 191.841 10.0682C191.595 10.3996 191.467 10.7784 191.457 11.2045C191.438 11.5549 191.5 11.8722 191.642 12.1562C191.794 12.4309 192.03 12.6818 192.352 12.9091C192.674 13.1269 193.086 13.3258 193.588 13.5057C194.09 13.6856 194.687 13.8466 195.378 13.9886L197.764 14.5C199.374 14.8409 200.752 15.2907 201.898 15.8494C203.044 16.4081 203.981 17.0663 204.71 17.8239C205.439 18.572 205.974 19.4148 206.315 20.3523C206.666 21.2898 206.846 22.3125 206.855 23.4205C206.846 25.3333 206.367 26.9527 205.42 28.2784C204.473 29.6042 203.119 30.6127 201.358 31.304C199.606 31.9953 197.499 32.3409 195.037 32.3409C192.509 32.3409 190.302 31.9669 188.418 31.2188C186.543 30.4706 185.084 29.3201 184.043 27.767C183.01 26.2045 182.49 24.2064 182.48 21.7727H189.98C190.027 22.6629 190.25 23.411 190.648 24.017C191.045 24.6231 191.604 25.0824 192.324 25.3949C193.053 25.7074 193.92 25.8636 194.923 25.8636C195.766 25.8636 196.472 25.7595 197.04 25.5511C197.608 25.3428 198.039 25.054 198.332 24.6847C198.626 24.3153 198.777 23.8939 198.787 23.4205C198.777 22.9754 198.631 22.5871 198.347 22.2557C198.072 21.9148 197.617 21.6117 196.983 21.3466C196.348 21.072 195.491 20.8163 194.412 20.5795L191.514 19.9545C188.938 19.3958 186.907 18.4631 185.42 17.1562C183.943 15.84 183.209 14.0455 183.219 11.7727C183.209 9.92614 183.702 8.31155 184.696 6.92898C185.7 5.53693 187.087 4.45265 188.858 3.67614C190.638 2.89962 192.679 2.51136 194.98 2.51136C197.329 2.51136 199.36 2.90436 201.074 3.69034C202.788 4.47633 204.109 5.58428 205.037 7.0142C205.974 8.43466 206.448 10.0966 206.457 12H198.901ZM209.973 40.1818V10.1818H217.757V13.9886H217.928C218.212 13.25 218.628 12.5729 219.178 11.9574C219.727 11.3324 220.409 10.8352 221.223 10.4659C222.037 10.0871 222.984 9.89773 224.064 9.89773C225.503 9.89773 226.872 10.2812 228.169 11.0483C229.476 11.8153 230.536 13.0227 231.351 14.6705C232.175 16.3182 232.587 18.4583 232.587 21.0909C232.587 23.6098 232.194 25.6979 231.408 27.3551C230.631 29.0123 229.589 30.2481 228.283 31.0625C226.985 31.8769 225.56 32.2841 224.007 32.2841C222.984 32.2841 222.071 32.1184 221.266 31.7869C220.47 31.446 219.788 30.9867 219.22 30.4091C218.661 29.822 218.231 29.1591 217.928 28.4205H217.814V40.1818H209.973ZM217.643 21.0909C217.643 22.1515 217.781 23.0701 218.055 23.8466C218.339 24.6136 218.737 25.2102 219.249 25.6364C219.769 26.053 220.39 26.2614 221.109 26.2614C221.829 26.2614 222.44 26.0578 222.942 25.6506C223.453 25.2339 223.841 24.642 224.107 23.875C224.381 23.0985 224.518 22.1705 224.518 21.0909C224.518 20.0114 224.381 19.0881 224.107 18.321C223.841 17.5445 223.453 16.9527 222.942 16.5455C222.44 16.1288 221.829 15.9205 221.109 15.9205C220.39 15.9205 219.769 16.1288 219.249 16.5455C218.737 16.9527 218.339 17.5445 218.055 18.321C217.781 19.0881 217.643 20.0114 217.643 21.0909ZM235.871 32V10.1818H243.712V32H235.871ZM239.792 7.90909C238.731 7.90909 237.822 7.55871 237.065 6.85795C236.307 6.1572 235.928 5.31439 235.928 4.32955C235.928 3.3447 236.307 2.50189 237.065 1.80114C237.822 1.10038 238.731 0.75 239.792 0.75C240.862 0.75 241.771 1.10038 242.519 1.80114C243.277 2.50189 243.656 3.3447 243.656 4.32955C243.656 5.31439 243.277 6.1572 242.519 6.85795C241.771 7.55871 240.862 7.90909 239.792 7.90909ZM247.707 32V10.1818H255.321V14.3295H255.548C255.946 12.7955 256.576 11.6733 257.438 10.9631C258.309 10.2528 259.327 9.89773 260.491 9.89773C260.832 9.89773 261.169 9.92614 261.5 9.98295C261.841 10.0303 262.168 10.1013 262.48 10.196V16.8864C262.092 16.7538 261.614 16.6544 261.045 16.5881C260.477 16.5218 259.99 16.4886 259.582 16.4886C258.815 16.4886 258.124 16.6638 257.509 17.0142C256.902 17.3551 256.424 17.8381 256.074 18.4631C255.723 19.0786 255.548 19.803 255.548 20.6364V32H247.707ZM265.051 32V10.1818H272.892V32H265.051ZM268.972 7.90909C267.911 7.90909 267.002 7.55871 266.244 6.85795C265.487 6.1572 265.108 5.31439 265.108 4.32955C265.108 3.3447 265.487 2.50189 266.244 1.80114C267.002 1.10038 267.911 0.75 268.972 0.75C270.042 0.75 270.951 1.10038 271.699 1.80114C272.456 2.50189 272.835 3.3447 272.835 4.32955C272.835 5.31439 272.456 6.1572 271.699 6.85795C270.951 7.55871 270.042 7.90909 268.972 7.90909ZM289.898 10.1818V15.8636H275.523V10.1818H289.898ZM278.308 4.95455H286.148V24.983C286.148 25.286 286.201 25.5417 286.305 25.75C286.409 25.9489 286.57 26.1004 286.788 26.2045C287.005 26.2992 287.285 26.3466 287.626 26.3466C287.862 26.3466 288.137 26.3182 288.45 26.2614C288.772 26.2045 289.008 26.1572 289.16 26.1193L290.296 31.6307C289.946 31.7348 289.444 31.8627 288.79 32.0142C288.147 32.1657 287.379 32.2652 286.489 32.3125C284.69 32.4072 283.18 32.2225 281.958 31.7585C280.737 31.285 279.818 30.5417 279.202 29.5284C278.587 28.5152 278.289 27.2462 278.308 25.7216V4.95455Z" fill="black"/>
</svg>
