<svg width="651" height="336" viewBox="0 0 651 336" fill="none" xmlns="http://www.w3.org/2000/svg">
<path d="M335.627 32C335.627 37.3067 331.307 41.6267 326 41.6267C320.693 41.6267 316.373 37.3067 316.373 32C316.373 26.6933 320.693 22.3733 326 22.3733C331.307 22.3733 335.627 26.6933 335.627 32ZM326 0C308.355 0 294 14.3547 294 32C294 49.6453 308.355 64 326 64C332.464 64 338.696 62.0747 344.027 58.4347L344.117 58.3707L339.805 53.36L339.733 53.4053C335.639 56.0432 330.871 57.4441 326 57.44C311.973 57.44 300.56 46.0267 300.56 32C300.56 17.9733 311.973 6.56 326 6.56C340.027 6.56 351.44 17.9733 351.44 32C351.436 33.8384 351.235 35.6712 350.84 37.4667C350.037 40.7707 347.723 41.7813 345.987 41.648C344.243 41.5067 342.2 40.2613 342.184 37.2187V32C342.18 27.7088 340.473 23.5945 337.439 20.5599C334.405 17.5253 330.291 15.8183 326 15.8133C321.708 15.8176 317.594 17.5243 314.559 20.559C311.524 23.5936 309.818 27.7083 309.813 32C309.818 36.2917 311.524 40.4064 314.559 43.441C317.594 46.4757 321.708 48.1824 326 48.1867C328.133 48.1918 330.245 47.7719 332.214 46.9514C334.183 46.131 335.969 44.9263 337.467 43.408C338.414 44.8948 339.723 46.1166 341.271 46.9586C342.82 47.8006 344.557 48.2351 346.32 48.2213C348.651 48.2213 350.96 47.4427 352.819 46.032C354.736 44.5733 356.168 42.4693 356.96 39.9387C357.085 39.528 357.32 38.5947 357.32 38.5867L357.325 38.552C357.792 36.5253 358 34.4987 358 32C358 14.3547 343.645 0 326 0" fill="black"/>
<path d="M144.341 212V193.16H151.391C152.771 193.16 153.916 193.39 154.826 193.85C155.736 194.3 156.416 194.9 156.866 195.65C157.316 196.39 157.541 197.2 157.541 198.08C157.541 199.16 157.241 200.1 156.641 200.9C156.051 201.69 155.161 202.23 153.971 202.52C154.741 202.64 155.416 202.915 155.996 203.345C156.586 203.765 157.046 204.285 157.376 204.905C157.706 205.515 157.871 206.17 157.871 206.87C157.871 207.51 157.761 208.135 157.541 208.745C157.331 209.355 156.976 209.905 156.476 210.395C155.976 210.885 155.311 211.275 154.481 211.565C153.651 211.855 152.621 212 151.391 212H144.341ZM146.681 209.96H151.361C152.791 209.96 153.816 209.66 154.436 209.06C155.066 208.46 155.381 207.69 155.381 206.75C155.381 205.8 155.041 205.04 154.361 204.47C153.681 203.89 152.681 203.6 151.361 203.6H146.681V209.96ZM146.681 195.17V201.59H151.301C152.471 201.59 153.401 201.305 154.091 200.735C154.791 200.155 155.141 199.34 155.141 198.29C155.141 197.31 154.801 196.545 154.121 195.995C153.451 195.445 152.521 195.17 151.331 195.17H146.681ZM164.293 194.27C163.813 194.27 163.433 194.135 163.153 193.865C162.873 193.585 162.733 193.22 162.733 192.77C162.733 192.33 162.873 191.98 163.153 191.72C163.433 191.46 163.813 191.33 164.293 191.33C164.773 191.33 165.153 191.46 165.433 191.72C165.713 191.98 165.853 192.33 165.853 192.77C165.853 193.22 165.713 193.585 165.433 193.865C165.153 194.135 164.773 194.27 164.293 194.27ZM163.123 212V197.63H165.463V212H163.123ZM177.069 212.36C175.679 212.36 174.519 212.165 173.589 211.775C172.659 211.375 171.954 210.83 171.474 210.14C170.994 209.44 170.739 208.64 170.709 207.74H172.959C173.009 208.65 173.374 209.335 174.054 209.795C174.744 210.245 175.679 210.47 176.859 210.47C177.479 210.47 178.049 210.37 178.569 210.17C179.089 209.97 179.504 209.695 179.814 209.345C180.124 208.995 180.279 208.6 180.279 208.16C180.279 207.6 180.074 207.16 179.664 206.84C179.254 206.52 178.599 206.24 177.699 206L174.909 205.1C173.699 204.72 172.769 204.2 172.119 203.54C171.479 202.87 171.159 202.07 171.159 201.14C171.159 199.98 171.669 199.05 172.689 198.35C173.709 197.65 175.049 197.3 176.709 197.3C178.469 197.3 179.834 197.66 180.804 198.38C181.774 199.1 182.279 200 182.319 201.08H180.009C179.919 200.45 179.599 199.975 179.049 199.655C178.499 199.325 177.719 199.16 176.709 199.16C175.739 199.16 174.979 199.38 174.429 199.82C173.889 200.25 173.619 200.73 173.619 201.26C173.619 202.25 174.469 202.98 176.169 203.45L179.019 204.41C180.249 204.78 181.189 205.265 181.839 205.865C182.499 206.465 182.829 207.23 182.829 208.16C182.829 208.88 182.594 209.56 182.124 210.2C181.654 210.84 180.989 211.36 180.129 211.76C179.269 212.16 178.249 212.36 177.069 212.36ZM197.871 212V203.57C197.871 202.2 197.541 201.16 196.881 200.45C196.231 199.73 195.341 199.37 194.211 199.37C193.351 199.37 192.606 199.605 191.976 200.075C191.346 200.545 190.861 201.22 190.521 202.1C190.181 202.97 190.011 204.01 190.011 205.22H189.111C189.111 203.55 189.331 202.125 189.771 200.945C190.211 199.765 190.851 198.865 191.691 198.245C192.541 197.615 193.571 197.3 194.781 197.3C195.911 197.3 196.876 197.555 197.676 198.065C198.486 198.565 199.106 199.285 199.536 200.225C199.966 201.165 200.181 202.28 200.181 203.57V212H197.871ZM187.671 212V191.54H190.011V212H187.671ZM205.776 212V191.54H208.116V212H205.776ZM207.756 203.78L215.076 197.66H218.346L207.756 206.27V203.78ZM215.796 212L208.986 202.94L211.356 202.52L218.676 212H215.796ZM227.66 212.36C226.42 212.36 225.31 212.045 224.33 211.415C223.36 210.775 222.59 209.89 222.02 208.76C221.46 207.63 221.18 206.33 221.18 204.86C221.18 203.29 221.46 201.94 222.02 200.81C222.58 199.68 223.345 198.815 224.315 198.215C225.295 197.605 226.41 197.3 227.66 197.3C228.75 197.3 229.68 197.52 230.45 197.96C231.22 198.4 231.84 198.995 232.31 199.745C232.78 200.495 233.105 201.345 233.285 202.295C233.475 203.235 233.53 204.21 233.45 205.22H223.07V203.78H231.905L231.215 204.23C231.245 203.64 231.21 203.05 231.11 202.46C231.02 201.87 230.845 201.33 230.585 200.84C230.325 200.34 229.96 199.94 229.49 199.64C229.02 199.34 228.42 199.19 227.69 199.19C226.77 199.19 226 199.425 225.38 199.895C224.76 200.365 224.295 200.985 223.985 201.755C223.675 202.515 223.52 203.34 223.52 204.23V205.19C223.52 206.19 223.67 207.085 223.97 207.875C224.28 208.665 224.74 209.29 225.35 209.75C225.96 210.21 226.73 210.44 227.66 210.44C228.59 210.44 229.355 210.215 229.955 209.765C230.555 209.315 230.92 208.65 231.05 207.77H233.48C233.33 208.72 232.99 209.54 232.46 210.23C231.93 210.91 231.255 211.435 230.435 211.805C229.615 212.175 228.69 212.36 227.66 212.36ZM238.091 212V191.54H240.431V212H238.091ZM240.071 203.78L247.391 197.66H250.661L240.071 206.27V203.78ZM248.111 212L241.301 202.94L243.671 202.52L250.991 212H248.111ZM253.645 209.615C253.645 209.145 253.81 208.74 254.14 208.4C254.47 208.06 254.885 207.89 255.385 207.89C255.885 207.89 256.31 208.06 256.66 208.4C257.01 208.74 257.185 209.145 257.185 209.615C257.185 210.085 257.01 210.48 256.66 210.8C256.31 211.12 255.885 211.28 255.385 211.28C254.885 211.28 254.47 211.12 254.14 210.8C253.81 210.47 253.645 210.075 253.645 209.615ZM253.645 200.435C253.645 199.965 253.81 199.56 254.14 199.22C254.47 198.88 254.885 198.71 255.385 198.71C255.885 198.71 256.31 198.88 256.66 199.22C257.01 199.56 257.185 199.965 257.185 200.435C257.185 200.905 257.01 201.3 256.66 201.62C256.31 201.94 255.885 202.1 255.385 202.1C254.885 202.1 254.47 201.94 254.14 201.62C253.81 201.29 253.645 200.895 253.645 200.435ZM272.748 197.27H275.058V203.63H281.268V205.64H275.058V212H272.748V205.64H266.538V203.63H272.748V197.27ZM290.338 212.36C289.098 212.36 287.993 212.105 287.023 211.595C286.063 211.085 285.303 210.385 284.743 209.495C284.193 208.595 283.918 207.57 283.918 206.42H286.348C286.378 207.57 286.738 208.49 287.428 209.18C288.128 209.86 289.078 210.2 290.278 210.2C291.458 210.2 292.413 209.86 293.143 209.18C293.883 208.5 294.423 207.54 294.763 206.3C295.113 205.05 295.288 203.58 295.288 201.89C295.288 201.5 295.278 201.14 295.258 200.81C295.238 200.47 295.198 200.09 295.138 199.67C295.008 200.75 294.698 201.65 294.208 202.37C293.718 203.08 293.088 203.615 292.318 203.975C291.558 204.325 290.698 204.5 289.738 204.5C288.618 204.5 287.608 204.25 286.708 203.75C285.818 203.24 285.108 202.545 284.578 201.665C284.058 200.775 283.798 199.76 283.798 198.62C283.798 197.45 284.063 196.43 284.593 195.56C285.133 194.69 285.883 194.02 286.843 193.55C287.803 193.07 288.918 192.83 290.188 192.83C291.268 192.83 292.263 193.05 293.173 193.49C294.093 193.93 294.888 194.565 295.558 195.395C296.228 196.215 296.748 197.2 297.118 198.35C297.498 199.5 297.688 200.79 297.688 202.22C297.688 204.29 297.423 206.085 296.893 207.605C296.373 209.125 295.568 210.3 294.478 211.13C293.398 211.95 292.018 212.36 290.338 212.36ZM290.188 202.43C290.928 202.43 291.598 202.265 292.198 201.935C292.798 201.605 293.273 201.16 293.623 200.6C293.973 200.04 294.148 199.41 294.148 198.71C294.148 197.55 293.763 196.635 292.993 195.965C292.233 195.295 291.298 194.96 290.188 194.96C289.048 194.96 288.103 195.295 287.353 195.965C286.603 196.635 286.228 197.55 286.228 198.71C286.228 199.86 286.603 200.77 287.353 201.44C288.103 202.1 289.048 202.43 290.188 202.43ZM307.741 212.36C306.501 212.36 305.396 212.105 304.426 211.595C303.466 211.085 302.706 210.385 302.146 209.495C301.596 208.595 301.321 207.57 301.321 206.42H303.751C303.781 207.57 304.141 208.49 304.831 209.18C305.531 209.86 306.481 210.2 307.681 210.2C308.861 210.2 309.816 209.86 310.546 209.18C311.286 208.5 311.826 207.54 312.166 206.3C312.516 205.05 312.691 203.58 312.691 201.89C312.691 201.5 312.681 201.14 312.661 200.81C312.641 200.47 312.601 200.09 312.541 199.67C312.411 200.75 312.101 201.65 311.611 202.37C311.121 203.08 310.491 203.615 309.721 203.975C308.961 204.325 308.101 204.5 307.141 204.5C306.021 204.5 305.011 204.25 304.111 203.75C303.221 203.24 302.511 202.545 301.981 201.665C301.461 200.775 301.201 199.76 301.201 198.62C301.201 197.45 301.466 196.43 301.996 195.56C302.536 194.69 303.286 194.02 304.246 193.55C305.206 193.07 306.321 192.83 307.591 192.83C308.671 192.83 309.666 193.05 310.576 193.49C311.496 193.93 312.291 194.565 312.961 195.395C313.631 196.215 314.151 197.2 314.521 198.35C314.901 199.5 315.091 200.79 315.091 202.22C315.091 204.29 314.826 206.085 314.296 207.605C313.776 209.125 312.971 210.3 311.881 211.13C310.801 211.95 309.421 212.36 307.741 212.36ZM307.591 202.43C308.331 202.43 309.001 202.265 309.601 201.935C310.201 201.605 310.676 201.16 311.026 200.6C311.376 200.04 311.551 199.41 311.551 198.71C311.551 197.55 311.166 196.635 310.396 195.965C309.636 195.295 308.701 194.96 307.591 194.96C306.451 194.96 305.506 195.295 304.756 195.965C304.006 196.635 303.631 197.55 303.631 198.71C303.631 199.86 304.006 200.77 304.756 201.44C305.506 202.1 306.451 202.43 307.591 202.43ZM325.653 212.36C324.143 212.36 322.823 211.945 321.693 211.115C320.573 210.285 319.703 209.16 319.083 207.74C318.463 206.31 318.153 204.7 318.153 202.91C318.153 200.8 318.468 198.995 319.098 197.495C319.728 195.985 320.628 194.83 321.798 194.03C322.968 193.23 324.363 192.83 325.983 192.83C327.103 192.83 328.088 193.045 328.938 193.475C329.798 193.895 330.483 194.485 330.993 195.245C331.513 196.005 331.823 196.89 331.923 197.9H329.373C329.223 197 328.883 196.285 328.353 195.755C327.823 195.225 327.053 194.96 326.043 194.96C324.323 194.96 322.973 195.705 321.993 197.195C321.013 198.675 320.523 200.7 320.523 203.27C320.523 203.64 320.533 204.07 320.553 204.56C320.573 205.04 320.613 205.49 320.673 205.91C320.763 204.58 321.068 203.535 321.588 202.775C322.118 202.005 322.778 201.46 323.568 201.14C324.358 200.82 325.193 200.66 326.073 200.66C327.213 200.66 328.233 200.91 329.133 201.41C330.043 201.91 330.758 202.605 331.278 203.495C331.808 204.375 332.073 205.39 332.073 206.54C332.073 207.7 331.803 208.72 331.263 209.6C330.723 210.47 329.968 211.15 328.998 211.64C328.038 212.12 326.923 212.36 325.653 212.36ZM325.653 210.2C326.793 210.2 327.738 209.865 328.488 209.195C329.238 208.525 329.613 207.62 329.613 206.48C329.613 205.31 329.238 204.395 328.488 203.735C327.738 203.065 326.793 202.73 325.653 202.73C324.903 202.73 324.233 202.895 323.643 203.225C323.053 203.545 322.583 203.99 322.233 204.56C321.893 205.12 321.723 205.76 321.723 206.48C321.723 207.62 322.098 208.525 322.848 209.195C323.598 209.865 324.533 210.2 325.653 210.2ZM342.251 212.36C341.061 212.36 339.976 212.145 338.996 211.715C338.016 211.285 337.231 210.655 336.641 209.825C336.051 208.985 335.751 207.96 335.741 206.75H338.081C338.081 207.89 338.481 208.75 339.281 209.33C340.091 209.91 341.081 210.2 342.251 210.2C343.601 210.2 344.661 209.79 345.431 208.97C346.211 208.14 346.601 207.12 346.601 205.91C346.601 203.49 345.041 202.28 341.921 202.28H336.881L337.691 193.16H348.131V195.29H339.581L340.061 194.48L339.431 201.05L339.131 200.78C339.611 200.67 340.156 200.595 340.766 200.555C341.376 200.505 341.921 200.48 342.401 200.48C344.441 200.48 346.056 200.935 347.246 201.845C348.436 202.755 349.031 204.11 349.031 205.91C349.031 207.13 348.756 208.23 348.206 209.21C347.656 210.18 346.871 210.95 345.851 211.52C344.841 212.08 343.641 212.36 342.251 212.36ZM359.185 212.36C357.995 212.36 356.91 212.145 355.93 211.715C354.95 211.285 354.165 210.655 353.575 209.825C352.985 208.985 352.685 207.96 352.675 206.75H355.015C355.015 207.89 355.415 208.75 356.215 209.33C357.025 209.91 358.015 210.2 359.185 210.2C360.535 210.2 361.595 209.79 362.365 208.97C363.145 208.14 363.535 207.12 363.535 205.91C363.535 203.49 361.975 202.28 358.855 202.28H353.815L354.625 193.16H365.065V195.29H356.515L356.995 194.48L356.365 201.05L356.065 200.78C356.545 200.67 357.09 200.595 357.7 200.555C358.31 200.505 358.855 200.48 359.335 200.48C361.375 200.48 362.99 200.935 364.18 201.845C365.37 202.755 365.965 204.11 365.965 205.91C365.965 207.13 365.69 208.23 365.14 209.21C364.59 210.18 363.805 210.95 362.785 211.52C361.775 212.08 360.575 212.36 359.185 212.36ZM376.688 212.36C375.178 212.36 373.858 211.945 372.728 211.115C371.608 210.285 370.738 209.16 370.118 207.74C369.498 206.31 369.188 204.7 369.188 202.91C369.188 200.8 369.503 198.995 370.133 197.495C370.763 195.985 371.663 194.83 372.833 194.03C374.003 193.23 375.398 192.83 377.018 192.83C378.138 192.83 379.123 193.045 379.973 193.475C380.833 193.895 381.518 194.485 382.028 195.245C382.548 196.005 382.858 196.89 382.958 197.9H380.408C380.258 197 379.918 196.285 379.388 195.755C378.858 195.225 378.088 194.96 377.078 194.96C375.358 194.96 374.008 195.705 373.028 197.195C372.048 198.675 371.558 200.7 371.558 203.27C371.558 203.64 371.568 204.07 371.588 204.56C371.608 205.04 371.648 205.49 371.708 205.91C371.798 204.58 372.103 203.535 372.623 202.775C373.153 202.005 373.813 201.46 374.603 201.14C375.393 200.82 376.228 200.66 377.108 200.66C378.248 200.66 379.268 200.91 380.168 201.41C381.078 201.91 381.793 202.605 382.313 203.495C382.843 204.375 383.108 205.39 383.108 206.54C383.108 207.7 382.838 208.72 382.298 209.6C381.758 210.47 381.003 211.15 380.033 211.64C379.073 212.12 377.958 212.36 376.688 212.36ZM376.688 210.2C377.828 210.2 378.773 209.865 379.523 209.195C380.273 208.525 380.648 207.62 380.648 206.48C380.648 205.31 380.273 204.395 379.523 203.735C378.773 203.065 377.828 202.73 376.688 202.73C375.938 202.73 375.268 202.895 374.678 203.225C374.088 203.545 373.618 203.99 373.268 204.56C372.928 205.12 372.758 205.76 372.758 206.48C372.758 207.62 373.133 208.525 373.883 209.195C374.633 209.865 375.568 210.2 376.688 210.2ZM393.286 212.36C392.096 212.36 391.011 212.145 390.031 211.715C389.051 211.285 388.266 210.655 387.676 209.825C387.086 208.985 386.786 207.96 386.776 206.75H389.116C389.116 207.89 389.516 208.75 390.316 209.33C391.126 209.91 392.116 210.2 393.286 210.2C394.636 210.2 395.696 209.79 396.466 208.97C397.246 208.14 397.636 207.12 397.636 205.91C397.636 203.49 396.076 202.28 392.956 202.28H387.916L388.726 193.16H399.166V195.29H390.616L391.096 194.48L390.466 201.05L390.166 200.78C390.646 200.67 391.191 200.595 391.801 200.555C392.411 200.505 392.956 200.48 393.436 200.48C395.476 200.48 397.091 200.935 398.281 201.845C399.471 202.755 400.066 204.11 400.066 205.91C400.066 207.13 399.791 208.23 399.241 209.21C398.691 210.18 397.906 210.95 396.886 211.52C395.876 212.08 394.676 212.36 393.286 212.36ZM410.97 212.36C409.49 212.36 408.18 212.125 407.04 211.655C405.91 211.185 405.02 210.54 404.37 209.72C403.73 208.9 403.41 207.97 403.41 206.93C403.41 205.98 403.655 205.165 404.145 204.485C404.645 203.805 405.325 203.285 406.185 202.925C407.055 202.555 408.04 202.37 409.14 202.37C409.43 202.37 409.71 202.385 409.98 202.415C410.25 202.445 410.54 202.5 410.85 202.58V203.27C409.85 203.27 408.975 203.435 408.225 203.765C407.475 204.085 406.89 204.51 406.47 205.04C406.05 205.57 405.84 206.14 405.84 206.75C405.84 207.49 406.065 208.12 406.515 208.64C406.965 209.15 407.575 209.54 408.345 209.81C409.125 210.07 410 210.2 410.97 210.2C412.59 210.2 413.85 209.94 414.75 209.42C415.65 208.9 416.1 208.22 416.1 207.38C416.1 206.7 415.86 206.14 415.38 205.7C414.91 205.26 414.26 204.89 413.43 204.59L408.24 202.61C407.61 202.37 406.97 202.04 406.32 201.62C405.68 201.2 405.14 200.675 404.7 200.045C404.26 199.415 404.04 198.67 404.04 197.81C404.04 196.84 404.315 195.98 404.865 195.23C405.415 194.48 406.205 193.895 407.235 193.475C408.275 193.045 409.52 192.83 410.97 192.83C412.3 192.83 413.48 193.06 414.51 193.52C415.55 193.97 416.365 194.59 416.955 195.38C417.545 196.16 417.84 197.05 417.84 198.05C417.84 198.83 417.64 199.555 417.24 200.225C416.85 200.885 416.27 201.42 415.5 201.83C414.74 202.23 413.8 202.43 412.68 202.43C412.41 202.43 412.15 202.415 411.9 202.385C411.66 202.345 411.39 202.28 411.09 202.19V201.44C411.9 201.44 412.63 201.305 413.28 201.035C413.93 200.755 414.445 200.37 414.825 199.88C415.215 199.39 415.41 198.82 415.41 198.17C415.41 197.55 415.22 197 414.84 196.52C414.47 196.03 413.95 195.65 413.28 195.38C412.62 195.1 411.85 194.96 410.97 194.96C410.12 194.96 409.355 195.095 408.675 195.365C408.005 195.625 407.475 195.98 407.085 196.43C406.695 196.87 406.5 197.36 406.5 197.9C406.5 198.57 406.725 199.11 407.175 199.52C407.635 199.92 408.27 200.27 409.08 200.57L414.27 202.55C415.65 203.07 416.71 203.685 417.45 204.395C418.19 205.105 418.56 206.07 418.56 207.29C418.56 208.28 418.26 209.16 417.66 209.93C417.06 210.69 416.195 211.285 415.065 211.715C413.935 212.145 412.57 212.36 410.97 212.36ZM429.098 212.36C428.158 212.36 427.248 212.23 426.368 211.97C425.498 211.7 424.713 211.31 424.013 210.8C423.323 210.28 422.778 209.64 422.378 208.88C421.978 208.12 421.778 207.24 421.778 206.24H424.178C424.198 207.1 424.428 207.825 424.868 208.415C425.308 209.005 425.893 209.45 426.623 209.75C427.363 210.05 428.188 210.2 429.098 210.2C430.498 210.2 431.583 209.86 432.353 209.18C433.123 208.5 433.508 207.65 433.508 206.63C433.508 205.98 433.348 205.405 433.028 204.905C432.708 204.405 432.198 204.015 431.498 203.735C430.808 203.445 429.898 203.3 428.768 203.3H426.638V201.44H428.078C429.538 201.44 430.688 201.15 431.528 200.57C432.368 199.99 432.788 199.19 432.788 198.17C432.788 197.27 432.448 196.51 431.768 195.89C431.088 195.27 430.118 194.96 428.858 194.96C427.888 194.96 427.023 195.16 426.263 195.56C425.503 195.95 424.988 196.67 424.718 197.72H422.318C422.478 196.55 422.858 195.605 423.458 194.885C424.058 194.165 424.818 193.645 425.738 193.325C426.658 192.995 427.678 192.83 428.798 192.83C430.048 192.83 431.163 193.05 432.143 193.49C433.123 193.93 433.893 194.535 434.453 195.305C435.023 196.075 435.308 196.96 435.308 197.96C435.308 198.95 435.023 199.8 434.453 200.51C433.893 201.21 433.078 201.75 432.008 202.13C433.198 202.47 434.168 203.03 434.918 203.81C435.678 204.59 436.058 205.59 436.058 206.81C436.058 207.89 435.773 208.85 435.203 209.69C434.643 210.52 433.843 211.175 432.803 211.655C431.763 212.125 430.528 212.36 429.098 212.36ZM447.122 212.36C445.642 212.36 444.332 212.125 443.192 211.655C442.062 211.185 441.172 210.54 440.522 209.72C439.882 208.9 439.562 207.97 439.562 206.93C439.562 205.98 439.807 205.165 440.297 204.485C440.797 203.805 441.477 203.285 442.337 202.925C443.207 202.555 444.192 202.37 445.292 202.37C445.582 202.37 445.862 202.385 446.132 202.415C446.402 202.445 446.692 202.5 447.002 202.58V203.27C446.002 203.27 445.127 203.435 444.377 203.765C443.627 204.085 443.042 204.51 442.622 205.04C442.202 205.57 441.992 206.14 441.992 206.75C441.992 207.49 442.217 208.12 442.667 208.64C443.117 209.15 443.727 209.54 444.497 209.81C445.277 210.07 446.152 210.2 447.122 210.2C448.742 210.2 450.002 209.94 450.902 209.42C451.802 208.9 452.252 208.22 452.252 207.38C452.252 206.7 452.012 206.14 451.532 205.7C451.062 205.26 450.412 204.89 449.582 204.59L444.392 202.61C443.762 202.37 443.122 202.04 442.472 201.62C441.832 201.2 441.292 200.675 440.852 200.045C440.412 199.415 440.192 198.67 440.192 197.81C440.192 196.84 440.467 195.98 441.017 195.23C441.567 194.48 442.357 193.895 443.387 193.475C444.427 193.045 445.672 192.83 447.122 192.83C448.452 192.83 449.632 193.06 450.662 193.52C451.702 193.97 452.517 194.59 453.107 195.38C453.697 196.16 453.992 197.05 453.992 198.05C453.992 198.83 453.792 199.555 453.392 200.225C453.002 200.885 452.422 201.42 451.652 201.83C450.892 202.23 449.952 202.43 448.832 202.43C448.562 202.43 448.302 202.415 448.052 202.385C447.812 202.345 447.542 202.28 447.242 202.19V201.44C448.052 201.44 448.782 201.305 449.432 201.035C450.082 200.755 450.597 200.37 450.977 199.88C451.367 199.39 451.562 198.82 451.562 198.17C451.562 197.55 451.372 197 450.992 196.52C450.622 196.03 450.102 195.65 449.432 195.38C448.772 195.1 448.002 194.96 447.122 194.96C446.272 194.96 445.507 195.095 444.827 195.365C444.157 195.625 443.627 195.98 443.237 196.43C442.847 196.87 442.652 197.36 442.652 197.9C442.652 198.57 442.877 199.11 443.327 199.52C443.787 199.92 444.422 200.27 445.232 200.57L450.422 202.55C451.802 203.07 452.862 203.685 453.602 204.395C454.342 205.105 454.712 206.07 454.712 207.29C454.712 208.28 454.412 209.16 453.812 209.93C453.212 210.69 452.347 211.285 451.217 211.715C450.087 212.145 448.722 212.36 447.122 212.36ZM464.8 212.36C463.61 212.36 462.525 212.145 461.545 211.715C460.565 211.285 459.78 210.655 459.19 209.825C458.6 208.985 458.3 207.96 458.29 206.75H460.63C460.63 207.89 461.03 208.75 461.83 209.33C462.64 209.91 463.63 210.2 464.8 210.2C466.15 210.2 467.21 209.79 467.98 208.97C468.76 208.14 469.15 207.12 469.15 205.91C469.15 203.49 467.59 202.28 464.47 202.28H459.43L460.24 193.16H470.68V195.29H462.13L462.61 194.48L461.98 201.05L461.68 200.78C462.16 200.67 462.705 200.595 463.315 200.555C463.925 200.505 464.47 200.48 464.95 200.48C466.99 200.48 468.605 200.935 469.795 201.845C470.985 202.755 471.58 204.11 471.58 205.91C471.58 207.13 471.305 208.23 470.755 209.21C470.205 210.18 469.42 210.95 468.4 211.52C467.39 212.08 466.19 212.36 464.8 212.36ZM482.483 212.36C481.003 212.36 479.693 212.125 478.553 211.655C477.423 211.185 476.533 210.54 475.883 209.72C475.243 208.9 474.923 207.97 474.923 206.93C474.923 205.98 475.168 205.165 475.658 204.485C476.158 203.805 476.838 203.285 477.698 202.925C478.568 202.555 479.553 202.37 480.653 202.37C480.943 202.37 481.223 202.385 481.493 202.415C481.763 202.445 482.053 202.5 482.363 202.58V203.27C481.363 203.27 480.488 203.435 479.738 203.765C478.988 204.085 478.403 204.51 477.983 205.04C477.563 205.57 477.353 206.14 477.353 206.75C477.353 207.49 477.578 208.12 478.028 208.64C478.478 209.15 479.088 209.54 479.858 209.81C480.638 210.07 481.513 210.2 482.483 210.2C484.103 210.2 485.363 209.94 486.263 209.42C487.163 208.9 487.613 208.22 487.613 207.38C487.613 206.7 487.373 206.14 486.893 205.7C486.423 205.26 485.773 204.89 484.943 204.59L479.753 202.61C479.123 202.37 478.483 202.04 477.833 201.62C477.193 201.2 476.653 200.675 476.213 200.045C475.773 199.415 475.553 198.67 475.553 197.81C475.553 196.84 475.828 195.98 476.378 195.23C476.928 194.48 477.718 193.895 478.748 193.475C479.788 193.045 481.033 192.83 482.483 192.83C483.813 192.83 484.993 193.06 486.023 193.52C487.063 193.97 487.878 194.59 488.468 195.38C489.058 196.16 489.353 197.05 489.353 198.05C489.353 198.83 489.153 199.555 488.753 200.225C488.363 200.885 487.783 201.42 487.013 201.83C486.253 202.23 485.313 202.43 484.193 202.43C483.923 202.43 483.663 202.415 483.413 202.385C483.173 202.345 482.903 202.28 482.603 202.19V201.44C483.413 201.44 484.143 201.305 484.793 201.035C485.443 200.755 485.958 200.37 486.338 199.88C486.728 199.39 486.923 198.82 486.923 198.17C486.923 197.55 486.733 197 486.353 196.52C485.983 196.03 485.463 195.65 484.793 195.38C484.133 195.1 483.363 194.96 482.483 194.96C481.633 194.96 480.868 195.095 480.188 195.365C479.518 195.625 478.988 195.98 478.598 196.43C478.208 196.87 478.013 197.36 478.013 197.9C478.013 198.57 478.238 199.11 478.688 199.52C479.148 199.92 479.783 200.27 480.593 200.57L485.783 202.55C487.163 203.07 488.223 203.685 488.963 204.395C489.703 205.105 490.073 206.07 490.073 207.29C490.073 208.28 489.773 209.16 489.173 209.93C488.573 210.69 487.708 211.285 486.578 211.715C485.448 212.145 484.083 212.36 482.483 212.36ZM55.2839 247L61.7639 228.16H64.6139L70.9439 247H68.4839L66.8939 242.17H59.3939L57.7439 247H55.2839ZM59.9939 240.34H66.2939L63.1439 231.01L59.9939 240.34ZM74.7605 247V226.54H77.1005V247H74.7605ZM103.329 247V238.57C103.329 237.2 102.999 236.16 102.339 235.45C101.689 234.73 100.809 234.37 99.6987 234.37C98.3987 234.37 97.4037 234.875 96.7137 235.885C96.0237 236.885 95.6787 238.27 95.6787 240.04H94.5987C94.5987 238.75 94.7237 237.62 94.9737 236.65C95.2337 235.68 95.6087 234.875 96.0987 234.235C96.5887 233.585 97.1837 233.1 97.8837 232.78C98.5837 232.46 99.3787 232.3 100.269 232.3C101.399 232.3 102.364 232.555 103.164 233.065C103.974 233.565 104.594 234.285 105.024 235.225C105.454 236.165 105.669 237.28 105.669 238.57V247H103.329ZM83.1687 247V232.66H85.1787L85.4487 235.54C85.8987 234.5 86.5287 233.7 87.3387 233.14C88.1587 232.58 89.1387 232.3 90.2787 232.3C91.4087 232.3 92.3737 232.555 93.1737 233.065C93.9837 233.565 94.6037 234.285 95.0337 235.225C95.4637 236.165 95.6787 237.28 95.6787 238.57V247H93.3687V238.57C93.3687 237.2 93.0387 236.16 92.3787 235.45C91.7287 234.73 90.8387 234.37 89.7087 234.37C88.8487 234.37 88.1037 234.605 87.4737 235.075C86.8437 235.545 86.3587 236.22 86.0187 237.1C85.6787 237.97 85.5087 239.01 85.5087 240.22V247H83.1687ZM120.115 247L119.815 243.85V237.7C119.815 236.41 119.54 235.485 118.99 234.925C118.44 234.355 117.615 234.07 116.515 234.07C115.895 234.07 115.33 234.16 114.82 234.34C114.32 234.52 113.92 234.8 113.62 235.18C113.33 235.55 113.185 236.03 113.185 236.62H110.575C110.575 235.58 110.83 234.745 111.34 234.115C111.85 233.475 112.55 233.015 113.44 232.735C114.34 232.445 115.365 232.3 116.515 232.3C117.615 232.3 118.59 232.485 119.44 232.855C120.29 233.225 120.955 233.815 121.435 234.625C121.915 235.425 122.155 236.47 122.155 237.76V247H120.115ZM115.225 247.36C114.045 247.36 113.07 247.15 112.3 246.73C111.53 246.31 110.955 245.765 110.575 245.095C110.195 244.425 110.005 243.72 110.005 242.98C110.005 242.01 110.245 241.22 110.725 240.61C111.215 240 111.88 239.555 112.72 239.275C113.56 238.985 114.505 238.84 115.555 238.84C116.305 238.84 117.055 238.915 117.805 239.065C118.565 239.215 119.305 239.42 120.025 239.68V241.15C119.425 240.91 118.745 240.72 117.985 240.58C117.235 240.44 116.545 240.37 115.915 240.37C114.955 240.37 114.145 240.57 113.485 240.97C112.825 241.36 112.495 242.03 112.495 242.98C112.495 243.68 112.745 244.28 113.245 244.78C113.755 245.28 114.565 245.53 115.675 245.53C116.455 245.53 117.155 245.35 117.775 244.99C118.405 244.62 118.9 244.16 119.26 243.61C119.63 243.06 119.815 242.51 119.815 241.96H120.385C120.385 242.92 120.175 243.81 119.755 244.63C119.345 245.45 118.755 246.11 117.985 246.61C117.215 247.11 116.295 247.36 115.225 247.36ZM132.169 247.36C131.389 247.36 130.689 247.21 130.069 246.91C129.449 246.61 128.959 246.16 128.599 245.56C128.239 244.96 128.059 244.21 128.059 243.31V228.67H130.369V243.25C130.369 244.73 131.059 245.47 132.439 245.47C132.849 245.47 133.244 245.425 133.624 245.335C134.014 245.245 134.449 245.11 134.929 244.93L135.259 246.61C134.749 246.83 134.239 247.01 133.729 247.15C133.229 247.29 132.709 247.36 132.169 247.36ZM125.749 234.28V232.66H134.899V234.28H125.749ZM136.668 232.66H139.278L143.958 244.96H143.418L147.048 232.66H149.448L144.048 249.88C143.598 251.32 142.998 252.43 142.248 253.21C141.498 253.99 140.538 254.38 139.368 254.38C138.738 254.38 138.138 254.29 137.568 254.11C137.008 253.93 136.428 253.67 135.828 253.33V251.17C136.358 251.59 136.868 251.89 137.358 252.07C137.858 252.25 138.378 252.34 138.918 252.34C139.518 252.34 140.018 252.15 140.418 251.77C140.828 251.39 141.168 250.9 141.438 250.3C141.708 249.71 141.938 249.09 142.128 248.44L142.548 247L136.668 232.66ZM169.012 247L168.712 243.85V237.7C168.712 236.41 168.437 235.485 167.887 234.925C167.337 234.355 166.512 234.07 165.412 234.07C164.792 234.07 164.227 234.16 163.717 234.34C163.217 234.52 162.817 234.8 162.517 235.18C162.227 235.55 162.082 236.03 162.082 236.62H159.472C159.472 235.58 159.727 234.745 160.237 234.115C160.747 233.475 161.447 233.015 162.337 232.735C163.237 232.445 164.262 232.3 165.412 232.3C166.512 232.3 167.487 232.485 168.337 232.855C169.187 233.225 169.852 233.815 170.332 234.625C170.812 235.425 171.052 236.47 171.052 237.76V247H169.012ZM164.122 247.36C162.942 247.36 161.967 247.15 161.197 246.73C160.427 246.31 159.852 245.765 159.472 245.095C159.092 244.425 158.902 243.72 158.902 242.98C158.902 242.01 159.142 241.22 159.622 240.61C160.112 240 160.777 239.555 161.617 239.275C162.457 238.985 163.402 238.84 164.452 238.84C165.202 238.84 165.952 238.915 166.702 239.065C167.462 239.215 168.202 239.42 168.922 239.68V241.15C168.322 240.91 167.642 240.72 166.882 240.58C166.132 240.44 165.442 240.37 164.812 240.37C163.852 240.37 163.042 240.57 162.382 240.97C161.722 241.36 161.392 242.03 161.392 242.98C161.392 243.68 161.642 244.28 162.142 244.78C162.652 245.28 163.462 245.53 164.572 245.53C165.352 245.53 166.052 245.35 166.672 244.99C167.302 244.62 167.797 244.16 168.157 243.61C168.527 243.06 168.712 242.51 168.712 241.96H169.282C169.282 242.92 169.072 243.81 168.652 244.63C168.242 245.45 167.652 246.11 166.882 246.61C166.112 247.11 165.192 247.36 164.122 247.36ZM186.855 247V238.57C186.855 237.2 186.525 236.16 185.865 235.45C185.215 234.73 184.325 234.37 183.195 234.37C182.335 234.37 181.59 234.605 180.96 235.075C180.33 235.545 179.845 236.22 179.505 237.1C179.165 237.97 178.995 239.01 178.995 240.22H178.095C178.095 238.55 178.315 237.125 178.755 235.945C179.195 234.765 179.835 233.865 180.675 233.245C181.525 232.615 182.555 232.3 183.765 232.3C184.895 232.3 185.86 232.555 186.66 233.065C187.47 233.565 188.09 234.285 188.52 235.225C188.95 236.165 189.165 237.28 189.165 238.57V247H186.855ZM176.655 247V232.66H178.665L178.995 235.96V247H176.655ZM199.89 247.36C198.73 247.36 197.665 247.05 196.695 246.43C195.725 245.8 194.95 244.92 194.37 243.79C193.79 242.65 193.5 241.31 193.5 239.77C193.5 238.24 193.785 236.915 194.355 235.795C194.925 234.675 195.68 233.815 196.62 233.215C197.57 232.605 198.61 232.3 199.74 232.3C200.79 232.3 201.71 232.555 202.5 233.065C203.3 233.575 203.92 234.31 204.36 235.27C204.8 236.23 205.02 237.39 205.02 238.75H204.12C204.12 237.8 203.93 237 203.55 236.35C203.18 235.7 202.695 235.21 202.095 234.88C201.495 234.54 200.85 234.37 200.16 234.37C199.38 234.37 198.665 234.59 198.015 235.03C197.375 235.46 196.86 236.08 196.47 236.89C196.09 237.69 195.9 238.65 195.9 239.77C195.9 240.91 196.09 241.89 196.47 242.71C196.86 243.53 197.375 244.16 198.015 244.6C198.665 245.04 199.38 245.26 200.16 245.26C200.81 245.26 201.435 245.09 202.035 244.75C202.645 244.41 203.145 243.915 203.535 243.265C203.925 242.605 204.12 241.81 204.12 240.88H205.02C205.02 242.27 204.79 243.45 204.33 244.42C203.88 245.38 203.265 246.11 202.485 246.61C201.715 247.11 200.85 247.36 199.89 247.36ZM204.51 247L204.12 243.64V226.54H206.46V247H204.51ZM216.813 230.17V228.16H231.483V230.17H224.778L225.303 229.63V247H222.963V229.63L223.488 230.17H216.813ZM240.965 247L240.665 243.85V237.7C240.665 236.41 240.39 235.485 239.84 234.925C239.29 234.355 238.465 234.07 237.365 234.07C236.745 234.07 236.18 234.16 235.67 234.34C235.17 234.52 234.77 234.8 234.47 235.18C234.18 235.55 234.035 236.03 234.035 236.62H231.425C231.425 235.58 231.68 234.745 232.19 234.115C232.7 233.475 233.4 233.015 234.29 232.735C235.19 232.445 236.215 232.3 237.365 232.3C238.465 232.3 239.44 232.485 240.29 232.855C241.14 233.225 241.805 233.815 242.285 234.625C242.765 235.425 243.005 236.47 243.005 237.76V247H240.965ZM236.075 247.36C234.895 247.36 233.92 247.15 233.15 246.73C232.38 246.31 231.805 245.765 231.425 245.095C231.045 244.425 230.855 243.72 230.855 242.98C230.855 242.01 231.095 241.22 231.575 240.61C232.065 240 232.73 239.555 233.57 239.275C234.41 238.985 235.355 238.84 236.405 238.84C237.155 238.84 237.905 238.915 238.655 239.065C239.415 239.215 240.155 239.42 240.875 239.68V241.15C240.275 240.91 239.595 240.72 238.835 240.58C238.085 240.44 237.395 240.37 236.765 240.37C235.805 240.37 234.995 240.57 234.335 240.97C233.675 241.36 233.345 242.03 233.345 242.98C233.345 243.68 233.595 244.28 234.095 244.78C234.605 245.28 235.415 245.53 236.525 245.53C237.305 245.53 238.005 245.35 238.625 244.99C239.255 244.62 239.75 244.16 240.11 243.61C240.48 243.06 240.665 242.51 240.665 241.96H241.235C241.235 242.92 241.025 243.81 240.605 244.63C240.195 245.45 239.605 246.11 238.835 246.61C238.065 247.11 237.145 247.36 236.075 247.36ZM248.608 247V226.54H250.948V247H248.608ZM262.146 247.36C260.986 247.36 259.921 247.05 258.951 246.43C257.981 245.8 257.206 244.92 256.626 243.79C256.046 242.65 255.756 241.31 255.756 239.77C255.756 238.24 256.041 236.915 256.611 235.795C257.181 234.675 257.936 233.815 258.876 233.215C259.826 232.605 260.866 232.3 261.996 232.3C263.046 232.3 263.966 232.555 264.756 233.065C265.556 233.575 266.176 234.31 266.616 235.27C267.056 236.23 267.276 237.39 267.276 238.75H266.376C266.376 237.8 266.186 237 265.806 236.35C265.436 235.7 264.951 235.21 264.351 234.88C263.751 234.54 263.106 234.37 262.416 234.37C261.636 234.37 260.921 234.59 260.271 235.03C259.631 235.46 259.116 236.08 258.726 236.89C258.346 237.69 258.156 238.65 258.156 239.77C258.156 240.91 258.346 241.89 258.726 242.71C259.116 243.53 259.631 244.16 260.271 244.6C260.921 245.04 261.636 245.26 262.416 245.26C263.066 245.26 263.691 245.09 264.291 244.75C264.901 244.41 265.401 243.915 265.791 243.265C266.181 242.605 266.376 241.81 266.376 240.88H267.276C267.276 242.27 267.046 243.45 266.586 244.42C266.136 245.38 265.521 246.11 264.741 246.61C263.971 247.11 263.106 247.36 262.146 247.36ZM266.766 247L266.376 243.64V226.54H268.716V247H266.766ZM272.43 232.66H275.04L279.72 244.96H279.18L282.81 232.66H285.21L279.81 249.88C279.36 251.32 278.76 252.43 278.01 253.21C277.26 253.99 276.3 254.38 275.13 254.38C274.5 254.38 273.9 254.29 273.33 254.11C272.77 253.93 272.19 253.67 271.59 253.33V251.17C272.12 251.59 272.63 251.89 273.12 252.07C273.62 252.25 274.14 252.34 274.68 252.34C275.28 252.34 275.78 252.15 276.18 251.77C276.59 251.39 276.93 250.9 277.2 250.3C277.47 249.71 277.7 249.09 277.89 248.44L278.31 247L272.43 232.66ZM288.774 247V226.54H291.114V247H288.774ZM290.754 238.78L298.074 232.66H301.344L290.754 241.27V238.78ZM298.794 247L291.984 237.94L294.354 237.52L301.674 247H298.794ZM310.868 247.36C309.578 247.36 308.428 247.075 307.418 246.505C306.418 245.935 305.628 245.09 305.048 243.97C304.468 242.85 304.178 241.47 304.178 239.83C304.178 238.18 304.468 236.8 305.048 235.69C305.628 234.57 306.418 233.725 307.418 233.155C308.428 232.585 309.578 232.3 310.868 232.3C312.148 232.3 313.288 232.585 314.288 233.155C315.298 233.725 316.088 234.57 316.658 235.69C317.238 236.8 317.528 238.18 317.528 239.83C317.528 241.47 317.238 242.85 316.658 243.97C316.088 245.09 315.298 245.935 314.288 246.505C313.288 247.075 312.148 247.36 310.868 247.36ZM310.808 245.32C311.738 245.32 312.528 245.1 313.178 244.66C313.828 244.21 314.318 243.575 314.648 242.755C314.988 241.935 315.158 240.96 315.158 239.83C315.158 238.12 314.803 236.775 314.093 235.795C313.383 234.805 312.328 234.31 310.928 234.31C309.988 234.31 309.193 234.535 308.543 234.985C307.903 235.425 307.413 236.06 307.073 236.89C306.743 237.71 306.578 238.69 306.578 239.83C306.578 241.52 306.933 242.86 307.643 243.85C308.363 244.83 309.418 245.32 310.808 245.32ZM322.085 247V232.63H324.425V247H322.085ZM323.705 240.52C323.705 238.7 323.88 237.19 324.23 235.99C324.58 234.78 325.09 233.88 325.76 233.29C326.44 232.69 327.265 232.39 328.235 232.39C328.555 232.39 328.845 232.415 329.105 232.465C329.375 232.505 329.645 232.57 329.915 232.66L329.765 234.97C329.485 234.88 329.18 234.805 328.85 234.745C328.52 234.675 328.225 234.64 327.965 234.64C327.115 234.64 326.43 234.885 325.91 235.375C325.39 235.855 325.01 236.535 324.77 237.415C324.54 238.295 324.425 239.33 324.425 240.52H323.705ZM337.526 254.38C336.056 254.38 334.781 254.17 333.701 253.75C332.621 253.34 331.781 252.785 331.181 252.085C330.591 251.395 330.296 250.63 330.296 249.79C330.296 248.68 330.701 247.83 331.511 247.24C332.331 246.66 333.386 246.37 334.676 246.37L335.966 247.18C334.886 247.18 334.051 247.405 333.461 247.855C332.871 248.305 332.576 248.92 332.576 249.7C332.576 250.48 332.996 251.14 333.836 251.68C334.676 252.22 335.906 252.49 337.526 252.49C338.726 252.49 339.776 252.315 340.676 251.965C341.586 251.625 342.291 251.175 342.791 250.615C343.301 250.065 343.556 249.47 343.556 248.83C343.556 248.38 343.391 247.99 343.061 247.66C342.731 247.34 342.226 247.18 341.546 247.18H335.966C334.996 247.18 334.156 247.035 333.446 246.745C332.746 246.445 332.206 246.055 331.826 245.575C331.446 245.095 331.256 244.57 331.256 244C331.256 243.4 331.426 242.89 331.766 242.47C332.106 242.05 332.546 241.73 333.086 241.51C333.636 241.29 334.226 241.18 334.856 241.18L335.306 242.05C335.006 242.05 334.701 242.12 334.391 242.26C334.091 242.39 333.836 242.59 333.626 242.86C333.426 243.12 333.326 243.45 333.326 243.85C333.326 244.31 333.516 244.695 333.896 245.005C334.276 245.315 334.966 245.47 335.966 245.47H341.546C342.896 245.47 343.956 245.755 344.726 246.325C345.506 246.895 345.896 247.69 345.896 248.71C345.896 249.65 345.561 250.55 344.891 251.41C344.221 252.28 343.261 252.99 342.011 253.54C340.761 254.1 339.266 254.38 337.526 254.38ZM337.946 242.8C336.846 242.8 335.851 242.58 334.961 242.14C334.081 241.7 333.381 241.085 332.861 240.295C332.351 239.505 332.096 238.59 332.096 237.55C332.096 236.5 332.351 235.58 332.861 234.79C333.381 234 334.081 233.39 334.961 232.96C335.851 232.52 336.846 232.3 337.946 232.3C339.016 232.3 339.986 232.52 340.856 232.96C341.736 233.39 342.436 234 342.956 234.79C343.476 235.58 343.736 236.5 343.736 237.55C343.736 238.59 343.476 239.505 342.956 240.295C342.436 241.085 341.736 241.7 340.856 242.14C339.986 242.58 339.016 242.8 337.946 242.8ZM337.946 241.12C339.046 241.12 339.901 240.78 340.511 240.1C341.121 239.42 341.426 238.57 341.426 237.55C341.426 236.5 341.121 235.65 340.511 235C339.901 234.34 339.046 234.01 337.946 234.01C336.856 234.01 335.996 234.34 335.366 235C334.746 235.65 334.436 236.5 334.436 237.55C334.436 238.57 334.746 239.42 335.366 240.1C335.996 240.78 336.856 241.12 337.946 241.12ZM342.656 234.58L341.546 234.13C341.546 233.29 341.711 232.555 342.041 231.925C342.371 231.285 342.841 230.79 343.451 230.44C344.061 230.08 344.786 229.9 345.626 229.9L345.446 232.21C344.546 232.21 343.856 232.405 343.376 232.795C342.896 233.175 342.656 233.77 342.656 234.58ZM358.269 247L357.969 243.85V237.7C357.969 236.41 357.694 235.485 357.144 234.925C356.594 234.355 355.769 234.07 354.669 234.07C354.049 234.07 353.484 234.16 352.974 234.34C352.474 234.52 352.074 234.8 351.774 235.18C351.484 235.55 351.339 236.03 351.339 236.62H348.729C348.729 235.58 348.984 234.745 349.494 234.115C350.004 233.475 350.704 233.015 351.594 232.735C352.494 232.445 353.519 232.3 354.669 232.3C355.769 232.3 356.744 232.485 357.594 232.855C358.444 233.225 359.109 233.815 359.589 234.625C360.069 235.425 360.309 236.47 360.309 237.76V247H358.269ZM353.379 247.36C352.199 247.36 351.224 247.15 350.454 246.73C349.684 246.31 349.109 245.765 348.729 245.095C348.349 244.425 348.159 243.72 348.159 242.98C348.159 242.01 348.399 241.22 348.879 240.61C349.369 240 350.034 239.555 350.874 239.275C351.714 238.985 352.659 238.84 353.709 238.84C354.459 238.84 355.209 238.915 355.959 239.065C356.719 239.215 357.459 239.42 358.179 239.68V241.15C357.579 240.91 356.899 240.72 356.139 240.58C355.389 240.44 354.699 240.37 354.069 240.37C353.109 240.37 352.299 240.57 351.639 240.97C350.979 241.36 350.649 242.03 350.649 242.98C350.649 243.68 350.899 244.28 351.399 244.78C351.909 245.28 352.719 245.53 353.829 245.53C354.609 245.53 355.309 245.35 355.929 244.99C356.559 244.62 357.054 244.16 357.414 243.61C357.784 243.06 357.969 242.51 357.969 241.96H358.539C358.539 242.92 358.329 243.81 357.909 244.63C357.499 245.45 356.909 246.11 356.139 246.61C355.369 247.11 354.449 247.36 353.379 247.36ZM376.113 247V238.57C376.113 237.2 375.783 236.16 375.123 235.45C374.473 234.73 373.583 234.37 372.453 234.37C371.593 234.37 370.848 234.605 370.218 235.075C369.588 235.545 369.103 236.22 368.763 237.1C368.423 237.97 368.253 239.01 368.253 240.22H367.353C367.353 238.55 367.573 237.125 368.013 235.945C368.453 234.765 369.093 233.865 369.933 233.245C370.783 232.615 371.813 232.3 373.023 232.3C374.153 232.3 375.118 232.555 375.918 233.065C376.728 233.565 377.348 234.285 377.778 235.225C378.208 236.165 378.423 237.28 378.423 238.57V247H376.113ZM365.913 247V232.66H367.923L368.253 235.96V247H365.913ZM382.668 244.615C382.668 244.145 382.833 243.74 383.163 243.4C383.493 243.06 383.908 242.89 384.408 242.89C384.908 242.89 385.333 243.06 385.683 243.4C386.033 243.74 386.208 244.145 386.208 244.615C386.208 245.085 386.033 245.48 385.683 245.8C385.333 246.12 384.908 246.28 384.408 246.28C383.908 246.28 383.493 246.12 383.163 245.8C382.833 245.47 382.668 245.075 382.668 244.615ZM382.668 235.435C382.668 234.965 382.833 234.56 383.163 234.22C383.493 233.88 383.908 233.71 384.408 233.71C384.908 233.71 385.333 233.88 385.683 234.22C386.033 234.56 386.208 234.965 386.208 235.435C386.208 235.905 386.033 236.3 385.683 236.62C385.333 236.94 384.908 237.1 384.408 237.1C383.908 237.1 383.493 236.94 383.163 236.62C382.833 236.29 382.668 235.895 382.668 235.435ZM401.771 232.27H404.081V238.63H410.291V240.64H404.081V247H401.771V240.64H395.561V238.63H401.771V232.27ZM412.612 247L421.642 230.38H411.562V228.16H424.402V230.32L415.732 247H412.612ZM426.704 247L435.734 230.38H425.654V228.16H438.494V230.32L429.824 247H426.704ZM440.945 247V244.21C440.945 243.12 441.12 242.21 441.47 241.48C441.83 240.75 442.33 240.145 442.97 239.665C443.62 239.185 444.385 238.77 445.265 238.42L448.985 236.95C449.945 236.56 450.665 236.06 451.145 235.45C451.625 234.84 451.865 234.08 451.865 233.17C451.865 232.21 451.53 231.425 450.86 230.815C450.2 230.205 449.275 229.9 448.085 229.9C446.905 229.9 445.935 230.155 445.175 230.665C444.425 231.165 443.995 231.92 443.885 232.93H441.275C441.345 231.84 441.665 230.915 442.235 230.155C442.815 229.395 443.6 228.82 444.59 228.43C445.58 228.03 446.735 227.83 448.055 227.83C449.265 227.83 450.35 228.065 451.31 228.535C452.27 229.005 453.025 229.655 453.575 230.485C454.135 231.305 454.415 232.25 454.415 233.32C454.415 234.29 454.235 235.135 453.875 235.855C453.515 236.575 453 237.195 452.33 237.715C451.67 238.235 450.885 238.68 449.975 239.05L446.165 240.58C445.205 240.95 444.485 241.395 444.005 241.915C443.525 242.435 443.285 243.11 443.285 243.94V244.84H454.235V247H440.945ZM458.168 247L467.198 230.38H457.118V228.16H469.958V230.32L461.288 247H458.168ZM479.4 247.36C478.46 247.36 477.55 247.23 476.67 246.97C475.8 246.7 475.015 246.31 474.315 245.8C473.625 245.28 473.08 244.64 472.68 243.88C472.28 243.12 472.08 242.24 472.08 241.24H474.48C474.5 242.1 474.73 242.825 475.17 243.415C475.61 244.005 476.195 244.45 476.925 244.75C477.665 245.05 478.49 245.2 479.4 245.2C480.8 245.2 481.885 244.86 482.655 244.18C483.425 243.5 483.81 242.65 483.81 241.63C483.81 240.98 483.65 240.405 483.33 239.905C483.01 239.405 482.5 239.015 481.8 238.735C481.11 238.445 480.2 238.3 479.07 238.3H476.94V236.44H478.38C479.84 236.44 480.99 236.15 481.83 235.57C482.67 234.99 483.09 234.19 483.09 233.17C483.09 232.27 482.75 231.51 482.07 230.89C481.39 230.27 480.42 229.96 479.16 229.96C478.19 229.96 477.325 230.16 476.565 230.56C475.805 230.95 475.29 231.67 475.02 232.72H472.62C472.78 231.55 473.16 230.605 473.76 229.885C474.36 229.165 475.12 228.645 476.04 228.325C476.96 227.995 477.98 227.83 479.1 227.83C480.35 227.83 481.465 228.05 482.445 228.49C483.425 228.93 484.195 229.535 484.755 230.305C485.325 231.075 485.61 231.96 485.61 232.96C485.61 233.95 485.325 234.8 484.755 235.51C484.195 236.21 483.38 236.75 482.31 237.13C483.5 237.47 484.47 238.03 485.22 238.81C485.98 239.59 486.36 240.59 486.36 241.81C486.36 242.89 486.075 243.85 485.505 244.69C484.945 245.52 484.145 246.175 483.105 246.655C482.065 247.125 480.83 247.36 479.4 247.36ZM497.245 247.36C495.735 247.36 494.415 246.945 493.285 246.115C492.165 245.285 491.295 244.16 490.675 242.74C490.055 241.31 489.745 239.7 489.745 237.91C489.745 235.8 490.06 233.995 490.69 232.495C491.32 230.985 492.22 229.83 493.39 229.03C494.56 228.23 495.955 227.83 497.575 227.83C498.695 227.83 499.68 228.045 500.53 228.475C501.39 228.895 502.075 229.485 502.585 230.245C503.105 231.005 503.415 231.89 503.515 232.9H500.965C500.815 232 500.475 231.285 499.945 230.755C499.415 230.225 498.645 229.96 497.635 229.96C495.915 229.96 494.565 230.705 493.585 232.195C492.605 233.675 492.115 235.7 492.115 238.27C492.115 238.64 492.125 239.07 492.145 239.56C492.165 240.04 492.205 240.49 492.265 240.91C492.355 239.58 492.66 238.535 493.18 237.775C493.71 237.005 494.37 236.46 495.16 236.14C495.95 235.82 496.785 235.66 497.665 235.66C498.805 235.66 499.825 235.91 500.725 236.41C501.635 236.91 502.35 237.605 502.87 238.495C503.4 239.375 503.665 240.39 503.665 241.54C503.665 242.7 503.395 243.72 502.855 244.6C502.315 245.47 501.56 246.15 500.59 246.64C499.63 247.12 498.515 247.36 497.245 247.36ZM497.245 245.2C498.385 245.2 499.33 244.865 500.08 244.195C500.83 243.525 501.205 242.62 501.205 241.48C501.205 240.31 500.83 239.395 500.08 238.735C499.33 238.065 498.385 237.73 497.245 237.73C496.495 237.73 495.825 237.895 495.235 238.225C494.645 238.545 494.175 238.99 493.825 239.56C493.485 240.12 493.315 240.76 493.315 241.48C493.315 242.62 493.69 243.525 494.44 244.195C495.19 244.865 496.125 245.2 497.245 245.2ZM516.033 227.89H518.223V240.43H521.493V242.41H518.223V247H515.913V242.41H506.163V240.61L516.033 227.89ZM516.003 231.58L508.953 240.61H516.003V231.58ZM523.911 247L532.941 230.38H522.861V228.16H535.701V230.32L527.031 247H523.911ZM538.002 247L547.032 230.38H536.952V228.16H549.792V230.32L541.122 247H538.002ZM552.094 247L561.124 230.38H551.044V228.16H563.884V230.32L555.214 247H552.094ZM566.186 247L575.216 230.38H565.136V228.16H577.976V230.32L569.306 247H566.186ZM131.405 263.16H134.195L143.765 278.67H143.555V263.16H145.895V282H143.285L133.385 265.98H133.745V282H131.405V263.16ZM157.133 282.36C155.843 282.36 154.693 282.075 153.683 281.505C152.683 280.935 151.893 280.09 151.313 278.97C150.733 277.85 150.443 276.47 150.443 274.83C150.443 273.18 150.733 271.8 151.313 270.69C151.893 269.57 152.683 268.725 153.683 268.155C154.693 267.585 155.843 267.3 157.133 267.3C158.413 267.3 159.553 267.585 160.553 268.155C161.563 268.725 162.353 269.57 162.923 270.69C163.503 271.8 163.793 273.18 163.793 274.83C163.793 276.47 163.503 277.85 162.923 278.97C162.353 280.09 161.563 280.935 160.553 281.505C159.553 282.075 158.413 282.36 157.133 282.36ZM157.073 280.32C158.003 280.32 158.793 280.1 159.443 279.66C160.093 279.21 160.583 278.575 160.913 277.755C161.253 276.935 161.423 275.96 161.423 274.83C161.423 273.12 161.068 271.775 160.358 270.795C159.648 269.805 158.593 269.31 157.193 269.31C156.253 269.31 155.458 269.535 154.808 269.985C154.168 270.425 153.678 271.06 153.338 271.89C153.008 272.71 152.843 273.69 152.843 274.83C152.843 276.52 153.198 277.86 153.908 278.85C154.628 279.83 155.683 280.32 157.073 280.32ZM165.859 267.66H168.529L173.029 279.99H172.699L177.199 267.66H179.869L174.139 282H171.589L165.859 267.66ZM188.627 282.36C187.337 282.36 186.187 282.075 185.177 281.505C184.177 280.935 183.387 280.09 182.807 278.97C182.227 277.85 181.937 276.47 181.937 274.83C181.937 273.18 182.227 271.8 182.807 270.69C183.387 269.57 184.177 268.725 185.177 268.155C186.187 267.585 187.337 267.3 188.627 267.3C189.907 267.3 191.047 267.585 192.047 268.155C193.057 268.725 193.847 269.57 194.417 270.69C194.997 271.8 195.287 273.18 195.287 274.83C195.287 276.47 194.997 277.85 194.417 278.97C193.847 280.09 193.057 280.935 192.047 281.505C191.047 282.075 189.907 282.36 188.627 282.36ZM188.567 280.32C189.497 280.32 190.287 280.1 190.937 279.66C191.587 279.21 192.077 278.575 192.407 277.755C192.747 276.935 192.917 275.96 192.917 274.83C192.917 273.12 192.562 271.775 191.852 270.795C191.142 269.805 190.087 269.31 188.687 269.31C187.747 269.31 186.952 269.535 186.302 269.985C185.662 270.425 185.172 271.06 184.832 271.89C184.502 272.71 184.337 273.69 184.337 274.83C184.337 276.52 184.692 277.86 185.402 278.85C186.122 279.83 187.177 280.32 188.567 280.32ZM205.003 282.36C203.613 282.36 202.453 282.165 201.523 281.775C200.593 281.375 199.888 280.83 199.408 280.14C198.928 279.44 198.673 278.64 198.643 277.74H200.893C200.943 278.65 201.308 279.335 201.988 279.795C202.678 280.245 203.613 280.47 204.793 280.47C205.413 280.47 205.983 280.37 206.503 280.17C207.023 279.97 207.438 279.695 207.748 279.345C208.058 278.995 208.213 278.6 208.213 278.16C208.213 277.6 208.008 277.16 207.598 276.84C207.188 276.52 206.533 276.24 205.633 276L202.843 275.1C201.633 274.72 200.703 274.2 200.053 273.54C199.413 272.87 199.093 272.07 199.093 271.14C199.093 269.98 199.603 269.05 200.623 268.35C201.643 267.65 202.983 267.3 204.643 267.3C206.403 267.3 207.768 267.66 208.738 268.38C209.708 269.1 210.213 270 210.253 271.08H207.943C207.853 270.45 207.533 269.975 206.983 269.655C206.433 269.325 205.653 269.16 204.643 269.16C203.673 269.16 202.913 269.38 202.363 269.82C201.823 270.25 201.553 270.73 201.553 271.26C201.553 272.25 202.403 272.98 204.103 273.45L206.953 274.41C208.183 274.78 209.123 275.265 209.773 275.865C210.433 276.465 210.763 277.23 210.763 278.16C210.763 278.88 210.528 279.56 210.058 280.2C209.588 280.84 208.923 281.36 208.063 281.76C207.203 282.16 206.183 282.36 205.003 282.36ZM216.925 264.27C216.445 264.27 216.065 264.135 215.785 263.865C215.505 263.585 215.365 263.22 215.365 262.77C215.365 262.33 215.505 261.98 215.785 261.72C216.065 261.46 216.445 261.33 216.925 261.33C217.405 261.33 217.785 261.46 218.065 261.72C218.345 261.98 218.485 262.33 218.485 262.77C218.485 263.22 218.345 263.585 218.065 263.865C217.785 264.135 217.405 264.27 216.925 264.27ZM215.755 282V267.63H218.095V282H215.755ZM231.111 282.36C230.151 282.36 229.281 282.11 228.501 281.61C227.731 281.11 227.116 280.38 226.656 279.42C226.206 278.45 225.981 277.27 225.981 275.88H226.881C226.881 276.81 227.071 277.605 227.451 278.265C227.841 278.915 228.341 279.41 228.951 279.75C229.561 280.09 230.201 280.26 230.871 280.26C231.641 280.26 232.346 280.04 232.986 279.6C233.626 279.16 234.136 278.53 234.516 277.71C234.906 276.89 235.101 275.91 235.101 274.77C235.101 273.65 234.911 272.69 234.531 271.89C234.151 271.08 233.636 270.46 232.986 270.03C232.346 269.59 231.631 269.37 230.841 269.37C230.161 269.37 229.516 269.54 228.906 269.88C228.306 270.21 227.816 270.7 227.436 271.35C227.066 272 226.881 272.8 226.881 273.75H225.981C225.981 272.39 226.201 271.23 226.641 270.27C227.091 269.31 227.711 268.575 228.501 268.065C229.291 267.555 230.211 267.3 231.261 267.3C232.391 267.3 233.426 267.605 234.366 268.215C235.316 268.815 236.076 269.675 236.646 270.795C237.216 271.915 237.501 273.24 237.501 274.77C237.501 276.31 237.211 277.65 236.631 278.79C236.051 279.92 235.276 280.8 234.306 281.43C233.336 282.05 232.271 282.36 231.111 282.36ZM224.541 282V261.54H226.881V278.64L226.191 282H224.541ZM243.644 264.27C243.164 264.27 242.784 264.135 242.504 263.865C242.224 263.585 242.084 263.22 242.084 262.77C242.084 262.33 242.224 261.98 242.504 261.72C242.784 261.46 243.164 261.33 243.644 261.33C244.124 261.33 244.504 261.46 244.784 261.72C245.064 261.98 245.204 262.33 245.204 262.77C245.204 263.22 245.064 263.585 244.784 263.865C244.504 264.135 244.124 264.27 243.644 264.27ZM242.474 282V267.63H244.814V282H242.474ZM251.259 282V267.63H253.599V282H251.259ZM252.879 275.52C252.879 273.7 253.054 272.19 253.404 270.99C253.754 269.78 254.264 268.88 254.934 268.29C255.614 267.69 256.439 267.39 257.409 267.39C257.729 267.39 258.019 267.415 258.279 267.465C258.549 267.505 258.819 267.57 259.089 267.66L258.939 269.97C258.659 269.88 258.354 269.805 258.024 269.745C257.694 269.675 257.399 269.64 257.139 269.64C256.289 269.64 255.604 269.885 255.084 270.375C254.564 270.855 254.184 271.535 253.944 272.415C253.714 273.295 253.599 274.33 253.599 275.52H252.879ZM267.259 282.36C265.869 282.36 264.709 282.165 263.779 281.775C262.849 281.375 262.144 280.83 261.664 280.14C261.184 279.44 260.929 278.64 260.899 277.74H263.149C263.199 278.65 263.564 279.335 264.244 279.795C264.934 280.245 265.869 280.47 267.049 280.47C267.669 280.47 268.239 280.37 268.759 280.17C269.279 279.97 269.694 279.695 270.004 279.345C270.314 278.995 270.469 278.6 270.469 278.16C270.469 277.6 270.264 277.16 269.854 276.84C269.444 276.52 268.789 276.24 267.889 276L265.099 275.1C263.889 274.72 262.959 274.2 262.309 273.54C261.669 272.87 261.349 272.07 261.349 271.14C261.349 269.98 261.859 269.05 262.879 268.35C263.899 267.65 265.239 267.3 266.899 267.3C268.659 267.3 270.024 267.66 270.994 268.38C271.964 269.1 272.469 270 272.509 271.08H270.199C270.109 270.45 269.789 269.975 269.239 269.655C268.689 269.325 267.909 269.16 266.899 269.16C265.929 269.16 265.169 269.38 264.619 269.82C264.079 270.25 263.809 270.73 263.809 271.26C263.809 272.25 264.659 272.98 266.359 273.45L269.209 274.41C270.439 274.78 271.379 275.265 272.029 275.865C272.689 276.465 273.019 277.23 273.019 278.16C273.019 278.88 272.784 279.56 272.314 280.2C271.844 280.84 271.179 281.36 270.319 281.76C269.459 282.16 268.439 282.36 267.259 282.36ZM277.861 282V261.54H280.201V282H277.861ZM279.841 273.78L287.161 267.66H290.431L279.841 276.27V273.78ZM287.881 282L281.071 272.94L283.441 272.52L290.761 282H287.881ZM293.415 279.615C293.415 279.145 293.58 278.74 293.91 278.4C294.24 278.06 294.655 277.89 295.155 277.89C295.655 277.89 296.08 278.06 296.43 278.4C296.78 278.74 296.955 279.145 296.955 279.615C296.955 280.085 296.78 280.48 296.43 280.8C296.08 281.12 295.655 281.28 295.155 281.28C294.655 281.28 294.24 281.12 293.91 280.8C293.58 280.47 293.415 280.075 293.415 279.615ZM293.415 270.435C293.415 269.965 293.58 269.56 293.91 269.22C294.24 268.88 294.655 268.71 295.155 268.71C295.655 268.71 296.08 268.88 296.43 269.22C296.78 269.56 296.955 269.965 296.955 270.435C296.955 270.905 296.78 271.3 296.43 271.62C296.08 271.94 295.655 272.1 295.155 272.1C294.655 272.1 294.24 271.94 293.91 271.62C293.58 271.29 293.415 270.895 293.415 270.435ZM312.519 267.27H314.829V273.63H321.039V275.64H314.829V282H312.519V275.64H306.309V273.63H312.519V267.27ZM323.359 282L332.389 265.38H322.309V263.16H335.149V265.32L326.479 282H323.359ZM344.591 282.36C343.651 282.36 342.741 282.23 341.861 281.97C340.991 281.7 340.206 281.31 339.506 280.8C338.816 280.28 338.271 279.64 337.871 278.88C337.471 278.12 337.271 277.24 337.271 276.24H339.671C339.691 277.1 339.921 277.825 340.361 278.415C340.801 279.005 341.386 279.45 342.116 279.75C342.856 280.05 343.681 280.2 344.591 280.2C345.991 280.2 347.076 279.86 347.846 279.18C348.616 278.5 349.001 277.65 349.001 276.63C349.001 275.98 348.841 275.405 348.521 274.905C348.201 274.405 347.691 274.015 346.991 273.735C346.301 273.445 345.391 273.3 344.261 273.3H342.131V271.44H343.571C345.031 271.44 346.181 271.15 347.021 270.57C347.861 269.99 348.281 269.19 348.281 268.17C348.281 267.27 347.941 266.51 347.261 265.89C346.581 265.27 345.611 264.96 344.351 264.96C343.381 264.96 342.516 265.16 341.756 265.56C340.996 265.95 340.481 266.67 340.211 267.72H337.811C337.971 266.55 338.351 265.605 338.951 264.885C339.551 264.165 340.311 263.645 341.231 263.325C342.151 262.995 343.171 262.83 344.291 262.83C345.541 262.83 346.656 263.05 347.636 263.49C348.616 263.93 349.386 264.535 349.946 265.305C350.516 266.075 350.801 266.96 350.801 267.96C350.801 268.95 350.516 269.8 349.946 270.51C349.386 271.21 348.571 271.75 347.501 272.13C348.691 272.47 349.661 273.03 350.411 273.81C351.171 274.59 351.551 275.59 351.551 276.81C351.551 277.89 351.266 278.85 350.696 279.69C350.136 280.52 349.336 281.175 348.296 281.655C347.256 282.125 346.021 282.36 344.591 282.36ZM362.615 282.36C361.135 282.36 359.825 282.125 358.685 281.655C357.555 281.185 356.665 280.54 356.015 279.72C355.375 278.9 355.055 277.97 355.055 276.93C355.055 275.98 355.3 275.165 355.79 274.485C356.29 273.805 356.97 273.285 357.83 272.925C358.7 272.555 359.685 272.37 360.785 272.37C361.075 272.37 361.355 272.385 361.625 272.415C361.895 272.445 362.185 272.5 362.495 272.58V273.27C361.495 273.27 360.62 273.435 359.87 273.765C359.12 274.085 358.535 274.51 358.115 275.04C357.695 275.57 357.485 276.14 357.485 276.75C357.485 277.49 357.71 278.12 358.16 278.64C358.61 279.15 359.22 279.54 359.99 279.81C360.77 280.07 361.645 280.2 362.615 280.2C364.235 280.2 365.495 279.94 366.395 279.42C367.295 278.9 367.745 278.22 367.745 277.38C367.745 276.7 367.505 276.14 367.025 275.7C366.555 275.26 365.905 274.89 365.075 274.59L359.885 272.61C359.255 272.37 358.615 272.04 357.965 271.62C357.325 271.2 356.785 270.675 356.345 270.045C355.905 269.415 355.685 268.67 355.685 267.81C355.685 266.84 355.96 265.98 356.51 265.23C357.06 264.48 357.85 263.895 358.88 263.475C359.92 263.045 361.165 262.83 362.615 262.83C363.945 262.83 365.125 263.06 366.155 263.52C367.195 263.97 368.01 264.59 368.6 265.38C369.19 266.16 369.485 267.05 369.485 268.05C369.485 268.83 369.285 269.555 368.885 270.225C368.495 270.885 367.915 271.42 367.145 271.83C366.385 272.23 365.445 272.43 364.325 272.43C364.055 272.43 363.795 272.415 363.545 272.385C363.305 272.345 363.035 272.28 362.735 272.19V271.44C363.545 271.44 364.275 271.305 364.925 271.035C365.575 270.755 366.09 270.37 366.47 269.88C366.86 269.39 367.055 268.82 367.055 268.17C367.055 267.55 366.865 267 366.485 266.52C366.115 266.03 365.595 265.65 364.925 265.38C364.265 265.1 363.495 264.96 362.615 264.96C361.765 264.96 361 265.095 360.32 265.365C359.65 265.625 359.12 265.98 358.73 266.43C358.34 266.87 358.145 267.36 358.145 267.9C358.145 268.57 358.37 269.11 358.82 269.52C359.28 269.92 359.915 270.27 360.725 270.57L365.915 272.55C367.295 273.07 368.355 273.685 369.095 274.395C369.835 275.105 370.205 276.07 370.205 277.29C370.205 278.28 369.905 279.16 369.305 279.93C368.705 280.69 367.84 281.285 366.71 281.715C365.58 282.145 364.215 282.36 362.615 282.36ZM380.743 282.36C379.803 282.36 378.893 282.23 378.013 281.97C377.143 281.7 376.358 281.31 375.658 280.8C374.968 280.28 374.423 279.64 374.023 278.88C373.623 278.12 373.423 277.24 373.423 276.24H375.823C375.843 277.1 376.073 277.825 376.513 278.415C376.953 279.005 377.538 279.45 378.268 279.75C379.008 280.05 379.833 280.2 380.743 280.2C382.143 280.2 383.228 279.86 383.998 279.18C384.768 278.5 385.153 277.65 385.153 276.63C385.153 275.98 384.993 275.405 384.673 274.905C384.353 274.405 383.843 274.015 383.143 273.735C382.453 273.445 381.543 273.3 380.413 273.3H378.283V271.44H379.723C381.183 271.44 382.333 271.15 383.173 270.57C384.013 269.99 384.433 269.19 384.433 268.17C384.433 267.27 384.093 266.51 383.413 265.89C382.733 265.27 381.763 264.96 380.503 264.96C379.533 264.96 378.668 265.16 377.908 265.56C377.148 265.95 376.633 266.67 376.363 267.72H373.963C374.123 266.55 374.503 265.605 375.103 264.885C375.703 264.165 376.463 263.645 377.383 263.325C378.303 262.995 379.323 262.83 380.443 262.83C381.693 262.83 382.808 263.05 383.788 263.49C384.768 263.93 385.538 264.535 386.098 265.305C386.668 266.075 386.953 266.96 386.953 267.96C386.953 268.95 386.668 269.8 386.098 270.51C385.538 271.21 384.723 271.75 383.653 272.13C384.843 272.47 385.813 273.03 386.563 273.81C387.323 274.59 387.703 275.59 387.703 276.81C387.703 277.89 387.418 278.85 386.848 279.69C386.288 280.52 385.488 281.175 384.448 281.655C383.408 282.125 382.173 282.36 380.743 282.36ZM391.478 282V279.21C391.478 278.12 391.653 277.21 392.003 276.48C392.363 275.75 392.863 275.145 393.503 274.665C394.153 274.185 394.918 273.77 395.798 273.42L399.518 271.95C400.478 271.56 401.198 271.06 401.678 270.45C402.158 269.84 402.398 269.08 402.398 268.17C402.398 267.21 402.063 266.425 401.393 265.815C400.733 265.205 399.808 264.9 398.618 264.9C397.438 264.9 396.468 265.155 395.708 265.665C394.958 266.165 394.528 266.92 394.418 267.93H391.808C391.878 266.84 392.198 265.915 392.768 265.155C393.348 264.395 394.133 263.82 395.123 263.43C396.113 263.03 397.268 262.83 398.588 262.83C399.798 262.83 400.883 263.065 401.843 263.535C402.803 264.005 403.558 264.655 404.108 265.485C404.668 266.305 404.948 267.25 404.948 268.32C404.948 269.29 404.768 270.135 404.408 270.855C404.048 271.575 403.533 272.195 402.863 272.715C402.203 273.235 401.418 273.68 400.508 274.05L396.698 275.58C395.738 275.95 395.018 276.395 394.538 276.915C394.058 277.435 393.818 278.11 393.818 278.94V279.84H404.768V282H391.478ZM415.841 282.36C414.361 282.36 413.066 282 411.956 281.28C410.856 280.56 409.996 279.475 409.376 278.025C408.766 276.575 408.461 274.76 408.461 272.58C408.461 270.4 408.766 268.59 409.376 267.15C409.996 265.7 410.856 264.62 411.956 263.91C413.066 263.19 414.361 262.83 415.841 262.83C417.311 262.83 418.601 263.19 419.711 263.91C420.821 264.62 421.681 265.7 422.291 267.15C422.911 268.59 423.221 270.4 423.221 272.58C423.221 274.76 422.911 276.575 422.291 278.025C421.681 279.475 420.821 280.56 419.711 281.28C418.601 282 417.311 282.36 415.841 282.36ZM415.841 280.2C417.461 280.2 418.691 279.54 419.531 278.22C420.371 276.89 420.791 275.01 420.791 272.58C420.791 270.15 420.371 268.275 419.531 266.955C418.691 265.625 417.461 264.96 415.841 264.96C414.241 264.96 413.016 265.625 412.166 266.955C411.316 268.275 410.891 270.15 410.891 272.58C410.891 275.01 411.316 276.89 412.166 278.22C413.016 279.54 414.241 280.2 415.841 280.2ZM426.663 282V279.21C426.663 278.12 426.838 277.21 427.188 276.48C427.548 275.75 428.048 275.145 428.688 274.665C429.338 274.185 430.103 273.77 430.983 273.42L434.703 271.95C435.663 271.56 436.383 271.06 436.863 270.45C437.343 269.84 437.583 269.08 437.583 268.17C437.583 267.21 437.248 266.425 436.578 265.815C435.918 265.205 434.993 264.9 433.803 264.9C432.623 264.9 431.653 265.155 430.893 265.665C430.143 266.165 429.713 266.92 429.603 267.93H426.993C427.063 266.84 427.383 265.915 427.953 265.155C428.533 264.395 429.318 263.82 430.308 263.43C431.298 263.03 432.453 262.83 433.773 262.83C434.983 262.83 436.068 263.065 437.028 263.535C437.988 264.005 438.743 264.655 439.293 265.485C439.853 266.305 440.133 267.25 440.133 268.32C440.133 269.29 439.953 270.135 439.593 270.855C439.233 271.575 438.718 272.195 438.048 272.715C437.388 273.235 436.603 273.68 435.693 274.05L431.883 275.58C430.923 275.95 430.203 276.395 429.723 276.915C429.243 277.435 429.003 278.11 429.003 278.94V279.84H439.953V282H426.663ZM447.096 263.1H448.986V282H446.646V265.86C446.166 266.19 445.661 266.445 445.131 266.625C444.611 266.795 444.086 266.89 443.556 266.91V264.63C444.186 264.54 444.796 264.375 445.386 264.135C445.986 263.895 446.556 263.55 447.096 263.1ZM460.929 282.36C459.449 282.36 458.154 282 457.044 281.28C455.944 280.56 455.084 279.475 454.464 278.025C453.854 276.575 453.549 274.76 453.549 272.58C453.549 270.4 453.854 268.59 454.464 267.15C455.084 265.7 455.944 264.62 457.044 263.91C458.154 263.19 459.449 262.83 460.929 262.83C462.399 262.83 463.689 263.19 464.799 263.91C465.909 264.62 466.769 265.7 467.379 267.15C467.999 268.59 468.309 270.4 468.309 272.58C468.309 274.76 467.999 276.575 467.379 278.025C466.769 279.475 465.909 280.56 464.799 281.28C463.689 282 462.399 282.36 460.929 282.36ZM460.929 280.2C462.549 280.2 463.779 279.54 464.619 278.22C465.459 276.89 465.879 275.01 465.879 272.58C465.879 270.15 465.459 268.275 464.619 266.955C463.779 265.625 462.549 264.96 460.929 264.96C459.329 264.96 458.104 265.625 457.254 266.955C456.404 268.275 455.979 270.15 455.979 272.58C455.979 275.01 456.404 276.89 457.254 278.22C458.104 279.54 459.329 280.2 460.929 280.2ZM471.751 282V279.21C471.751 278.12 471.926 277.21 472.276 276.48C472.636 275.75 473.136 275.145 473.776 274.665C474.426 274.185 475.191 273.77 476.071 273.42L479.791 271.95C480.751 271.56 481.471 271.06 481.951 270.45C482.431 269.84 482.671 269.08 482.671 268.17C482.671 267.21 482.336 266.425 481.666 265.815C481.006 265.205 480.081 264.9 478.891 264.9C477.711 264.9 476.741 265.155 475.981 265.665C475.231 266.165 474.801 266.92 474.691 267.93H472.081C472.151 266.84 472.471 265.915 473.041 265.155C473.621 264.395 474.406 263.82 475.396 263.43C476.386 263.03 477.541 262.83 478.861 262.83C480.071 262.83 481.156 263.065 482.116 263.535C483.076 264.005 483.831 264.655 484.381 265.485C484.941 266.305 485.221 267.25 485.221 268.32C485.221 269.29 485.041 270.135 484.681 270.855C484.321 271.575 483.806 272.195 483.136 272.715C482.476 273.235 481.691 273.68 480.781 274.05L476.971 275.58C476.011 275.95 475.291 276.395 474.811 276.915C474.331 277.435 474.091 278.11 474.091 278.94V279.84H485.041V282H471.751ZM495.724 282.36C494.484 282.36 493.379 282.105 492.409 281.595C491.449 281.085 490.689 280.385 490.129 279.495C489.579 278.595 489.304 277.57 489.304 276.42H491.734C491.764 277.57 492.124 278.49 492.814 279.18C493.514 279.86 494.464 280.2 495.664 280.2C496.844 280.2 497.799 279.86 498.529 279.18C499.269 278.5 499.809 277.54 500.149 276.3C500.499 275.05 500.674 273.58 500.674 271.89C500.674 271.5 500.664 271.14 500.644 270.81C500.624 270.47 500.584 270.09 500.524 269.67C500.394 270.75 500.084 271.65 499.594 272.37C499.104 273.08 498.474 273.615 497.704 273.975C496.944 274.325 496.084 274.5 495.124 274.5C494.004 274.5 492.994 274.25 492.094 273.75C491.204 273.24 490.494 272.545 489.964 271.665C489.444 270.775 489.184 269.76 489.184 268.62C489.184 267.45 489.449 266.43 489.979 265.56C490.519 264.69 491.269 264.02 492.229 263.55C493.189 263.07 494.304 262.83 495.574 262.83C496.654 262.83 497.649 263.05 498.559 263.49C499.479 263.93 500.274 264.565 500.944 265.395C501.614 266.215 502.134 267.2 502.504 268.35C502.884 269.5 503.074 270.79 503.074 272.22C503.074 274.29 502.809 276.085 502.279 277.605C501.759 279.125 500.954 280.3 499.864 281.13C498.784 281.95 497.404 282.36 495.724 282.36ZM495.574 272.43C496.314 272.43 496.984 272.265 497.584 271.935C498.184 271.605 498.659 271.16 499.009 270.6C499.359 270.04 499.534 269.41 499.534 268.71C499.534 267.55 499.149 266.635 498.379 265.965C497.619 265.295 496.684 264.96 495.574 264.96C494.434 264.96 493.489 265.295 492.739 265.965C491.989 266.635 491.614 267.55 491.614 268.71C491.614 269.86 491.989 270.77 492.739 271.44C493.489 272.1 494.434 272.43 495.574 272.43ZM155.846 300.17V298.16H170.516V300.17H163.811L164.336 299.63V317H161.996V299.63L162.521 300.17H155.846ZM179.998 317L179.698 313.85V307.7C179.698 306.41 179.423 305.485 178.873 304.925C178.323 304.355 177.498 304.07 176.398 304.07C175.778 304.07 175.213 304.16 174.703 304.34C174.203 304.52 173.803 304.8 173.503 305.18C173.213 305.55 173.068 306.03 173.068 306.62H170.458C170.458 305.58 170.713 304.745 171.223 304.115C171.733 303.475 172.433 303.015 173.323 302.735C174.223 302.445 175.248 302.3 176.398 302.3C177.498 302.3 178.473 302.485 179.323 302.855C180.173 303.225 180.838 303.815 181.318 304.625C181.798 305.425 182.038 306.47 182.038 307.76V317H179.998ZM175.108 317.36C173.928 317.36 172.953 317.15 172.183 316.73C171.413 316.31 170.838 315.765 170.458 315.095C170.078 314.425 169.888 313.72 169.888 312.98C169.888 312.01 170.128 311.22 170.608 310.61C171.098 310 171.763 309.555 172.603 309.275C173.443 308.985 174.388 308.84 175.438 308.84C176.188 308.84 176.938 308.915 177.688 309.065C178.448 309.215 179.188 309.42 179.908 309.68V311.15C179.308 310.91 178.628 310.72 177.868 310.58C177.118 310.44 176.428 310.37 175.798 310.37C174.838 310.37 174.028 310.57 173.368 310.97C172.708 311.36 172.378 312.03 172.378 312.98C172.378 313.68 172.628 314.28 173.128 314.78C173.638 315.28 174.448 315.53 175.558 315.53C176.338 315.53 177.038 315.35 177.658 314.99C178.288 314.62 178.783 314.16 179.143 313.61C179.513 313.06 179.698 312.51 179.698 311.96H180.268C180.268 312.92 180.058 313.81 179.638 314.63C179.228 315.45 178.638 316.11 177.868 316.61C177.098 317.11 176.178 317.36 175.108 317.36ZM192.801 317.36C191.411 317.36 190.251 317.165 189.321 316.775C188.391 316.375 187.686 315.83 187.206 315.14C186.726 314.44 186.471 313.64 186.441 312.74H188.691C188.741 313.65 189.106 314.335 189.786 314.795C190.476 315.245 191.411 315.47 192.591 315.47C193.211 315.47 193.781 315.37 194.301 315.17C194.821 314.97 195.236 314.695 195.546 314.345C195.856 313.995 196.011 313.6 196.011 313.16C196.011 312.6 195.806 312.16 195.396 311.84C194.986 311.52 194.331 311.24 193.431 311L190.641 310.1C189.431 309.72 188.501 309.2 187.851 308.54C187.211 307.87 186.891 307.07 186.891 306.14C186.891 304.98 187.401 304.05 188.421 303.35C189.441 302.65 190.781 302.3 192.441 302.3C194.201 302.3 195.566 302.66 196.536 303.38C197.506 304.1 198.011 305 198.051 306.08H195.741C195.651 305.45 195.331 304.975 194.781 304.655C194.231 304.325 193.451 304.16 192.441 304.16C191.471 304.16 190.711 304.38 190.161 304.82C189.621 305.25 189.351 305.73 189.351 306.26C189.351 307.25 190.201 307.98 191.901 308.45L194.751 309.41C195.981 309.78 196.921 310.265 197.571 310.865C198.231 311.465 198.561 312.23 198.561 313.16C198.561 313.88 198.326 314.56 197.856 315.2C197.386 315.84 196.721 316.36 195.861 316.76C195.001 317.16 193.981 317.36 192.801 317.36ZM213.603 317V308.57C213.603 307.2 213.273 306.16 212.613 305.45C211.963 304.73 211.073 304.37 209.943 304.37C209.083 304.37 208.338 304.605 207.708 305.075C207.078 305.545 206.593 306.22 206.253 307.1C205.913 307.97 205.743 309.01 205.743 310.22H204.843C204.843 308.55 205.063 307.125 205.503 305.945C205.943 304.765 206.583 303.865 207.423 303.245C208.273 302.615 209.303 302.3 210.513 302.3C211.643 302.3 212.608 302.555 213.408 303.065C214.218 303.565 214.838 304.285 215.268 305.225C215.698 306.165 215.913 307.28 215.913 308.57V317H213.603ZM203.403 317V296.54H205.743V317H203.403ZM221.509 317V296.54H223.849V317H221.509ZM223.489 308.78L230.809 302.66H234.079L223.489 311.27V308.78ZM231.529 317L224.719 307.94L227.089 307.52L234.409 317H231.529ZM243.393 317.36C242.153 317.36 241.043 317.045 240.063 316.415C239.093 315.775 238.323 314.89 237.753 313.76C237.193 312.63 236.913 311.33 236.913 309.86C236.913 308.29 237.193 306.94 237.753 305.81C238.313 304.68 239.078 303.815 240.048 303.215C241.028 302.605 242.143 302.3 243.393 302.3C244.483 302.3 245.413 302.52 246.183 302.96C246.953 303.4 247.573 303.995 248.043 304.745C248.513 305.495 248.838 306.345 249.018 307.295C249.208 308.235 249.263 309.21 249.183 310.22H238.803V308.78H247.638L246.948 309.23C246.978 308.64 246.943 308.05 246.843 307.46C246.753 306.87 246.578 306.33 246.318 305.84C246.058 305.34 245.693 304.94 245.223 304.64C244.753 304.34 244.153 304.19 243.423 304.19C242.503 304.19 241.733 304.425 241.113 304.895C240.493 305.365 240.028 305.985 239.718 306.755C239.408 307.515 239.253 308.34 239.253 309.23V310.19C239.253 311.19 239.403 312.085 239.703 312.875C240.013 313.665 240.473 314.29 241.083 314.75C241.693 315.21 242.463 315.44 243.393 315.44C244.323 315.44 245.088 315.215 245.688 314.765C246.288 314.315 246.653 313.65 246.783 312.77H249.213C249.063 313.72 248.723 314.54 248.193 315.23C247.663 315.91 246.988 316.435 246.168 316.805C245.348 317.175 244.423 317.36 243.393 317.36ZM264.023 317V308.57C264.023 307.2 263.693 306.16 263.033 305.45C262.383 304.73 261.493 304.37 260.363 304.37C259.503 304.37 258.758 304.605 258.128 305.075C257.498 305.545 257.013 306.22 256.673 307.1C256.333 307.97 256.163 309.01 256.163 310.22H255.263C255.263 308.55 255.483 307.125 255.923 305.945C256.363 304.765 257.003 303.865 257.843 303.245C258.693 302.615 259.723 302.3 260.933 302.3C262.063 302.3 263.028 302.555 263.828 303.065C264.638 303.565 265.258 304.285 265.688 305.225C266.118 306.165 266.333 307.28 266.333 308.57V317H264.023ZM253.823 317V302.66H255.833L256.163 305.96V317H253.823ZM276.338 317.36C275.558 317.36 274.858 317.21 274.238 316.91C273.618 316.61 273.128 316.16 272.768 315.56C272.408 314.96 272.228 314.21 272.228 313.31V298.67H274.538V313.25C274.538 314.73 275.228 315.47 276.608 315.47C277.018 315.47 277.413 315.425 277.793 315.335C278.183 315.245 278.618 315.11 279.098 314.93L279.428 316.61C278.918 316.83 278.408 317.01 277.898 317.15C277.398 317.29 276.878 317.36 276.338 317.36ZM269.918 304.28V302.66H279.068V304.28H269.918ZM281.858 314.615C281.858 314.145 282.023 313.74 282.353 313.4C282.683 313.06 283.098 312.89 283.598 312.89C284.098 312.89 284.523 313.06 284.873 313.4C285.223 313.74 285.398 314.145 285.398 314.615C285.398 315.085 285.223 315.48 284.873 315.8C284.523 316.12 284.098 316.28 283.598 316.28C283.098 316.28 282.683 316.12 282.353 315.8C282.023 315.47 281.858 315.075 281.858 314.615ZM281.858 305.435C281.858 304.965 282.023 304.56 282.353 304.22C282.683 303.88 283.098 303.71 283.598 303.71C284.098 303.71 284.523 303.88 284.873 304.22C285.223 304.56 285.398 304.965 285.398 305.435C285.398 305.905 285.223 306.3 284.873 306.62C284.523 306.94 284.098 307.1 283.598 307.1C283.098 307.1 282.683 306.94 282.353 306.62C282.023 306.29 281.858 305.895 281.858 305.435ZM300.961 302.27H303.271V308.63H309.481V310.64H303.271V317H300.961V310.64H294.751V308.63H300.961V302.27ZM318.551 317.36C317.311 317.36 316.206 317.105 315.236 316.595C314.276 316.085 313.516 315.385 312.956 314.495C312.406 313.595 312.131 312.57 312.131 311.42H314.561C314.591 312.57 314.951 313.49 315.641 314.18C316.341 314.86 317.291 315.2 318.491 315.2C319.671 315.2 320.626 314.86 321.356 314.18C322.096 313.5 322.636 312.54 322.976 311.3C323.326 310.05 323.501 308.58 323.501 306.89C323.501 306.5 323.491 306.14 323.471 305.81C323.451 305.47 323.411 305.09 323.351 304.67C323.221 305.75 322.911 306.65 322.421 307.37C321.931 308.08 321.301 308.615 320.531 308.975C319.771 309.325 318.911 309.5 317.951 309.5C316.831 309.5 315.821 309.25 314.921 308.75C314.031 308.24 313.321 307.545 312.791 306.665C312.271 305.775 312.011 304.76 312.011 303.62C312.011 302.45 312.276 301.43 312.806 300.56C313.346 299.69 314.096 299.02 315.056 298.55C316.016 298.07 317.131 297.83 318.401 297.83C319.481 297.83 320.476 298.05 321.386 298.49C322.306 298.93 323.101 299.565 323.771 300.395C324.441 301.215 324.961 302.2 325.331 303.35C325.711 304.5 325.901 305.79 325.901 307.22C325.901 309.29 325.636 311.085 325.106 312.605C324.586 314.125 323.781 315.3 322.691 316.13C321.611 316.95 320.231 317.36 318.551 317.36ZM318.401 307.43C319.141 307.43 319.811 307.265 320.411 306.935C321.011 306.605 321.486 306.16 321.836 305.6C322.186 305.04 322.361 304.41 322.361 303.71C322.361 302.55 321.976 301.635 321.206 300.965C320.446 300.295 319.511 299.96 318.401 299.96C317.261 299.96 316.316 300.295 315.566 300.965C314.816 301.635 314.441 302.55 314.441 303.71C314.441 304.86 314.816 305.77 315.566 306.44C316.316 307.1 317.261 307.43 318.401 307.43ZM335.954 317.36C334.714 317.36 333.609 317.105 332.639 316.595C331.679 316.085 330.919 315.385 330.359 314.495C329.809 313.595 329.534 312.57 329.534 311.42H331.964C331.994 312.57 332.354 313.49 333.044 314.18C333.744 314.86 334.694 315.2 335.894 315.2C337.074 315.2 338.029 314.86 338.759 314.18C339.499 313.5 340.039 312.54 340.379 311.3C340.729 310.05 340.904 308.58 340.904 306.89C340.904 306.5 340.894 306.14 340.874 305.81C340.854 305.47 340.814 305.09 340.754 304.67C340.624 305.75 340.314 306.65 339.824 307.37C339.334 308.08 338.704 308.615 337.934 308.975C337.174 309.325 336.314 309.5 335.354 309.5C334.234 309.5 333.224 309.25 332.324 308.75C331.434 308.24 330.724 307.545 330.194 306.665C329.674 305.775 329.414 304.76 329.414 303.62C329.414 302.45 329.679 301.43 330.209 300.56C330.749 299.69 331.499 299.02 332.459 298.55C333.419 298.07 334.534 297.83 335.804 297.83C336.884 297.83 337.879 298.05 338.789 298.49C339.709 298.93 340.504 299.565 341.174 300.395C341.844 301.215 342.364 302.2 342.734 303.35C343.114 304.5 343.304 305.79 343.304 307.22C343.304 309.29 343.039 311.085 342.509 312.605C341.989 314.125 341.184 315.3 340.094 316.13C339.014 316.95 337.634 317.36 335.954 317.36ZM335.804 307.43C336.544 307.43 337.214 307.265 337.814 306.935C338.414 306.605 338.889 306.16 339.239 305.6C339.589 305.04 339.764 304.41 339.764 303.71C339.764 302.55 339.379 301.635 338.609 300.965C337.849 300.295 336.914 299.96 335.804 299.96C334.664 299.96 333.719 300.295 332.969 300.965C332.219 301.635 331.844 302.55 331.844 303.71C331.844 304.86 332.219 305.77 332.969 306.44C333.719 307.1 334.664 307.43 335.804 307.43ZM354.046 317.36C352.566 317.36 351.256 317.125 350.116 316.655C348.986 316.185 348.096 315.54 347.446 314.72C346.806 313.9 346.486 312.97 346.486 311.93C346.486 310.98 346.731 310.165 347.221 309.485C347.721 308.805 348.401 308.285 349.261 307.925C350.131 307.555 351.116 307.37 352.216 307.37C352.506 307.37 352.786 307.385 353.056 307.415C353.326 307.445 353.616 307.5 353.926 307.58V308.27C352.926 308.27 352.051 308.435 351.301 308.765C350.551 309.085 349.966 309.51 349.546 310.04C349.126 310.57 348.916 311.14 348.916 311.75C348.916 312.49 349.141 313.12 349.591 313.64C350.041 314.15 350.651 314.54 351.421 314.81C352.201 315.07 353.076 315.2 354.046 315.2C355.666 315.2 356.926 314.94 357.826 314.42C358.726 313.9 359.176 313.22 359.176 312.38C359.176 311.7 358.936 311.14 358.456 310.7C357.986 310.26 357.336 309.89 356.506 309.59L351.316 307.61C350.686 307.37 350.046 307.04 349.396 306.62C348.756 306.2 348.216 305.675 347.776 305.045C347.336 304.415 347.116 303.67 347.116 302.81C347.116 301.84 347.391 300.98 347.941 300.23C348.491 299.48 349.281 298.895 350.311 298.475C351.351 298.045 352.596 297.83 354.046 297.83C355.376 297.83 356.556 298.06 357.586 298.52C358.626 298.97 359.441 299.59 360.031 300.38C360.621 301.16 360.916 302.05 360.916 303.05C360.916 303.83 360.716 304.555 360.316 305.225C359.926 305.885 359.346 306.42 358.576 306.83C357.816 307.23 356.876 307.43 355.756 307.43C355.486 307.43 355.226 307.415 354.976 307.385C354.736 307.345 354.466 307.28 354.166 307.19V306.44C354.976 306.44 355.706 306.305 356.356 306.035C357.006 305.755 357.521 305.37 357.901 304.88C358.291 304.39 358.486 303.82 358.486 303.17C358.486 302.55 358.296 302 357.916 301.52C357.546 301.03 357.026 300.65 356.356 300.38C355.696 300.1 354.926 299.96 354.046 299.96C353.196 299.96 352.431 300.095 351.751 300.365C351.081 300.625 350.551 300.98 350.161 301.43C349.771 301.87 349.576 302.36 349.576 302.9C349.576 303.57 349.801 304.11 350.251 304.52C350.711 304.92 351.346 305.27 352.156 305.57L357.346 307.55C358.726 308.07 359.786 308.685 360.526 309.395C361.266 310.105 361.636 311.07 361.636 312.29C361.636 313.28 361.336 314.16 360.736 314.93C360.136 315.69 359.271 316.285 358.141 316.715C357.011 317.145 355.646 317.36 354.046 317.36ZM365.034 317L374.064 300.38H363.984V298.16H376.824V300.32L368.154 317H365.034ZM382.335 298.1H384.225V317H381.885V300.86C381.405 301.19 380.9 301.445 380.37 301.625C379.85 301.795 379.325 301.89 378.795 301.91V299.63C379.425 299.54 380.035 299.375 380.625 299.135C381.225 298.895 381.795 298.55 382.335 298.1ZM389.178 317V314.21C389.178 313.12 389.353 312.21 389.703 311.48C390.063 310.75 390.563 310.145 391.203 309.665C391.853 309.185 392.618 308.77 393.498 308.42L397.218 306.95C398.178 306.56 398.898 306.06 399.378 305.45C399.858 304.84 400.098 304.08 400.098 303.17C400.098 302.21 399.763 301.425 399.093 300.815C398.433 300.205 397.508 299.9 396.318 299.9C395.138 299.9 394.168 300.155 393.408 300.665C392.658 301.165 392.228 301.92 392.118 302.93H389.508C389.578 301.84 389.898 300.915 390.468 300.155C391.048 299.395 391.833 298.82 392.823 298.43C393.813 298.03 394.968 297.83 396.288 297.83C397.498 297.83 398.583 298.065 399.543 298.535C400.503 299.005 401.258 299.655 401.808 300.485C402.368 301.305 402.648 302.25 402.648 303.32C402.648 304.29 402.468 305.135 402.108 305.855C401.748 306.575 401.233 307.195 400.563 307.715C399.903 308.235 399.118 308.68 398.208 309.05L394.398 310.58C393.438 310.95 392.718 311.395 392.238 311.915C391.758 312.435 391.518 313.11 391.518 313.94V314.84H402.468V317H389.178ZM413.541 317.36C412.061 317.36 410.766 317 409.656 316.28C408.556 315.56 407.696 314.475 407.076 313.025C406.466 311.575 406.161 309.76 406.161 307.58C406.161 305.4 406.466 303.59 407.076 302.15C407.696 300.7 408.556 299.62 409.656 298.91C410.766 298.19 412.061 297.83 413.541 297.83C415.011 297.83 416.301 298.19 417.411 298.91C418.521 299.62 419.381 300.7 419.991 302.15C420.611 303.59 420.921 305.4 420.921 307.58C420.921 309.76 420.611 311.575 419.991 313.025C419.381 314.475 418.521 315.56 417.411 316.28C416.301 317 415.011 317.36 413.541 317.36ZM413.541 315.2C415.161 315.2 416.391 314.54 417.231 313.22C418.071 311.89 418.491 310.01 418.491 307.58C418.491 305.15 418.071 303.275 417.231 301.955C416.391 300.625 415.161 299.96 413.541 299.96C411.941 299.96 410.716 300.625 409.866 301.955C409.016 303.275 408.591 305.15 408.591 307.58C408.591 310.01 409.016 311.89 409.866 313.22C410.716 314.54 411.941 315.2 413.541 315.2ZM430.903 317.36C429.713 317.36 428.628 317.145 427.648 316.715C426.668 316.285 425.883 315.655 425.293 314.825C424.703 313.985 424.403 312.96 424.393 311.75H426.733C426.733 312.89 427.133 313.75 427.933 314.33C428.743 314.91 429.733 315.2 430.903 315.2C432.253 315.2 433.313 314.79 434.083 313.97C434.863 313.14 435.253 312.12 435.253 310.91C435.253 308.49 433.693 307.28 430.573 307.28H425.533L426.343 298.16H436.783V300.29H428.233L428.713 299.48L428.083 306.05L427.783 305.78C428.263 305.67 428.808 305.595 429.418 305.555C430.028 305.505 430.573 305.48 431.053 305.48C433.093 305.48 434.708 305.935 435.898 306.845C437.088 307.755 437.683 309.11 437.683 310.91C437.683 312.13 437.408 313.23 436.858 314.21C436.308 315.18 435.523 315.95 434.503 316.52C433.493 317.08 432.293 317.36 430.903 317.36ZM444.357 298.1H446.247V317H443.907V300.86C443.427 301.19 442.922 301.445 442.392 301.625C441.872 301.795 441.347 301.89 440.817 301.91V299.63C441.447 299.54 442.057 299.375 442.647 299.135C443.247 298.895 443.817 298.55 444.357 298.1ZM458.189 317.36C457.249 317.36 456.339 317.23 455.459 316.97C454.589 316.7 453.804 316.31 453.104 315.8C452.414 315.28 451.869 314.64 451.469 313.88C451.069 313.12 450.869 312.24 450.869 311.24H453.269C453.289 312.1 453.519 312.825 453.959 313.415C454.399 314.005 454.984 314.45 455.714 314.75C456.454 315.05 457.279 315.2 458.189 315.2C459.589 315.2 460.674 314.86 461.444 314.18C462.214 313.5 462.599 312.65 462.599 311.63C462.599 310.98 462.439 310.405 462.119 309.905C461.799 309.405 461.289 309.015 460.589 308.735C459.899 308.445 458.989 308.3 457.859 308.3H455.729V306.44H457.169C458.629 306.44 459.779 306.15 460.619 305.57C461.459 304.99 461.879 304.19 461.879 303.17C461.879 302.27 461.539 301.51 460.859 300.89C460.179 300.27 459.209 299.96 457.949 299.96C456.979 299.96 456.114 300.16 455.354 300.56C454.594 300.95 454.079 301.67 453.809 302.72H451.409C451.569 301.55 451.949 300.605 452.549 299.885C453.149 299.165 453.909 298.645 454.829 298.325C455.749 297.995 456.769 297.83 457.889 297.83C459.139 297.83 460.254 298.05 461.234 298.49C462.214 298.93 462.984 299.535 463.544 300.305C464.114 301.075 464.399 301.96 464.399 302.96C464.399 303.95 464.114 304.8 463.544 305.51C462.984 306.21 462.169 306.75 461.099 307.13C462.289 307.47 463.259 308.03 464.009 308.81C464.769 309.59 465.149 310.59 465.149 311.81C465.149 312.89 464.864 313.85 464.294 314.69C463.734 315.52 462.934 316.175 461.894 316.655C460.854 317.125 459.619 317.36 458.189 317.36ZM476.214 317.36C474.734 317.36 473.424 317.125 472.284 316.655C471.154 316.185 470.264 315.54 469.614 314.72C468.974 313.9 468.654 312.97 468.654 311.93C468.654 310.98 468.899 310.165 469.389 309.485C469.889 308.805 470.569 308.285 471.429 307.925C472.299 307.555 473.284 307.37 474.384 307.37C474.674 307.37 474.954 307.385 475.224 307.415C475.494 307.445 475.784 307.5 476.094 307.58V308.27C475.094 308.27 474.219 308.435 473.469 308.765C472.719 309.085 472.134 309.51 471.714 310.04C471.294 310.57 471.084 311.14 471.084 311.75C471.084 312.49 471.309 313.12 471.759 313.64C472.209 314.15 472.819 314.54 473.589 314.81C474.369 315.07 475.244 315.2 476.214 315.2C477.834 315.2 479.094 314.94 479.994 314.42C480.894 313.9 481.344 313.22 481.344 312.38C481.344 311.7 481.104 311.14 480.624 310.7C480.154 310.26 479.504 309.89 478.674 309.59L473.484 307.61C472.854 307.37 472.214 307.04 471.564 306.62C470.924 306.2 470.384 305.675 469.944 305.045C469.504 304.415 469.284 303.67 469.284 302.81C469.284 301.84 469.559 300.98 470.109 300.23C470.659 299.48 471.449 298.895 472.479 298.475C473.519 298.045 474.764 297.83 476.214 297.83C477.544 297.83 478.724 298.06 479.754 298.52C480.794 298.97 481.609 299.59 482.199 300.38C482.789 301.16 483.084 302.05 483.084 303.05C483.084 303.83 482.884 304.555 482.484 305.225C482.094 305.885 481.514 306.42 480.744 306.83C479.984 307.23 479.044 307.43 477.924 307.43C477.654 307.43 477.394 307.415 477.144 307.385C476.904 307.345 476.634 307.28 476.334 307.19V306.44C477.144 306.44 477.874 306.305 478.524 306.035C479.174 305.755 479.689 305.37 480.069 304.88C480.459 304.39 480.654 303.82 480.654 303.17C480.654 302.55 480.464 302 480.084 301.52C479.714 301.03 479.194 300.65 478.524 300.38C477.864 300.1 477.094 299.96 476.214 299.96C475.364 299.96 474.599 300.095 473.919 300.365C473.249 300.625 472.719 300.98 472.329 301.43C471.939 301.87 471.744 302.36 471.744 302.9C471.744 303.57 471.969 304.11 472.419 304.52C472.879 304.92 473.514 305.27 474.324 305.57L479.514 307.55C480.894 308.07 481.954 308.685 482.694 309.395C483.434 310.105 483.804 311.07 483.804 312.29C483.804 313.28 483.504 314.16 482.904 314.93C482.304 315.69 481.439 316.285 480.309 316.715C479.179 317.145 477.814 317.36 476.214 317.36ZM490.412 298.1H492.302V317H489.962V300.86C489.482 301.19 488.977 301.445 488.447 301.625C487.927 301.795 487.402 301.89 486.872 301.91V299.63C487.502 299.54 488.112 299.375 488.702 299.135C489.302 298.895 489.872 298.55 490.412 298.1Z" fill="black"/>
<path d="M287.884 102.04H294.644L301.964 117.92H301.564L308.884 102.04H315.404V128H310.644V107.48H311.364L303.284 125.16H300.204L292.164 107.56H292.604V128H287.884V102.04ZM335.205 128L334.605 123.28V115.48C334.605 114.12 334.325 113.113 333.765 112.46C333.218 111.807 332.285 111.48 330.965 111.48C330.205 111.48 329.545 111.593 328.985 111.82C328.425 112.047 327.992 112.373 327.685 112.8C327.392 113.213 327.245 113.72 327.245 114.32H322.085C322.085 112.853 322.438 111.66 323.145 110.74C323.852 109.807 324.865 109.127 326.185 108.7C327.518 108.26 329.112 108.04 330.965 108.04C332.645 108.04 334.112 108.313 335.365 108.86C336.618 109.393 337.592 110.22 338.285 111.34C338.978 112.46 339.325 113.893 339.325 115.64V128H335.205ZM328.845 128.56C327.178 128.56 325.785 128.273 324.665 127.7C323.558 127.113 322.725 126.347 322.165 125.4C321.605 124.453 321.325 123.427 321.325 122.32C321.325 121.093 321.645 120.067 322.285 119.24C322.938 118.4 323.858 117.773 325.045 117.36C326.232 116.933 327.632 116.72 329.245 116.72C330.298 116.72 331.292 116.8 332.225 116.96C333.172 117.12 334.112 117.333 335.045 117.6V120.36C334.312 120.12 333.512 119.933 332.645 119.8C331.778 119.667 330.965 119.6 330.205 119.6C329.085 119.6 328.165 119.807 327.445 120.22C326.725 120.633 326.365 121.333 326.365 122.32C326.365 123.04 326.658 123.66 327.245 124.18C327.832 124.7 328.765 124.96 330.045 124.96C331.018 124.96 331.845 124.747 332.525 124.32C333.205 123.893 333.718 123.36 334.065 122.72C334.425 122.08 334.605 121.44 334.605 120.8H335.725C335.725 122.2 335.465 123.493 334.945 124.68C334.425 125.853 333.652 126.793 332.625 127.5C331.612 128.207 330.352 128.56 328.845 128.56ZM349.003 105.04C348.083 105.04 347.363 104.8 346.843 104.32C346.337 103.827 346.083 103.147 346.083 102.28C346.083 101.44 346.337 100.773 346.843 100.28C347.363 99.7733 348.083 99.52 349.003 99.52C349.91 99.52 350.623 99.7733 351.143 100.28C351.663 100.773 351.923 101.44 351.923 102.28C351.923 103.147 351.663 103.827 351.143 104.32C350.623 104.8 349.91 105.04 349.003 105.04ZM346.643 128V108.52H351.363V128H346.643ZM359.368 128V100.56H364.088V128H359.368Z" fill="black"/>
</svg>
