<svg width="110" height="52" viewBox="0 0 110 52" fill="none" xmlns="http://www.w3.org/2000/svg">
<path d="M3.38 10.16H12.54L18.48 24.48H17.98L23.92 10.16H32.72V37H26.28V17.9H27.16L20.26 34.5H16.12L9.26 17.94H9.78V37H3.38V10.16ZM47.3928 37.64C45.7395 37.64 44.1861 37.2133 42.7328 36.36C41.2795 35.5067 40.0995 34.2867 39.1928 32.7C38.2995 31.1133 37.8528 29.2333 37.8528 27.06C37.8528 24.8867 38.2995 23.0267 39.1928 21.48C40.0861 19.92 41.2595 18.7267 42.7128 17.9C44.1661 17.0733 45.7261 16.66 47.3928 16.66C49.0461 16.66 50.4861 16.9933 51.7128 17.66C52.9395 18.3133 53.9261 19.2 54.6728 20.32C55.4328 21.44 55.9261 22.7067 56.1528 24.12C56.3928 25.52 56.3461 26.9667 56.0128 28.46H42.9128V25.22H51.3328L50.4128 25.82C50.4528 25.3533 50.4328 24.88 50.3528 24.4C50.2861 23.92 50.1461 23.48 49.9328 23.08C49.7195 22.6667 49.4128 22.34 49.0128 22.1C48.6261 21.8467 48.1261 21.72 47.5128 21.72C46.8328 21.72 46.2395 21.8867 45.7328 22.22C45.2395 22.54 44.8528 23.0133 44.5728 23.64C44.3061 24.2533 44.1728 25.0067 44.1728 25.9V28.42C44.1728 29.26 44.2928 29.9867 44.5328 30.6C44.7728 31.2133 45.1261 31.6933 45.5928 32.04C46.0728 32.3733 46.6728 32.54 47.3928 32.54C47.9795 32.54 48.4928 32.42 48.9328 32.18C49.3728 31.94 49.6795 31.56 49.8528 31.04H56.2128C56.0128 32.2667 55.5195 33.38 54.7328 34.38C53.9595 35.38 52.9461 36.1733 51.6928 36.76C50.4528 37.3467 49.0195 37.64 47.3928 37.64ZM74.4669 37V25.52C74.4669 24.48 74.2135 23.7133 73.7069 23.22C73.2002 22.7133 72.5869 22.46 71.8669 22.46C71.1335 22.46 70.4602 22.6667 69.8469 23.08C69.2335 23.4933 68.7402 24.16 68.3669 25.08C68.0069 25.9867 67.8269 27.1933 67.8269 28.7H65.8869C65.8869 25.8733 66.2202 23.5733 66.8869 21.8C67.5669 20.0267 68.4869 18.7267 69.6469 17.9C70.8202 17.0733 72.1469 16.66 73.6269 16.66C75.3202 16.66 76.7002 17.04 77.7669 17.8C78.8469 18.56 79.6402 19.6067 80.1469 20.94C80.6535 22.2733 80.9069 23.8 80.9069 25.52V37H74.4669ZM61.4269 37V17.3H67.0669L67.8269 20.56V37H61.4269ZM100.009 17.18H106.409V37H100.009V17.18ZM86.9491 17.18H93.3491V29.1C93.3491 30.0067 93.5757 30.68 94.0291 31.12C94.4957 31.5467 95.0891 31.76 95.8091 31.76C96.4624 31.76 97.1091 31.6 97.7491 31.28C98.4024 30.96 98.9424 30.4133 99.3691 29.64C99.7957 28.8667 100.009 27.7933 100.009 26.42H101.409C101.409 29.0333 101.109 31.1467 100.509 32.76C99.9091 34.36 99.0891 35.5267 98.0491 36.26C97.0224 36.9933 95.8557 37.36 94.5491 37.36C93.2291 37.36 91.9891 37.1333 90.8291 36.68C89.6691 36.2267 88.7291 35.4533 88.0091 34.36C87.3024 33.2667 86.9491 31.76 86.9491 29.84V17.18Z" fill="black"/>
<line x1="13" y1="51.5" x2="101.006" y2="51.5" stroke="black"/>
</svg>
