<svg width="100" height="60" viewBox="0 0 100 60" fill="none" xmlns="http://www.w3.org/2000/svg">
<rect width="100" height="60" rx="5" fill="black"/>
<path d="M17.72 42V16.04H28.2C30.2 16.04 31.86 16.3533 33.18 16.98C34.5 17.5933 35.4867 18.42 36.14 19.46C36.7933 20.5 37.12 21.6533 37.12 22.92C37.12 24.3867 36.7067 25.64 35.88 26.68C35.0667 27.72 33.92 28.4533 32.44 28.88C33.4133 29.08 34.2867 29.4467 35.06 29.98C35.8333 30.5133 36.44 31.1867 36.88 32C37.3333 32.8133 37.56 33.7467 37.56 34.8C37.56 35.6267 37.4133 36.46 37.12 37.3C36.84 38.14 36.3467 38.92 35.64 39.64C34.9467 40.3467 33.9933 40.92 32.78 41.36C31.58 41.7867 30.0667 42 28.24 42H17.72ZM22.44 37.88H28.12C29.6267 37.88 30.7267 37.58 31.42 36.98C32.1267 36.3667 32.48 35.5467 32.48 34.52C32.48 33.4933 32.12 32.6733 31.4 32.06C30.68 31.4333 29.5867 31.12 28.12 31.12H22.44V37.88ZM22.44 20.12V27H28C29.4 27 30.46 26.6933 31.18 26.08C31.9133 25.4533 32.28 24.6 32.28 23.52C32.28 22.4933 31.92 21.6733 31.2 21.06C30.4933 20.4333 29.44 20.12 28.04 20.12H22.44ZM56.5775 22.52H61.2975V42H56.5775V22.52ZM43.2575 22.52H47.9775V34.44C47.9775 35.7067 48.2908 36.66 48.9175 37.3C49.5442 37.9267 50.4042 38.24 51.4975 38.24C52.4308 38.24 53.2775 38 54.0375 37.52C54.8108 37.0267 55.4242 36.3067 55.8775 35.36C56.3442 34.4 56.5775 33.2133 56.5775 31.8H57.8575C57.8575 34.1733 57.5508 36.14 56.9375 37.7C56.3242 39.26 55.4775 40.4267 54.3975 41.2C53.3175 41.9733 52.0708 42.36 50.6575 42.36C49.2708 42.36 48.0175 42.1133 46.8975 41.62C45.7775 41.1267 44.8908 40.3333 44.2375 39.24C43.5842 38.1467 43.2575 36.7067 43.2575 34.92V22.52ZM65.7756 22.6H71.1356L76.2956 37.88H75.4556L79.8956 22.6H84.6956L77.2556 45.52C76.4956 47.8133 75.5556 49.4733 74.4356 50.5C73.329 51.5267 71.9756 52.04 70.3756 52.04C69.4556 52.04 68.5556 51.9333 67.6756 51.72C66.809 51.52 65.9223 51.2 65.0156 50.76V46.6C65.749 47.0533 66.4556 47.3867 67.1356 47.6C67.829 47.8133 68.5223 47.92 69.2156 47.92C69.8423 47.92 70.389 47.7467 70.8556 47.4C71.3356 47.0667 71.749 46.5933 72.0956 45.98C72.4423 45.38 72.7356 44.68 72.9756 43.88L73.5756 42L65.7756 22.6Z" fill="#FEFEFE"/>
</svg>
