<svg width="72" height="66" viewBox="0 0 72 66" fill="none" xmlns="http://www.w3.org/2000/svg">
<path d="M59.9133 42.4294C61.1675 39.3835 61.8483 36.1227 61.8483 32.5394C61.8483 29.9594 61.4542 27.4869 60.7733 25.1935C58.4442 25.731 56.0075 26.0177 53.4633 26.0177C48.2531 26.0233 43.1178 24.7762 38.4905 22.3814C33.8631 19.9867 29.8794 16.5146 26.875 12.2577C23.6611 20.0342 17.5982 26.2893 9.92583 29.7444C9.7825 30.6402 9.7825 31.6077 9.7825 32.5394C9.7825 35.9604 10.4563 39.348 11.7655 42.5086C13.0747 45.6692 14.9936 48.5411 17.4126 50.9601C22.2981 55.8456 28.9242 58.5902 35.8333 58.5902C39.5958 58.5902 43.215 57.766 46.4758 56.2969C48.5183 60.2027 49.45 62.1377 49.3783 62.1377C43.5017 64.1085 38.9508 65.076 35.8333 65.076C27.1617 65.076 18.8842 61.6719 12.7925 55.5444C9.08732 51.8506 6.33308 47.3135 4.76583 42.3219H0V26.0177H3.90583C5.0892 20.2576 7.80985 14.9252 11.7791 10.5864C15.7483 6.24765 20.8181 3.06434 26.4505 1.37426C32.0828 -0.315811 38.0677 -0.449605 43.7699 0.987078C49.4722 2.42376 54.6792 5.37733 58.8383 9.53438C63.3541 14.0324 66.4343 19.7687 67.6892 26.0177H71.6667V42.3219H71.4517L58.695 54.0394L39.7033 51.8894V45.9052H57.0108L59.9133 42.4294ZM26.0508 31.7152C27.1258 31.7152 28.165 32.1452 28.9175 32.9335C29.6737 33.696 30.0981 34.7263 30.0981 35.8002C30.0981 36.8741 29.6737 37.9045 28.9175 38.6669C28.165 39.4194 27.1258 39.8494 26.0508 39.8494C23.7933 39.8494 21.9658 38.0577 21.9658 35.8002C21.9658 33.5427 23.7933 31.7152 26.0508 31.7152ZM45.58 31.7152C47.8375 31.7152 49.6292 33.5427 49.6292 35.8002C49.6292 38.0577 47.8375 39.8494 45.58 39.8494C43.3225 39.8494 41.495 38.0577 41.495 35.8002C41.495 34.7168 41.9254 33.6778 42.6915 32.9117C43.4576 32.1456 44.4966 31.7152 45.58 31.7152Z" fill="black"/>
</svg>
